<svg xmlns="http://www.w3.org/2000/svg" xmlns:xlink="http://www.w3.org/1999/xlink" width="130" zoomAndPan="magnify" viewBox="0 0 97.5 97.499997" height="130" preserveAspectRatio="xMidYMid meet" version="1.0"><path fill="#6cc845" d="M 96.40625 48.84375 C 96.40625 50.417969 96.328125 51.992188 96.175781 53.5625 C 96.019531 55.128906 95.789062 56.6875 95.480469 58.234375 C 95.175781 59.78125 94.792969 61.304688 94.332031 62.816406 C 93.875 64.324219 93.347656 65.804688 92.742188 67.261719 C 92.140625 68.71875 91.464844 70.140625 90.722656 71.53125 C 89.980469 72.921875 89.171875 74.273438 88.292969 75.582031 C 87.417969 76.894531 86.480469 78.160156 85.480469 79.378906 C 84.480469 80.597656 83.425781 81.761719 82.308594 82.878906 C 81.195312 83.992188 80.027344 85.050781 78.808594 86.050781 C 77.589844 87.050781 76.328125 87.988281 75.015625 88.863281 C 73.703125 89.738281 72.355469 90.546875 70.964844 91.292969 C 69.574219 92.035156 68.152344 92.707031 66.695312 93.3125 C 65.238281 93.914062 63.753906 94.445312 62.246094 94.902344 C 60.738281 95.359375 59.210938 95.742188 57.664062 96.050781 C 56.121094 96.355469 54.5625 96.589844 52.992188 96.742188 C 51.425781 96.898438 49.851562 96.972656 48.277344 96.972656 C 46.699219 96.972656 45.125 96.898438 43.558594 96.742188 C 41.988281 96.589844 40.429688 96.355469 38.886719 96.050781 C 37.339844 95.742188 35.8125 95.359375 34.304688 94.902344 C 32.796875 94.445312 31.3125 93.914062 29.855469 93.3125 C 28.398438 92.707031 26.976562 92.035156 25.585938 91.292969 C 24.195312 90.546875 22.847656 89.738281 21.535156 88.863281 C 20.222656 87.988281 18.960938 87.050781 17.742188 86.050781 C 16.523438 85.050781 15.355469 83.992188 14.242188 82.878906 C 13.128906 81.761719 12.070312 80.597656 11.070312 79.378906 C 10.070312 78.160156 9.132812 76.894531 8.257812 75.582031 C 7.378906 74.273438 6.570312 72.921875 5.828125 71.53125 C 5.085938 70.140625 4.410156 68.71875 3.808594 67.261719 C 3.203125 65.804688 2.675781 64.324219 2.21875 62.816406 C 1.757812 61.304688 1.375 59.78125 1.070312 58.234375 C 0.761719 56.6875 0.53125 55.128906 0.375 53.5625 C 0.222656 51.992188 0.144531 50.417969 0.144531 48.84375 C 0.144531 47.265625 0.222656 45.695312 0.375 44.125 C 0.53125 42.558594 0.761719 41 1.070312 39.453125 C 1.375 37.90625 1.757812 36.378906 2.21875 34.871094 C 2.675781 33.363281 3.203125 31.878906 3.808594 30.425781 C 4.410156 28.96875 5.085938 27.542969 5.828125 26.15625 C 6.570312 24.765625 7.378906 23.414062 8.257812 22.101562 C 9.132812 20.792969 10.070312 19.527344 11.070312 18.308594 C 12.070312 17.089844 13.128906 15.925781 14.242188 14.808594 C 15.355469 13.695312 16.523438 12.636719 17.742188 11.636719 C 18.960938 10.636719 20.222656 9.699219 21.535156 8.824219 C 22.847656 7.949219 24.195312 7.140625 25.585938 6.394531 C 26.976562 5.652344 28.398438 4.980469 29.855469 4.375 C 31.3125 3.773438 32.796875 3.242188 34.304688 2.785156 C 35.8125 2.328125 37.339844 1.945312 38.886719 1.636719 C 40.429688 1.328125 41.988281 1.097656 43.558594 0.945312 C 45.125 0.789062 46.699219 0.710938 48.277344 0.710938 C 49.851562 0.710938 51.425781 0.789062 52.992188 0.945312 C 54.5625 1.097656 56.121094 1.328125 57.664062 1.636719 C 59.210938 1.945312 60.738281 2.328125 62.246094 2.785156 C 63.753906 3.242188 65.238281 3.773438 66.695312 4.375 C 68.152344 4.980469 69.574219 5.652344 70.964844 6.394531 C 72.355469 7.140625 73.703125 7.949219 75.015625 8.824219 C 76.328125 9.699219 77.589844 10.636719 78.808594 11.636719 C 80.027344 12.636719 81.195312 13.695312 82.308594 14.808594 C 83.425781 15.925781 84.480469 17.089844 85.480469 18.308594 C 86.480469 19.527344 87.417969 20.792969 88.292969 22.101562 C 89.171875 23.414062 89.980469 24.765625 90.722656 26.15625 C 91.464844 27.542969 92.140625 28.96875 92.742188 30.425781 C 93.347656 31.878906 93.875 33.363281 94.332031 34.871094 C 94.792969 36.378906 95.175781 37.90625 95.480469 39.453125 C 95.789062 41 96.019531 42.558594 96.175781 44.125 C 96.328125 45.695312 96.40625 47.265625 96.40625 48.84375 Z M 96.40625 48.84375 " fill-opacity="1" fill-rule="nonzero"/><path fill="#ffffff" d="M 41.589844 56.863281 C 41.191406 56.863281 40.921875 56.730469 40.65625 56.464844 C 40.121094 55.929688 40.121094 55.128906 40.65625 54.59375 L 54.023438 41.222656 C 54.558594 40.6875 55.363281 40.6875 55.898438 41.222656 C 56.429688 41.757812 56.429688 42.558594 55.898438 43.09375 L 42.527344 56.464844 C 42.257812 56.730469 41.992188 56.863281 41.589844 56.863281 Z M 41.589844 56.863281 " fill-opacity="1" fill-rule="nonzero"/><path fill="#ffffff" d="M 54.960938 55.527344 C 54.160156 55.527344 53.625 54.992188 53.625 54.191406 L 53.625 43.496094 L 42.925781 43.496094 C 42.125 43.496094 41.589844 42.960938 41.589844 42.160156 C 41.589844 41.355469 42.125 40.820312 42.925781 40.820312 L 54.960938 40.820312 C 55.761719 40.820312 56.296875 41.355469 56.296875 42.160156 L 56.296875 54.191406 C 56.296875 54.992188 55.761719 55.527344 54.960938 55.527344 Z M 54.960938 55.527344 " fill-opacity="1" fill-rule="nonzero"/><path fill="#ffffff" d="M 52.308594 16.09375 C 51.640625 16.023438 51.085938 15.816406 50.644531 15.476562 C 50.199219 15.136719 49.878906 14.691406 49.675781 14.144531 C 49.480469 13.59375 49.417969 12.976562 49.488281 12.289062 C 49.5625 11.605469 49.753906 11.011719 50.0625 10.519531 C 50.371094 10.027344 50.78125 9.660156 51.285156 9.421875 C 51.789062 9.175781 52.375 9.089844 53.039062 9.160156 C 53.808594 9.242188 54.425781 9.503906 54.898438 9.941406 C 55.367188 10.378906 55.671875 10.933594 55.8125 11.605469 L 54.65625 11.796875 C 54.570312 11.347656 54.386719 10.984375 54.101562 10.707031 C 53.816406 10.429688 53.425781 10.261719 52.929688 10.210938 C 52.484375 10.164062 52.101562 10.222656 51.78125 10.394531 C 51.460938 10.5625 51.210938 10.820312 51.019531 11.167969 C 50.835938 11.511719 50.714844 11.929688 50.660156 12.414062 C 50.609375 12.902344 50.636719 13.335938 50.746094 13.714844 C 50.859375 14.089844 51.054688 14.394531 51.332031 14.625 C 51.609375 14.859375 51.972656 14.996094 52.417969 15.042969 C 52.914062 15.097656 53.332031 15.015625 53.667969 14.804688 C 54.003906 14.589844 54.261719 14.273438 54.4375 13.855469 L 55.527344 14.285156 C 55.25 14.914062 54.839844 15.394531 54.285156 15.722656 C 53.734375 16.050781 53.074219 16.175781 52.308594 16.09375 Z M 52.308594 16.09375 " fill-opacity="1" fill-rule="nonzero"/><path fill="#ffffff" d="M 58.53125 17.382812 C 58.050781 17.234375 57.664062 16.996094 57.375 16.671875 C 57.082031 16.34375 56.894531 15.960938 56.8125 15.523438 C 56.734375 15.082031 56.773438 14.613281 56.925781 14.117188 C 57.078125 13.613281 57.316406 13.203125 57.632812 12.886719 C 57.953125 12.570312 58.320312 12.359375 58.746094 12.257812 C 59.167969 12.152344 59.617188 12.171875 60.089844 12.320312 C 60.570312 12.46875 60.957031 12.703125 61.25 13.03125 C 61.542969 13.355469 61.726562 13.742188 61.808594 14.183594 C 61.890625 14.625 61.855469 15.09375 61.703125 15.585938 C 61.550781 16.082031 61.316406 16.492188 60.996094 16.8125 C 60.679688 17.132812 60.3125 17.34375 59.886719 17.449219 C 59.464844 17.550781 59.011719 17.53125 58.53125 17.382812 Z M 58.839844 16.378906 C 59.265625 16.507812 59.628906 16.464844 59.921875 16.246094 C 60.214844 16.023438 60.433594 15.6875 60.570312 15.238281 C 60.714844 14.773438 60.722656 14.371094 60.597656 14.03125 C 60.472656 13.6875 60.199219 13.453125 59.78125 13.324219 C 59.492188 13.234375 59.234375 13.226562 59.007812 13.300781 C 58.785156 13.371094 58.59375 13.507812 58.433594 13.710938 C 58.277344 13.910156 58.148438 14.164062 58.058594 14.464844 C 57.914062 14.929688 57.90625 15.335938 58.03125 15.675781 C 58.160156 16.019531 58.429688 16.253906 58.839844 16.378906 Z M 58.839844 16.378906 " fill-opacity="1" fill-rule="nonzero"/><path fill="#ffffff" d="M 65.023438 19.996094 L 66.121094 17.84375 C 66.191406 17.703125 66.261719 17.542969 66.332031 17.363281 C 66.398438 17.179688 66.4375 16.992188 66.445312 16.800781 C 66.457031 16.605469 66.417969 16.417969 66.332031 16.246094 C 66.246094 16.074219 66.082031 15.925781 65.847656 15.804688 C 65.71875 15.742188 65.582031 15.699219 65.4375 15.675781 C 65.292969 15.652344 65.140625 15.667969 64.988281 15.71875 C 64.839844 15.765625 64.6875 15.863281 64.535156 16.007812 C 64.386719 16.152344 64.242188 16.359375 64.105469 16.632812 L 63.640625 16.078125 C 63.835938 15.699219 64.082031 15.390625 64.386719 15.15625 C 64.695312 14.921875 65.039062 14.789062 65.417969 14.753906 C 65.796875 14.714844 66.199219 14.800781 66.617188 15.015625 C 66.949219 15.183594 67.195312 15.378906 67.355469 15.597656 C 67.511719 15.820312 67.613281 16.046875 67.652344 16.28125 C 67.691406 16.519531 67.691406 16.75 67.65625 16.972656 C 67.617188 17.195312 67.5625 17.398438 67.492188 17.582031 C 67.421875 17.761719 67.363281 17.90625 67.308594 18.015625 L 66.035156 20.511719 Z M 61.921875 18.417969 L 64.203125 13.945312 L 65.089844 14.398438 L 64.386719 15.785156 L 64.503906 15.847656 L 62.933594 18.933594 Z M 61.921875 18.417969 " fill-opacity="1" fill-rule="nonzero"/><path fill="#ffffff" d="M 69.296875 22.8125 C 68.988281 22.671875 68.703125 22.511719 68.449219 22.320312 C 68.191406 22.136719 67.992188 21.929688 67.84375 21.695312 C 67.703125 21.460938 67.644531 21.210938 67.671875 20.941406 C 67.703125 20.695312 67.777344 20.480469 67.902344 20.289062 C 68.027344 20.101562 68.167969 19.886719 68.332031 19.652344 L 70.8125 16.0625 L 71.726562 16.699219 L 69.285156 20.234375 C 69.171875 20.398438 69.070312 20.546875 68.988281 20.671875 C 68.90625 20.800781 68.863281 20.921875 68.855469 21.035156 C 68.84375 21.25 68.929688 21.4375 69.121094 21.59375 C 69.308594 21.75 69.546875 21.898438 69.828125 22.039062 Z M 68.769531 17.414062 L 69.269531 16.691406 L 72.148438 18.683594 L 71.648438 19.40625 Z M 68.769531 17.414062 " fill-opacity="1" fill-rule="nonzero"/><path fill="#ffffff" d="M 70.480469 24.046875 C 70.210938 23.804688 70.027344 23.546875 69.933594 23.277344 C 69.839844 23.007812 69.820312 22.742188 69.878906 22.484375 C 69.9375 22.230469 70.058594 22 70.242188 21.796875 C 70.40625 21.617188 70.582031 21.480469 70.769531 21.394531 C 70.960938 21.300781 71.164062 21.261719 71.382812 21.269531 C 71.601562 21.273438 71.839844 21.332031 72.097656 21.445312 C 72.289062 21.53125 72.503906 21.644531 72.742188 21.785156 C 72.976562 21.929688 73.230469 22.089844 73.492188 22.269531 C 73.761719 22.449219 74.042969 22.636719 74.335938 22.828125 L 73.886719 22.730469 C 74.121094 22.476562 74.234375 22.234375 74.226562 22.003906 C 74.21875 21.777344 74.074219 21.539062 73.796875 21.289062 C 73.628906 21.136719 73.433594 21.027344 73.203125 20.964844 C 72.976562 20.902344 72.746094 20.941406 72.511719 21.074219 L 71.96875 20.152344 C 72.34375 19.921875 72.746094 19.824219 73.175781 19.867188 C 73.609375 19.910156 74.046875 20.128906 74.484375 20.523438 C 74.816406 20.824219 75.058594 21.140625 75.210938 21.472656 C 75.367188 21.808594 75.394531 22.15625 75.296875 22.511719 C 75.246094 22.703125 75.164062 22.875 75.050781 23.023438 C 74.945312 23.171875 74.816406 23.328125 74.671875 23.488281 L 72.609375 25.777344 L 71.882812 25.121094 L 72.609375 24.3125 L 72.613281 24.554688 C 72.203125 24.671875 71.828125 24.691406 71.488281 24.617188 C 71.152344 24.539062 70.816406 24.351562 70.480469 24.046875 Z M 71.242188 23.535156 C 71.429688 23.703125 71.621094 23.816406 71.816406 23.867188 C 72.011719 23.921875 72.1875 23.9375 72.355469 23.910156 C 72.523438 23.886719 72.660156 23.84375 72.761719 23.78125 C 72.902344 23.714844 73.035156 23.617188 73.160156 23.484375 C 73.292969 23.355469 73.398438 23.246094 73.472656 23.160156 L 73.660156 23.464844 C 73.375 23.28125 73.128906 23.121094 72.921875 22.988281 C 72.714844 22.855469 72.535156 22.746094 72.382812 22.65625 C 72.230469 22.566406 72.089844 22.492188 71.960938 22.4375 C 71.835938 22.382812 71.714844 22.351562 71.609375 22.335938 C 71.5 22.320312 71.398438 22.328125 71.308594 22.355469 C 71.222656 22.382812 71.140625 22.4375 71.066406 22.519531 C 70.984375 22.609375 70.933594 22.714844 70.917969 22.828125 C 70.898438 22.9375 70.917969 23.050781 70.96875 23.171875 C 71.019531 23.292969 71.113281 23.414062 71.242188 23.535156 Z M 71.242188 23.535156 " fill-opacity="1" fill-rule="nonzero"/><path fill="#ffffff" d="M 74.726562 28.503906 C 74.402344 28.101562 74.214844 27.683594 74.167969 27.253906 C 74.121094 26.824219 74.191406 26.40625 74.382812 26.003906 C 74.574219 25.605469 74.867188 25.246094 75.257812 24.929688 C 75.660156 24.609375 76.082031 24.40625 76.515625 24.3125 C 76.953125 24.21875 77.375 24.246094 77.78125 24.394531 C 78.191406 24.539062 78.554688 24.808594 78.871094 25.207031 C 79.226562 25.648438 79.417969 26.117188 79.4375 26.605469 C 79.460938 27.089844 79.320312 27.539062 79.007812 27.941406 L 78.074219 27.257812 C 78.230469 27.023438 78.304688 26.78125 78.292969 26.53125 C 78.285156 26.277344 78.203125 26.050781 78.042969 25.851562 C 77.859375 25.621094 77.65625 25.480469 77.429688 25.417969 C 77.207031 25.355469 76.96875 25.367188 76.726562 25.445312 C 76.480469 25.527344 76.238281 25.664062 76 25.855469 C 75.625 26.152344 75.390625 26.476562 75.296875 26.828125 C 75.199219 27.179688 75.28125 27.519531 75.546875 27.847656 C 75.730469 28.078125 75.929688 28.21875 76.144531 28.269531 C 76.359375 28.316406 76.59375 28.296875 76.847656 28.203125 L 77.363281 29.257812 C 76.867188 29.453125 76.390625 29.488281 75.933594 29.359375 C 75.480469 29.226562 75.078125 28.941406 74.726562 28.503906 Z M 74.726562 28.503906 " fill-opacity="1" fill-rule="nonzero"/><path fill="#ffffff" d="M 78.277344 33.597656 C 78.054688 33.34375 77.863281 33.082031 77.703125 32.804688 C 77.546875 32.53125 77.449219 32.257812 77.410156 31.988281 C 77.375 31.714844 77.425781 31.460938 77.5625 31.226562 C 77.6875 31.015625 77.847656 30.847656 78.039062 30.726562 C 78.226562 30.601562 78.445312 30.46875 78.6875 30.320312 L 82.417969 28.058594 L 82.996094 29.011719 L 79.320312 31.238281 C 79.148438 31.34375 79 31.4375 78.871094 31.519531 C 78.746094 31.601562 78.65625 31.695312 78.605469 31.796875 C 78.503906 31.988281 78.507812 32.191406 78.613281 32.414062 C 78.722656 32.632812 78.878906 32.867188 79.082031 33.109375 Z M 80.003906 28.457031 L 80.753906 28 L 82.570312 30.992188 L 81.816406 31.449219 Z M 80.003906 28.457031 " fill-opacity="1" fill-rule="nonzero"/><path fill="#ffffff" d="M 79.605469 36.292969 L 85.984375 34.273438 L 86.328125 35.355469 L 82.769531 39.738281 L 87.265625 38.3125 L 87.605469 39.394531 L 81.226562 41.414062 L 80.882812 40.332031 L 84.445312 35.949219 L 79.945312 37.375 Z M 79.605469 36.292969 " fill-opacity="1" fill-rule="nonzero"/><path fill="#ffffff" d="M 81.679688 45.460938 C 81.625 44.960938 81.6875 44.511719 81.871094 44.117188 C 82.050781 43.71875 82.328125 43.394531 82.699219 43.140625 C 83.074219 42.894531 83.515625 42.742188 84.03125 42.683594 C 84.554688 42.621094 85.023438 42.675781 85.441406 42.839844 C 85.859375 43.003906 86.203125 43.261719 86.464844 43.609375 C 86.730469 43.957031 86.890625 44.375 86.945312 44.863281 C 87 45.363281 86.9375 45.816406 86.757812 46.210938 C 86.574219 46.609375 86.296875 46.933594 85.921875 47.1875 C 85.550781 47.4375 85.109375 47.59375 84.59375 47.652344 C 84.078125 47.710938 83.609375 47.65625 83.1875 47.492188 C 82.769531 47.332031 82.429688 47.078125 82.160156 46.730469 C 81.898438 46.382812 81.738281 45.960938 81.679688 45.460938 Z M 82.722656 45.34375 C 82.773438 45.785156 82.960938 46.097656 83.277344 46.28125 C 83.601562 46.460938 83.992188 46.527344 84.460938 46.472656 C 84.945312 46.417969 85.316406 46.265625 85.578125 46.015625 C 85.84375 45.761719 85.949219 45.417969 85.902344 44.980469 C 85.867188 44.683594 85.773438 44.445312 85.613281 44.265625 C 85.460938 44.089844 85.257812 43.96875 85.007812 43.90625 C 84.757812 43.839844 84.480469 43.824219 84.164062 43.859375 C 83.679688 43.914062 83.308594 44.066406 83.042969 44.320312 C 82.78125 44.574219 82.675781 44.914062 82.722656 45.34375 Z M 82.722656 45.34375 " fill-opacity="1" fill-rule="nonzero"/><path fill="#ffffff" d="M 82.066406 50.003906 L 87.210938 48.925781 L 87.105469 50.015625 L 83.808594 50.707031 L 86.929688 51.984375 L 86.84375 52.921875 L 83.550781 53.621094 L 86.667969 54.890625 L 86.574219 55.980469 L 81.710938 54.007812 L 81.789062 53.136719 L 85.328125 52.3125 L 81.988281 50.875 Z M 82.066406 50.003906 " fill-opacity="1" fill-rule="nonzero"/><path fill="#ffffff" d="M 83.34375 61.238281 L 84.171875 60.691406 L 84.691406 61.636719 L 85.332031 60.753906 L 86.105469 61.371094 L 85.359375 62.167969 L 86.410156 62.492188 L 86.058594 63.421875 L 85.058594 62.96875 L 85.089844 64.054688 L 84.097656 64.007812 L 84.203125 62.925781 L 83.1875 63.285156 L 82.929688 62.328125 L 83.988281 62.105469 Z M 83.34375 61.238281 " fill-opacity="1" fill-rule="nonzero"/><path fill="#ffffff" d="M 75.636719 68.457031 C 76.027344 67.914062 76.476562 67.53125 76.992188 67.3125 C 77.507812 67.097656 78.054688 67.039062 78.628906 67.132812 C 79.203125 67.230469 79.773438 67.480469 80.332031 67.882812 C 80.894531 68.285156 81.316406 68.742188 81.59375 69.253906 C 81.867188 69.769531 81.984375 70.304688 81.945312 70.863281 C 81.90625 71.421875 81.691406 71.972656 81.300781 72.515625 C 80.851562 73.144531 80.320312 73.554688 79.707031 73.746094 C 79.09375 73.941406 78.460938 73.933594 77.808594 73.71875 L 78.214844 72.621094 C 78.644531 72.769531 79.050781 72.789062 79.433594 72.675781 C 79.816406 72.566406 80.152344 72.308594 80.445312 71.902344 C 80.707031 71.539062 80.84375 71.175781 80.851562 70.8125 C 80.863281 70.453125 80.765625 70.105469 80.554688 69.769531 C 80.347656 69.4375 80.042969 69.128906 79.648438 68.839844 C 79.25 68.554688 78.859375 68.367188 78.476562 68.273438 C 78.09375 68.1875 77.730469 68.207031 77.394531 68.332031 C 77.054688 68.460938 76.753906 68.707031 76.492188 69.070312 C 76.203125 69.476562 76.066406 69.878906 76.085938 70.277344 C 76.105469 70.675781 76.253906 71.054688 76.53125 71.414062 L 75.621094 72.148438 C 75.207031 71.601562 74.996094 71.003906 74.980469 70.359375 C 74.96875 69.71875 75.1875 69.085938 75.636719 68.457031 Z M 75.636719 68.457031 " fill-opacity="1" fill-rule="nonzero"/><path fill="#ffffff" d="M 71.441406 73.242188 C 71.804688 72.898438 72.199219 72.679688 72.628906 72.585938 C 73.054688 72.492188 73.480469 72.519531 73.90625 72.664062 C 74.328125 72.8125 74.71875 73.074219 75.074219 73.449219 C 75.433594 73.832031 75.675781 74.242188 75.796875 74.675781 C 75.914062 75.105469 75.914062 75.53125 75.796875 75.953125 C 75.675781 76.371094 75.4375 76.753906 75.082031 77.089844 C 74.714844 77.4375 74.316406 77.65625 73.890625 77.75 C 73.460938 77.84375 73.035156 77.816406 72.609375 77.671875 C 72.1875 77.523438 71.796875 77.265625 71.441406 76.886719 C 71.082031 76.511719 70.84375 76.105469 70.722656 75.667969 C 70.601562 75.238281 70.597656 74.8125 70.714844 74.390625 C 70.832031 73.96875 71.074219 73.585938 71.441406 73.242188 Z M 72.160156 74.003906 C 71.835938 74.3125 71.699219 74.648438 71.746094 75.011719 C 71.792969 75.378906 71.976562 75.730469 72.300781 76.074219 C 72.636719 76.425781 72.984375 76.632812 73.339844 76.691406 C 73.699219 76.75 74.039062 76.628906 74.359375 76.328125 C 74.578125 76.121094 74.710938 75.902344 74.757812 75.667969 C 74.808594 75.4375 74.78125 75.207031 74.683594 74.964844 C 74.585938 74.726562 74.429688 74.496094 74.210938 74.265625 C 73.878906 73.914062 73.53125 73.707031 73.171875 73.644531 C 72.8125 73.589844 72.472656 73.710938 72.160156 74.003906 Z M 72.160156 74.003906 " fill-opacity="1" fill-rule="nonzero"/><path fill="#ffffff" d="M 65.964844 77.617188 L 67.304688 79.628906 C 67.390625 79.761719 67.496094 79.902344 67.621094 80.050781 C 67.746094 80.199219 67.890625 80.324219 68.054688 80.425781 C 68.21875 80.53125 68.398438 80.589844 68.59375 80.597656 C 68.785156 80.605469 68.992188 80.539062 69.214844 80.390625 C 69.332031 80.3125 69.4375 80.214844 69.527344 80.097656 C 69.617188 79.984375 69.679688 79.84375 69.710938 79.6875 C 69.742188 79.53125 69.734375 79.351562 69.679688 79.148438 C 69.628906 78.949219 69.519531 78.722656 69.347656 78.46875 L 70.058594 78.335938 C 70.296875 78.691406 70.441406 79.058594 70.496094 79.4375 C 70.550781 79.820312 70.496094 80.1875 70.34375 80.535156 C 70.1875 80.886719 69.917969 81.191406 69.523438 81.453125 C 69.214844 81.65625 68.925781 81.777344 68.65625 81.804688 C 68.386719 81.835938 68.136719 81.8125 67.914062 81.730469 C 67.6875 81.648438 67.488281 81.539062 67.308594 81.394531 C 67.132812 81.25 66.984375 81.105469 66.859375 80.953125 C 66.734375 80.804688 66.640625 80.679688 66.574219 80.578125 L 65.023438 78.246094 Z M 68.863281 75.691406 L 71.644531 79.871094 L 70.8125 80.425781 L 69.949219 79.128906 L 69.835938 79.203125 L 67.921875 76.320312 Z M 68.863281 75.691406 " fill-opacity="1" fill-rule="nonzero"/><path fill="#ffffff" d="M 61.417969 79.957031 C 61.6875 79.757812 61.96875 79.589844 62.261719 79.460938 C 62.546875 79.328125 62.828125 79.253906 63.101562 79.242188 C 63.375 79.234375 63.621094 79.304688 63.84375 79.464844 C 64.042969 79.609375 64.191406 79.78125 64.296875 79.980469 C 64.402344 80.183594 64.515625 80.410156 64.640625 80.667969 L 66.550781 84.589844 L 65.546875 85.078125 L 63.667969 81.214844 C 63.578125 81.035156 63.5 80.875 63.429688 80.738281 C 63.359375 80.605469 63.273438 80.507812 63.179688 80.449219 C 63 80.328125 62.792969 80.3125 62.5625 80.402344 C 62.335938 80.488281 62.089844 80.625 61.828125 80.800781 Z M 66.375 82.148438 L 66.761719 82.9375 L 63.613281 84.46875 L 63.230469 83.679688 Z M 66.375 82.148438 " fill-opacity="1" fill-rule="nonzero"/><path fill="#ffffff" d="M 59.765625 80.378906 C 60.109375 80.261719 60.421875 80.230469 60.703125 80.28125 C 60.984375 80.332031 61.226562 80.445312 61.421875 80.621094 C 61.613281 80.800781 61.753906 81.019531 61.84375 81.28125 C 61.917969 81.507812 61.949219 81.726562 61.933594 81.9375 C 61.921875 82.144531 61.855469 82.34375 61.742188 82.53125 C 61.628906 82.71875 61.460938 82.898438 61.234375 83.066406 C 61.066406 83.191406 60.859375 83.324219 60.621094 83.457031 C 60.378906 83.59375 60.117188 83.734375 59.832031 83.875 C 59.542969 84.019531 59.242188 84.171875 58.929688 84.332031 L 59.238281 83.992188 C 59.34375 84.320312 59.5 84.539062 59.699219 84.644531 C 59.902344 84.75 60.179688 84.742188 60.535156 84.625 C 60.75 84.550781 60.941406 84.433594 61.109375 84.265625 C 61.273438 84.097656 61.355469 83.878906 61.355469 83.609375 L 62.425781 83.589844 C 62.441406 84.03125 62.328125 84.429688 62.078125 84.78125 C 61.828125 85.136719 61.425781 85.410156 60.863281 85.597656 C 60.441406 85.738281 60.046875 85.792969 59.679688 85.765625 C 59.308594 85.734375 58.992188 85.589844 58.734375 85.324219 C 58.589844 85.1875 58.484375 85.03125 58.40625 84.863281 C 58.332031 84.695312 58.257812 84.507812 58.1875 84.300781 L 57.210938 81.382812 L 58.140625 81.070312 L 58.484375 82.101562 L 58.277344 81.984375 C 58.375 81.570312 58.542969 81.234375 58.773438 80.976562 C 59.007812 80.722656 59.335938 80.523438 59.765625 80.378906 Z M 59.839844 81.292969 C 59.597656 81.375 59.40625 81.488281 59.265625 81.628906 C 59.121094 81.773438 59.023438 81.921875 58.964844 82.078125 C 58.902344 82.234375 58.871094 82.375 58.871094 82.496094 C 58.863281 82.648438 58.882812 82.8125 58.933594 82.988281 C 58.984375 83.167969 59.027344 83.3125 59.066406 83.421875 L 58.707031 83.433594 C 59.011719 83.277344 59.269531 83.140625 59.488281 83.023438 C 59.703125 82.910156 59.886719 82.808594 60.039062 82.71875 C 60.195312 82.628906 60.328125 82.542969 60.4375 82.460938 C 60.546875 82.375 60.636719 82.289062 60.699219 82.203125 C 60.765625 82.113281 60.808594 82.023438 60.832031 81.933594 C 60.847656 81.84375 60.839844 81.746094 60.808594 81.640625 C 60.769531 81.523438 60.703125 81.429688 60.613281 81.359375 C 60.527344 81.289062 60.417969 81.25 60.289062 81.234375 C 60.15625 81.21875 60.003906 81.238281 59.839844 81.292969 Z M 59.839844 81.292969 " fill-opacity="1" fill-rule="nonzero"/><path fill="#ffffff" d="M 53.792969 81.875 C 54.304688 81.796875 54.757812 81.839844 55.152344 82.007812 C 55.550781 82.179688 55.878906 82.449219 56.132812 82.8125 C 56.386719 83.175781 56.554688 83.605469 56.636719 84.105469 C 56.714844 84.613281 56.6875 85.078125 56.554688 85.503906 C 56.417969 85.929688 56.1875 86.28125 55.859375 86.5625 C 55.53125 86.847656 55.113281 87.03125 54.613281 87.109375 C 54.050781 87.199219 53.550781 87.132812 53.117188 86.910156 C 52.679688 86.691406 52.363281 86.347656 52.167969 85.878906 L 53.222656 85.402344 C 53.347656 85.65625 53.523438 85.839844 53.746094 85.953125 C 53.96875 86.074219 54.207031 86.113281 54.460938 86.070312 C 54.75 86.027344 54.976562 85.917969 55.140625 85.75 C 55.304688 85.585938 55.414062 85.378906 55.464844 85.125 C 55.515625 84.871094 55.515625 84.59375 55.46875 84.292969 C 55.390625 83.820312 55.226562 83.457031 54.96875 83.199219 C 54.710938 82.941406 54.375 82.847656 53.957031 82.914062 C 53.664062 82.960938 53.445312 83.066406 53.296875 83.226562 C 53.148438 83.390625 53.050781 83.605469 53.003906 83.871094 L 51.835938 83.800781 C 51.90625 83.269531 52.113281 82.839844 52.453125 82.503906 C 52.792969 82.175781 53.238281 81.964844 53.792969 81.875 Z M 53.792969 81.875 " fill-opacity="1" fill-rule="nonzero"/><path fill="#ffffff" d="M 47.601562 82.453125 C 47.929688 82.378906 48.253906 82.34375 48.574219 82.34375 C 48.890625 82.339844 49.175781 82.390625 49.429688 82.492188 C 49.683594 82.597656 49.878906 82.765625 50.015625 83 C 50.136719 83.214844 50.203125 83.433594 50.214844 83.660156 C 50.230469 83.886719 50.238281 84.140625 50.246094 84.425781 L 50.375 88.785156 L 49.257812 88.820312 L 49.136719 84.523438 C 49.128906 84.320312 49.121094 84.144531 49.113281 83.992188 C 49.105469 83.839844 49.070312 83.71875 49.007812 83.625 C 48.890625 83.441406 48.707031 83.34375 48.464844 83.328125 C 48.21875 83.3125 47.941406 83.335938 47.628906 83.390625 Z M 51.21875 86.488281 L 51.242188 87.367188 L 47.746094 87.46875 L 47.722656 86.589844 Z M 51.21875 86.488281 " fill-opacity="1" fill-rule="nonzero"/><path fill="#ffffff" d="M 44.574219 82.277344 L 43.191406 88.824219 L 42.082031 88.589844 L 40.019531 83.335938 L 39.042969 87.949219 L 37.933594 87.714844 L 39.316406 81.167969 L 40.425781 81.402344 L 42.488281 86.65625 L 43.460938 82.042969 Z M 44.574219 82.277344 " fill-opacity="1" fill-rule="nonzero"/><path fill="#ffffff" d="M 35.558594 79.566406 C 36.023438 79.761719 36.378906 80.039062 36.636719 80.394531 C 36.894531 80.75 37.039062 81.148438 37.074219 81.59375 C 37.105469 82.042969 37.023438 82.503906 36.820312 82.980469 C 36.613281 83.464844 36.335938 83.847656 35.984375 84.132812 C 35.636719 84.414062 35.246094 84.585938 34.8125 84.640625 C 34.382812 84.699219 33.9375 84.632812 33.484375 84.441406 C 33.019531 84.242188 32.660156 83.96875 32.402344 83.613281 C 32.148438 83.257812 32.003906 82.855469 31.96875 82.40625 C 31.933594 81.960938 32.015625 81.5 32.21875 81.023438 C 32.421875 80.542969 32.699219 80.160156 33.050781 79.875 C 33.394531 79.59375 33.785156 79.421875 34.21875 79.359375 C 34.652344 79.300781 35.097656 79.371094 35.558594 79.566406 Z M 35.148438 80.53125 C 34.738281 80.359375 34.375 80.367188 34.058594 80.554688 C 33.742188 80.742188 33.492188 81.054688 33.308594 81.488281 C 33.117188 81.933594 33.066406 82.332031 33.15625 82.683594 C 33.246094 83.039062 33.492188 83.300781 33.898438 83.476562 C 34.171875 83.59375 34.429688 83.625 34.660156 83.578125 C 34.890625 83.53125 35.09375 83.414062 35.273438 83.226562 C 35.453125 83.042969 35.605469 82.808594 35.730469 82.515625 C 35.917969 82.070312 35.96875 81.667969 35.882812 81.3125 C 35.789062 80.960938 35.546875 80.703125 35.148438 80.53125 Z M 35.148438 80.53125 " fill-opacity="1" fill-rule="nonzero"/><path fill="#ffffff" d="M 31.46875 77.691406 L 29.871094 82.699219 L 28.972656 82.066406 L 30 78.859375 L 27.347656 80.945312 L 26.574219 80.40625 L 27.589844 77.195312 L 24.949219 79.28125 L 24.046875 78.660156 L 28.164062 75.40625 L 28.882812 75.902344 L 27.855469 79.390625 L 30.75 77.195312 Z M 31.46875 77.691406 " fill-opacity="1" fill-rule="nonzero"/><path fill="#ffffff" d="M 21.0625 73.257812 L 21.132812 74.246094 L 20.050781 74.234375 L 20.507812 75.226562 L 19.585938 75.59375 L 19.257812 74.554688 L 18.460938 75.3125 L 17.824219 74.546875 L 18.710938 73.898438 L 17.75 73.390625 L 18.277344 72.550781 L 19.167969 73.179688 L 19.355469 72.117188 L 20.316406 72.359375 L 19.988281 73.390625 Z M 21.0625 73.257812 " fill-opacity="1" fill-rule="nonzero"/><path fill="#ffffff" d="M 18.558594 62.996094 C 18.839844 63.601562 18.949219 64.183594 18.886719 64.738281 C 18.820312 65.292969 18.605469 65.800781 18.238281 66.253906 C 17.871094 66.707031 17.375 67.078125 16.75 67.367188 C 16.121094 67.660156 15.519531 67.800781 14.9375 67.792969 C 14.351562 67.78125 13.828125 67.617188 13.363281 67.308594 C 12.894531 67 12.519531 66.542969 12.238281 65.9375 C 11.910156 65.238281 11.816406 64.574219 11.949219 63.941406 C 12.082031 63.316406 12.398438 62.769531 12.90625 62.304688 L 13.664062 63.195312 C 13.324219 63.5 13.105469 63.84375 13.015625 64.230469 C 12.925781 64.617188 12.984375 65.039062 13.195312 65.492188 C 13.382812 65.898438 13.632812 66.195312 13.941406 66.382812 C 14.25 66.566406 14.601562 66.652344 14.996094 66.636719 C 15.390625 66.617188 15.808594 66.507812 16.253906 66.300781 C 16.695312 66.097656 17.050781 65.847656 17.320312 65.558594 C 17.585938 65.269531 17.746094 64.945312 17.800781 64.585938 C 17.855469 64.230469 17.789062 63.847656 17.601562 63.441406 C 17.390625 62.988281 17.105469 62.671875 16.75 62.492188 C 16.394531 62.3125 15.992188 62.257812 15.542969 62.320312 L 15.347656 61.167969 C 16.027344 61.078125 16.652344 61.1875 17.21875 61.488281 C 17.785156 61.792969 18.230469 62.296875 18.558594 62.996094 Z M 18.558594 62.996094 " fill-opacity="1" fill-rule="nonzero"/><path fill="#ffffff" d="M 16.457031 56.988281 C 16.578125 57.476562 16.570312 57.929688 16.441406 58.347656 C 16.3125 58.765625 16.082031 59.121094 15.746094 59.417969 C 15.40625 59.714844 14.984375 59.921875 14.484375 60.046875 C 13.972656 60.171875 13.5 60.179688 13.0625 60.070312 C 12.628906 59.960938 12.257812 59.753906 11.949219 59.441406 C 11.644531 59.132812 11.429688 58.738281 11.3125 58.257812 C 11.191406 57.769531 11.195312 57.316406 11.324219 56.894531 C 11.457031 56.476562 11.691406 56.121094 12.027344 55.824219 C 12.363281 55.527344 12.78125 55.316406 13.285156 55.191406 C 13.789062 55.066406 14.261719 55.058594 14.699219 55.167969 C 15.132812 55.273438 15.507812 55.480469 15.816406 55.792969 C 16.121094 56.101562 16.335938 56.5 16.457031 56.988281 Z M 15.4375 57.242188 C 15.328125 56.808594 15.105469 56.519531 14.765625 56.382812 C 14.425781 56.242188 14.023438 56.230469 13.566406 56.34375 C 13.097656 56.460938 12.746094 56.660156 12.519531 56.941406 C 12.289062 57.226562 12.226562 57.582031 12.332031 58.007812 C 12.40625 58.300781 12.53125 58.523438 12.710938 58.679688 C 12.886719 58.835938 13.101562 58.929688 13.359375 58.960938 C 13.613281 58.992188 13.890625 58.972656 14.199219 58.894531 C 14.671875 58.78125 15.023438 58.578125 15.253906 58.296875 C 15.476562 58.011719 15.539062 57.660156 15.4375 57.242188 Z M 15.4375 57.242188 " fill-opacity="1" fill-rule="nonzero"/><path fill="#ffffff" d="M 15.355469 50.082031 L 12.945312 50.253906 C 12.789062 50.265625 12.613281 50.289062 12.425781 50.324219 C 12.234375 50.359375 12.054688 50.421875 11.882812 50.515625 C 11.710938 50.605469 11.570312 50.730469 11.46875 50.898438 C 11.363281 51.058594 11.320312 51.273438 11.339844 51.539062 C 11.351562 51.683594 11.382812 51.820312 11.441406 51.957031 C 11.496094 52.09375 11.585938 52.214844 11.707031 52.320312 C 11.828125 52.425781 11.988281 52.503906 12.191406 52.558594 C 12.390625 52.609375 12.640625 52.628906 12.949219 52.605469 L 12.710938 53.289062 C 12.285156 53.320312 11.894531 53.265625 11.535156 53.125 C 11.179688 52.980469 10.886719 52.757812 10.660156 52.449219 C 10.429688 52.144531 10.296875 51.753906 10.265625 51.285156 C 10.238281 50.914062 10.277344 50.605469 10.386719 50.355469 C 10.492188 50.105469 10.636719 49.902344 10.816406 49.746094 C 11 49.589844 11.195312 49.472656 11.40625 49.386719 C 11.621094 49.304688 11.820312 49.246094 12.015625 49.214844 C 12.207031 49.179688 12.359375 49.15625 12.480469 49.148438 L 15.277344 48.953125 Z M 15.601562 53.554688 L 10.59375 53.910156 L 10.523438 52.910156 L 12.078125 52.800781 L 12.066406 52.667969 L 15.519531 52.425781 Z M 15.601562 53.554688 " fill-opacity="1" fill-rule="nonzero"/><path fill="#ffffff" d="M 15.566406 44.910156 C 15.605469 45.242188 15.613281 45.570312 15.582031 45.886719 C 15.554688 46.203125 15.480469 46.480469 15.359375 46.726562 C 15.230469 46.96875 15.042969 47.148438 14.796875 47.261719 C 14.574219 47.363281 14.347656 47.410156 14.121094 47.402344 C 13.898438 47.394531 13.640625 47.378906 13.355469 47.363281 L 9.003906 47.085938 L 9.070312 45.976562 L 13.363281 46.246094 C 13.5625 46.257812 13.738281 46.269531 13.890625 46.273438 C 14.042969 46.277344 14.167969 46.253906 14.269531 46.199219 C 14.460938 46.101562 14.574219 45.929688 14.613281 45.6875 C 14.648438 45.445312 14.65625 45.164062 14.628906 44.847656 Z M 11.210938 48.140625 L 10.335938 48.085938 L 10.554688 44.59375 L 11.433594 44.648438 Z M 11.210938 48.140625 " fill-opacity="1" fill-rule="nonzero"/><path fill="#ffffff" d="M 16.011719 43.277344 C 15.941406 43.632812 15.816406 43.921875 15.632812 44.144531 C 15.449219 44.363281 15.230469 44.515625 14.980469 44.597656 C 14.734375 44.679688 14.472656 44.695312 14.203125 44.640625 C 13.964844 44.597656 13.761719 44.515625 13.585938 44.398438 C 13.410156 44.285156 13.269531 44.128906 13.164062 43.9375 C 13.058594 43.746094 12.984375 43.511719 12.945312 43.234375 C 12.921875 43.023438 12.90625 42.78125 12.90625 42.507812 C 12.90625 42.230469 12.917969 41.929688 12.933594 41.613281 C 12.949219 41.289062 12.964844 40.953125 12.976562 40.605469 L 13.125 41.039062 C 12.785156 40.96875 12.519531 40.996094 12.328125 41.121094 C 12.136719 41.246094 12.007812 41.492188 11.933594 41.859375 C 11.890625 42.082031 11.902344 42.304688 11.964844 42.53125 C 12.027344 42.757812 12.179688 42.9375 12.414062 43.070312 L 11.90625 44.011719 C 11.511719 43.808594 11.222656 43.515625 11.035156 43.125 C 10.851562 42.730469 10.8125 42.246094 10.925781 41.664062 C 11.011719 41.226562 11.15625 40.855469 11.363281 40.550781 C 11.574219 40.246094 11.855469 40.042969 12.210938 39.945312 C 12.402344 39.890625 12.589844 39.871094 12.777344 39.886719 C 12.960938 39.902344 13.15625 39.933594 13.371094 39.972656 L 16.394531 40.5625 L 16.207031 41.523438 L 15.140625 41.316406 L 15.34375 41.191406 C 15.65625 41.480469 15.867188 41.792969 15.976562 42.121094 C 16.085938 42.449219 16.097656 42.835938 16.011719 43.277344 Z M 15.175781 42.890625 C 15.226562 42.640625 15.222656 42.417969 15.167969 42.226562 C 15.113281 42.03125 15.03125 41.871094 14.925781 41.742188 C 14.816406 41.613281 14.710938 41.515625 14.605469 41.457031 C 14.476562 41.375 14.324219 41.3125 14.144531 41.269531 C 13.964844 41.226562 13.820312 41.191406 13.707031 41.171875 L 13.871094 40.851562 C 13.859375 41.195312 13.851562 41.488281 13.84375 41.730469 C 13.835938 41.976562 13.835938 42.1875 13.839844 42.367188 C 13.839844 42.542969 13.847656 42.699219 13.867188 42.839844 C 13.886719 42.976562 13.917969 43.09375 13.960938 43.195312 C 14.007812 43.292969 14.0625 43.375 14.132812 43.441406 C 14.203125 43.5 14.292969 43.542969 14.398438 43.5625 C 14.519531 43.585938 14.632812 43.578125 14.738281 43.535156 C 14.84375 43.492188 14.933594 43.417969 15.007812 43.3125 C 15.085938 43.203125 15.144531 43.0625 15.175781 42.890625 Z M 15.175781 42.890625 " fill-opacity="1" fill-rule="nonzero"/><path fill="#ffffff" d="M 17.648438 37.332031 C 17.46875 37.816406 17.207031 38.191406 16.863281 38.453125 C 16.519531 38.714844 16.125 38.867188 15.683594 38.910156 C 15.242188 38.949219 14.78125 38.882812 14.308594 38.710938 C 13.828125 38.527344 13.4375 38.273438 13.132812 37.949219 C 12.828125 37.621094 12.636719 37.246094 12.554688 36.820312 C 12.46875 36.394531 12.511719 35.945312 12.691406 35.46875 C 12.890625 34.933594 13.191406 34.53125 13.601562 34.265625 C 14.003906 33.992188 14.460938 33.886719 14.96875 33.945312 L 14.863281 35.097656 C 14.578125 35.085938 14.332031 35.144531 14.121094 35.28125 C 13.910156 35.417969 13.757812 35.605469 13.667969 35.847656 C 13.566406 36.121094 13.550781 36.371094 13.613281 36.597656 C 13.675781 36.820312 13.804688 37.015625 14 37.1875 C 14.195312 37.355469 14.433594 37.492188 14.722656 37.597656 C 15.167969 37.765625 15.570312 37.800781 15.917969 37.703125 C 16.269531 37.605469 16.519531 37.359375 16.664062 36.964844 C 16.769531 36.6875 16.785156 36.441406 16.71875 36.234375 C 16.652344 36.023438 16.511719 35.835938 16.300781 35.664062 L 16.941406 34.683594 C 17.367188 35.003906 17.640625 35.398438 17.761719 35.855469 C 17.882812 36.3125 17.84375 36.804688 17.648438 37.332031 Z M 17.648438 37.332031 " fill-opacity="1" fill-rule="nonzero"/><path fill="#ffffff" d="M 20.199219 31.667969 C 20.101562 31.992188 19.972656 32.289062 19.8125 32.566406 C 19.660156 32.84375 19.476562 33.066406 19.261719 33.238281 C 19.046875 33.40625 18.804688 33.496094 18.53125 33.496094 C 18.285156 33.496094 18.0625 33.445312 17.859375 33.347656 C 17.65625 33.246094 17.429688 33.128906 17.179688 32.996094 L 13.324219 30.953125 L 13.84375 29.964844 L 17.644531 31.980469 C 17.820312 32.074219 17.976562 32.15625 18.113281 32.222656 C 18.25 32.289062 18.375 32.320312 18.488281 32.3125 C 18.703125 32.300781 18.878906 32.191406 19.011719 31.984375 C 19.144531 31.78125 19.265625 31.527344 19.371094 31.230469 Z M 14.902344 32.820312 L 14.128906 32.410156 L 15.765625 29.316406 L 16.542969 29.730469 Z M 14.902344 32.820312 " fill-opacity="1" fill-rule="nonzero"/><path fill="#ffffff" d="M 21.839844 29.144531 L 16.828125 24.710938 L 17.578125 23.863281 L 23.167969 24.664062 L 19.632812 21.535156 L 20.386719 20.6875 L 25.398438 25.121094 L 24.644531 25.972656 L 19.058594 25.171875 L 22.589844 28.296875 Z M 21.839844 29.144531 " fill-opacity="1" fill-rule="nonzero"/><path fill="#ffffff" d="M 28.632812 22.644531 C 28.238281 22.949219 27.820312 23.128906 27.386719 23.175781 C 26.949219 23.226562 26.527344 23.15625 26.125 22.96875 C 25.71875 22.773438 25.355469 22.472656 25.042969 22.0625 C 24.722656 21.644531 24.523438 21.214844 24.449219 20.773438 C 24.375 20.328125 24.417969 19.90625 24.582031 19.5 C 24.742188 19.09375 25.019531 18.742188 25.410156 18.441406 C 25.808594 18.132812 26.226562 17.957031 26.664062 17.90625 C 27.097656 17.859375 27.519531 17.929688 27.925781 18.121094 C 28.332031 18.308594 28.695312 18.609375 29.007812 19.019531 C 29.324219 19.429688 29.523438 19.859375 29.597656 20.304688 C 29.675781 20.746094 29.632812 21.171875 29.472656 21.578125 C 29.3125 21.984375 29.03125 22.339844 28.632812 22.644531 Z M 27.996094 21.8125 C 28.347656 21.539062 28.523438 21.21875 28.511719 20.851562 C 28.503906 20.484375 28.355469 20.113281 28.070312 19.738281 C 27.773438 19.355469 27.449219 19.113281 27.101562 19.019531 C 26.746094 18.921875 26.398438 19.007812 26.046875 19.273438 C 25.808594 19.457031 25.65625 19.664062 25.582031 19.890625 C 25.511719 20.113281 25.511719 20.347656 25.585938 20.597656 C 25.65625 20.84375 25.789062 21.089844 25.980469 21.339844 C 26.277344 21.726562 26.601562 21.96875 26.953125 22.066406 C 27.308594 22.15625 27.652344 22.074219 27.996094 21.8125 Z M 27.996094 21.8125 " fill-opacity="1" fill-rule="nonzero"/><path fill="#ffffff" d="M 32.273438 20.003906 L 28.695312 16.152344 L 29.683594 15.683594 L 31.976562 18.148438 L 31.460938 14.820312 L 32.308594 14.40625 L 34.609375 16.871094 L 34.085938 13.542969 L 35.074219 13.0625 L 35.886719 18.25 L 35.101562 18.628906 L 32.570312 16.023438 L 33.058594 19.625 Z M 32.273438 20.003906 " fill-opacity="1" fill-rule="nonzero"/><path fill="#ffffff" d="M 41.261719 13.125 L 40.367188 12.695312 L 40.914062 11.761719 L 39.824219 11.667969 L 39.957031 10.6875 L 41.023438 10.914062 L 40.761719 9.847656 L 41.738281 9.671875 L 41.867188 10.761719 L 42.78125 10.175781 L 43.25 11.050781 L 42.265625 11.515625 L 43.097656 12.203125 L 42.410156 12.917969 L 41.675781 12.125 Z M 41.261719 13.125 " fill-opacity="1" fill-rule="nonzero"/></svg>