<?xml version="1.0" encoding="UTF-8"?>
<svg xmlns="http://www.w3.org/2000/svg" xmlns:xlink="http://www.w3.org/1999/xlink" width="24px" height="24px" viewBox="0 0 24 24" version="1.1">
<defs>
<clipPath id="clip1">
  <path d="M 0.480469 0.75 L 23.519531 0.75 L 23.519531 23.789062 L 0.480469 23.789062 Z M 0.480469 0.75 "/>
</clipPath>
</defs>
<g id="surface1">
<g clip-path="url(#clip1)" clip-rule="nonzero">
<path style=" stroke:none;fill-rule:nonzero;fill:rgb(35.686275%,77.64706%,16.078432%);fill-opacity:1;" d="M 23.402344 10.625 C 23.363281 10.355469 23.167969 10.136719 22.90625 10.066406 L 21.757812 9.765625 C 21.523438 8.84375 21.160156 7.964844 20.671875 7.144531 L 21.269531 6.117188 C 21.40625 5.882812 21.390625 5.589844 21.226562 5.371094 C 20.898438 4.933594 20.535156 4.515625 20.144531 4.125 C 19.757812 3.734375 19.335938 3.371094 18.898438 3.042969 C 18.679688 2.878906 18.386719 2.863281 18.152344 3 L 17.128906 3.597656 C 16.304688 3.113281 15.429688 2.746094 14.503906 2.511719 L 14.203125 1.363281 C 14.132812 1.101562 13.914062 0.90625 13.648438 0.867188 C 12.5625 0.710938 11.4375 0.710938 10.351562 0.867188 C 10.085938 0.90625 9.863281 1.101562 9.796875 1.363281 L 9.496094 2.511719 C 8.570312 2.746094 7.695312 3.109375 6.871094 3.597656 L 5.847656 3 C 5.613281 2.863281 5.320312 2.878906 5.101562 3.042969 C 4.664062 3.371094 4.242188 3.734375 3.855469 4.125 C 3.464844 4.515625 3.101562 4.933594 2.773438 5.371094 C 2.609375 5.589844 2.59375 5.882812 2.730469 6.117188 L 3.328125 7.144531 C 2.839844 7.964844 2.476562 8.84375 2.242188 9.765625 L 1.09375 10.066406 C 0.832031 10.136719 0.636719 10.355469 0.597656 10.621094 C 0.519531 11.164062 0.480469 11.71875 0.480469 12.269531 C 0.480469 12.820312 0.519531 13.375 0.597656 13.917969 C 0.636719 14.1875 0.832031 14.40625 1.09375 14.472656 L 2.242188 14.777344 C 2.476562 15.699219 2.839844 16.578125 3.328125 17.398438 L 2.730469 18.425781 C 2.59375 18.660156 2.609375 18.953125 2.773438 19.167969 C 3.101562 19.605469 3.464844 20.027344 3.855469 20.417969 C 4.242188 20.804688 4.664062 21.167969 5.101562 21.496094 C 5.320312 21.660156 5.613281 21.675781 5.847656 21.539062 L 6.871094 20.941406 C 7.695312 21.429688 8.570312 21.792969 9.496094 22.03125 L 9.796875 23.175781 C 9.867188 23.4375 10.085938 23.632812 10.351562 23.671875 C 10.894531 23.75 11.449219 23.789062 12 23.789062 C 12.550781 23.789062 13.105469 23.75 13.648438 23.671875 C 13.914062 23.632812 14.136719 23.4375 14.203125 23.175781 L 14.507812 22.03125 C 15.429688 21.792969 16.304688 21.429688 17.128906 20.941406 L 18.152344 21.539062 C 18.386719 21.675781 18.679688 21.660156 18.898438 21.5 C 19.335938 21.171875 19.757812 20.804688 20.144531 20.417969 C 20.535156 20.027344 20.898438 19.605469 21.226562 19.167969 C 21.390625 18.953125 21.40625 18.660156 21.269531 18.425781 L 20.671875 17.398438 C 21.160156 16.578125 21.523438 15.699219 21.757812 14.777344 L 22.90625 14.472656 C 23.167969 14.40625 23.363281 14.1875 23.402344 13.917969 C 23.480469 13.375 23.519531 12.820312 23.519531 12.269531 C 23.519531 11.71875 23.480469 11.164062 23.402344 10.625 Z M 12 19.453125 C 8.039062 19.453125 4.816406 16.230469 4.816406 12.269531 C 4.816406 8.308594 8.039062 5.089844 12 5.089844 C 15.960938 5.089844 19.183594 8.308594 19.183594 12.269531 C 19.183594 16.230469 15.960938 19.453125 12 19.453125 Z M 12 19.453125 "/>
</g>
<path style=" stroke:none;fill-rule:nonzero;fill:rgb(35.686275%,77.64706%,16.078432%);fill-opacity:1;" d="M 12 6.4375 C 8.785156 6.4375 6.167969 9.054688 6.167969 12.269531 C 6.167969 15.484375 8.785156 18.101562 12 18.101562 C 15.214844 18.101562 17.832031 15.484375 17.832031 12.269531 C 17.832031 9.054688 15.214844 6.4375 12 6.4375 Z M 15.367188 11.300781 L 11.753906 14.917969 C 11.628906 15.042969 11.457031 15.113281 11.277344 15.113281 C 11.097656 15.113281 10.925781 15.042969 10.800781 14.917969 L 8.992188 13.109375 C 8.726562 12.84375 8.726562 12.417969 8.992188 12.15625 C 9.253906 11.890625 9.683594 11.890625 9.945312 12.15625 L 11.277344 13.484375 L 14.414062 10.347656 C 14.679688 10.082031 15.105469 10.082031 15.367188 10.347656 C 15.632812 10.609375 15.632812 11.039062 15.367188 11.300781 Z M 15.367188 11.300781 "/>
</g>
</svg>
