<?xml version="1.0" encoding="UTF-8"?>
<svg xmlns="http://www.w3.org/2000/svg" xmlns:xlink="http://www.w3.org/1999/xlink" width="60px" height="61px" viewBox="0 0 60 61" version="1.1">
<g id="surface1">
<path style=" stroke:none;fill-rule:nonzero;fill:rgb(13.333334%,13.333334%,13.333334%);fill-opacity:1;" d="M 39.589844 55.824219 C 40.070312 55.824219 40.457031 55.429688 40.457031 54.941406 L 40.457031 47.386719 C 40.457031 46.898438 40.070312 46.5 39.589844 46.5 L 29.769531 46.5 C 29.289062 46.5 28.898438 46.898438 28.898438 47.386719 L 28.898438 54.941406 C 28.898438 55.429688 29.289062 55.824219 29.769531 55.824219 C 30.25 55.824219 30.636719 55.429688 30.636719 54.941406 L 30.636719 48.269531 L 38.722656 48.269531 L 38.722656 54.941406 C 38.722656 55.429688 39.109375 55.824219 39.589844 55.824219 Z M 39.589844 55.824219 "/>
<path style=" stroke:none;fill-rule:nonzero;fill:rgb(39.215687%,73.725492%,24.313726%);fill-opacity:1;" d="M 4.703125 59.359375 L 54.75 59.359375 C 55.230469 59.359375 55.617188 58.964844 55.617188 58.476562 C 55.617188 57.988281 55.230469 57.59375 54.75 57.59375 L 51.429688 57.59375 L 51.429688 31.878906 C 51.429688 31.539062 51.242188 31.230469 50.941406 31.085938 C 50.644531 30.9375 50.289062 30.972656 50.027344 31.179688 L 43.488281 36.367188 L 43.488281 31.878906 C 43.488281 31.539062 43.300781 31.230469 43 31.085938 C 42.703125 30.9375 42.347656 30.972656 42.085938 31.179688 L 35.546875 36.367188 L 35.546875 31.878906 C 35.546875 31.539062 35.359375 31.230469 35.058594 31.085938 C 34.761719 30.9375 34.40625 30.972656 34.144531 31.179688 L 27.605469 36.367188 L 27.605469 31.878906 C 27.605469 31.539062 27.417969 31.230469 27.117188 31.085938 C 26.820312 30.9375 26.464844 30.972656 26.203125 31.179688 L 21.738281 34.722656 C 21.359375 35.023438 21.292969 35.578125 21.585938 35.964844 C 21.882812 36.347656 22.429688 36.417969 22.808594 36.117188 L 25.867188 33.6875 L 25.867188 38.175781 C 25.867188 38.515625 26.058594 38.820312 26.355469 38.96875 C 26.65625 39.117188 27.011719 39.082031 27.273438 38.871094 L 33.808594 33.6875 L 33.808594 38.175781 C 33.808594 38.515625 34 38.820312 34.296875 38.96875 C 34.597656 39.117188 34.953125 39.082031 35.214844 38.871094 L 41.75 33.6875 L 41.75 38.175781 C 41.75 38.511719 41.941406 38.820312 42.238281 38.96875 C 42.539062 39.117188 42.894531 39.082031 43.15625 38.871094 L 49.691406 33.6875 L 49.691406 57.589844 C 45.574219 57.589844 27.742188 57.589844 19.664062 57.589844 L 19.664062 24.300781 C 21.589844 24.125 23.105469 22.496094 23.105469 20.5 C 23.105469 18.382812 21.410156 16.660156 19.328125 16.660156 L 8.367188 16.660156 C 6.285156 16.660156 4.589844 18.382812 4.589844 20.5 C 4.589844 22.496094 6.105469 24.121094 8.023438 24.300781 L 8.023438 57.589844 L 4.703125 57.589844 C 4.222656 57.589844 3.835938 57.988281 3.835938 58.476562 C 3.835938 58.964844 4.222656 59.359375 4.703125 59.359375 Z M 6.328125 20.5 C 6.328125 19.355469 7.242188 18.425781 8.367188 18.425781 L 19.328125 18.425781 C 20.453125 18.425781 21.367188 19.355469 21.367188 20.5 C 21.367188 21.640625 20.453125 22.570312 19.328125 22.570312 C 19.664062 22.570312 14.558594 22.570312 8.367188 22.570312 C 7.242188 22.570312 6.328125 21.640625 6.328125 20.5 Z M 9.761719 24.335938 L 17.925781 24.335938 L 17.925781 57.59375 L 9.761719 57.59375 Z M 9.761719 24.335938 "/>
<path style=" stroke:none;fill-rule:nonzero;fill:rgb(13.333334%,13.333334%,13.333334%);fill-opacity:1;" d="M 13.847656 14.492188 C 14.328125 14.492188 14.714844 14.09375 14.714844 13.609375 C 14.714844 11.539062 16.371094 9.859375 18.402344 9.859375 L 32.152344 9.859375 C 35.144531 9.859375 37.578125 7.382812 37.578125 4.34375 L 37.578125 3.707031 C 37.578125 3.222656 37.1875 2.824219 36.707031 2.824219 C 36.230469 2.824219 35.839844 3.222656 35.839844 3.707031 L 35.839844 4.34375 C 35.839844 6.410156 34.1875 8.089844 32.152344 8.089844 L 18.402344 8.089844 C 15.414062 8.089844 12.980469 10.566406 12.980469 13.609375 C 12.980469 14.09375 13.367188 14.492188 13.847656 14.492188 Z M 13.847656 14.492188 "/>
<path style=" stroke:none;fill-rule:nonzero;fill:rgb(13.333334%,13.333334%,13.333334%);fill-opacity:1;" d="M 14.734375 28.714844 L 12.960938 28.714844 C 12.480469 28.714844 12.089844 29.109375 12.089844 29.597656 C 12.089844 30.085938 12.480469 30.480469 12.960938 30.480469 L 14.734375 30.480469 C 15.214844 30.480469 15.605469 30.085938 15.605469 29.597656 C 15.605469 29.109375 15.214844 28.714844 14.734375 28.714844 Z M 14.734375 28.714844 "/>
<path style=" stroke:none;fill-rule:nonzero;fill:rgb(13.333334%,13.333334%,13.333334%);fill-opacity:1;" d="M 14.734375 36.292969 L 12.960938 36.292969 C 12.480469 36.292969 12.089844 36.6875 12.089844 37.175781 C 12.089844 37.664062 12.480469 38.058594 12.960938 38.058594 L 14.734375 38.058594 C 15.214844 38.058594 15.605469 37.664062 15.605469 37.175781 C 15.605469 36.6875 15.214844 36.292969 14.734375 36.292969 Z M 14.734375 36.292969 "/>
<path style=" stroke:none;fill-rule:nonzero;fill:rgb(13.333334%,13.333334%,13.333334%);fill-opacity:1;" d="M 14.734375 43.871094 L 12.960938 43.871094 C 12.480469 43.871094 12.089844 44.265625 12.089844 44.753906 C 12.089844 45.242188 12.480469 45.636719 12.960938 45.636719 L 14.734375 45.636719 C 15.214844 45.636719 15.605469 45.242188 15.605469 44.753906 C 15.605469 44.265625 15.214844 43.871094 14.734375 43.871094 Z M 14.734375 43.871094 "/>
<path style=" stroke:none;fill-rule:nonzero;fill:rgb(13.333334%,13.333334%,13.333334%);fill-opacity:1;" d="M 14.734375 51.449219 L 12.960938 51.449219 C 12.480469 51.449219 12.089844 51.84375 12.089844 52.332031 C 12.089844 52.820312 12.480469 53.214844 12.960938 53.214844 L 14.734375 53.214844 C 15.214844 53.214844 15.605469 52.820312 15.605469 52.332031 C 15.605469 51.84375 15.214844 51.449219 14.734375 51.449219 Z M 14.734375 51.449219 "/>
</g>
</svg>
