<?xml version="1.0" encoding="UTF-8"?>
<svg xmlns="http://www.w3.org/2000/svg" xmlns:xlink="http://www.w3.org/1999/xlink" width="16px" height="16px" viewBox="0 0 16 16" version="1.1">
<g id="surface1">
<path style=" stroke:none;fill-rule:nonzero;fill:rgb(39.215687%,73.725492%,24.313726%);fill-opacity:1;" d="M 8.027344 11.105469 C 8.636719 11.105469 9.230469 10.925781 9.738281 10.589844 C 10.246094 10.25 10.640625 9.769531 10.871094 9.207031 C 11.105469 8.644531 11.167969 8.023438 11.046875 7.425781 C 10.929688 6.828125 10.636719 6.28125 10.207031 5.851562 C 9.773438 5.417969 9.226562 5.125 8.628906 5.007812 C 8.03125 4.890625 7.410156 4.949219 6.847656 5.183594 C 6.285156 5.417969 5.804688 5.8125 5.46875 6.316406 C 5.128906 6.824219 4.949219 7.417969 4.949219 8.027344 C 4.949219 8.84375 5.273438 9.628906 5.851562 10.207031 C 6.429688 10.78125 7.210938 11.105469 8.027344 11.105469 Z M 8.027344 5.976562 C 8.433594 5.976562 8.832031 6.09375 9.167969 6.320312 C 9.503906 6.546875 9.769531 6.867188 9.925781 7.242188 C 10.078125 7.617188 10.121094 8.03125 10.042969 8.429688 C 9.960938 8.828125 9.765625 9.191406 9.480469 9.480469 C 9.191406 9.765625 8.828125 9.960938 8.429688 10.042969 C 8.03125 10.121094 7.617188 10.078125 7.242188 9.925781 C 6.867188 9.769531 6.546875 9.507812 6.320312 9.167969 C 6.09375 8.832031 5.976562 8.433594 5.976562 8.027344 C 5.976562 7.484375 6.191406 6.960938 6.574219 6.578125 C 6.960938 6.191406 7.484375 5.976562 8.027344 5.976562 Z M 8.027344 5.976562 "/>
<path style=" stroke:none;fill-rule:nonzero;fill:rgb(39.215687%,73.725492%,24.313726%);fill-opacity:1;" d="M 2.160156 8.449219 L 1.355469 8.925781 C 1.023438 9.121094 0.785156 9.441406 0.6875 9.816406 C 0.59375 10.1875 0.648438 10.585938 0.84375 10.917969 L 1.949219 12.835938 C 2.148438 13.167969 2.46875 13.40625 2.839844 13.503906 C 3.214844 13.601562 3.609375 13.546875 3.941406 13.351562 L 4.742188 12.886719 C 4.820312 12.847656 4.90625 12.824219 4.996094 12.828125 C 5.082031 12.828125 5.167969 12.855469 5.242188 12.898438 C 5.320312 12.941406 5.382812 13.003906 5.425781 13.082031 C 5.472656 13.15625 5.496094 13.242188 5.496094 13.328125 L 5.496094 14.25 C 5.492188 14.632812 5.640625 15 5.90625 15.277344 C 6.171875 15.554688 6.535156 15.714844 6.917969 15.726562 L 9.136719 15.726562 C 9.523438 15.726562 9.890625 15.570312 10.164062 15.296875 C 10.4375 15.023438 10.59375 14.65625 10.59375 14.269531 L 10.59375 13.34375 C 10.597656 13.257812 10.621094 13.171875 10.664062 13.097656 C 10.710938 13.019531 10.773438 12.957031 10.851562 12.914062 C 10.929688 12.867188 11.015625 12.84375 11.105469 12.84375 C 11.195312 12.84375 11.285156 12.867188 11.363281 12.914062 L 12.160156 13.371094 C 12.492188 13.566406 12.886719 13.621094 13.261719 13.523438 C 13.632812 13.429688 13.953125 13.1875 14.148438 12.855469 L 15.257812 10.9375 C 15.453125 10.605469 15.507812 10.210938 15.414062 9.835938 C 15.316406 9.464844 15.078125 9.144531 14.746094 8.945312 L 13.925781 8.46875 C 13.855469 8.421875 13.800781 8.359375 13.761719 8.285156 C 13.726562 8.210938 13.703125 8.132812 13.703125 8.046875 C 13.703125 7.964844 13.726562 7.882812 13.761719 7.8125 C 13.800781 7.738281 13.855469 7.675781 13.925781 7.628906 L 14.746094 7.152344 C 15.078125 6.953125 15.316406 6.632812 15.414062 6.261719 C 15.507812 5.886719 15.453125 5.492188 15.257812 5.160156 L 14.140625 3.21875 C 13.941406 2.886719 13.625 2.648438 13.25 2.550781 C 12.878906 2.457031 12.480469 2.511719 12.148438 2.707031 L 11.351562 3.164062 C 11.273438 3.207031 11.1875 3.226562 11.097656 3.226562 C 11.007812 3.222656 10.917969 3.199219 10.84375 3.152344 C 10.765625 3.105469 10.703125 3.039062 10.660156 2.960938 C 10.613281 2.882812 10.59375 2.796875 10.59375 2.707031 L 10.59375 1.789062 C 10.59375 1.402344 10.4375 1.03125 10.164062 0.757812 C 9.890625 0.484375 9.523438 0.332031 9.136719 0.328125 L 6.917969 0.328125 C 6.53125 0.332031 6.164062 0.484375 5.890625 0.757812 C 5.617188 1.03125 5.464844 1.402344 5.460938 1.789062 L 5.460938 2.710938 C 5.457031 2.796875 5.433594 2.882812 5.390625 2.957031 C 5.34375 3.03125 5.28125 3.09375 5.207031 3.140625 C 5.128906 3.183594 5.042969 3.207031 4.957031 3.207031 C 4.871094 3.210938 4.785156 3.1875 4.707031 3.148438 L 3.921875 2.683594 C 3.589844 2.492188 3.195312 2.433594 2.820312 2.53125 C 2.445312 2.628906 2.128906 2.867188 1.929688 3.199219 L 0.808594 5.136719 C 0.613281 5.472656 0.554688 5.867188 0.652344 6.238281 C 0.75 6.613281 0.988281 6.933594 1.320312 7.128906 L 2.140625 7.605469 C 2.207031 7.65625 2.265625 7.71875 2.300781 7.789062 C 2.339844 7.863281 2.359375 7.945312 2.359375 8.027344 C 2.359375 8.109375 2.339844 8.191406 2.300781 8.265625 C 2.265625 8.339844 2.207031 8.402344 2.140625 8.449219 Z M 2.675781 6.714844 L 1.867188 6.242188 C 1.769531 6.183594 1.699219 6.089844 1.667969 5.980469 C 1.640625 5.867188 1.652344 5.75 1.710938 5.652344 L 2.804688 3.730469 C 2.832031 3.679688 2.871094 3.636719 2.917969 3.601562 C 2.960938 3.566406 3.015625 3.539062 3.070312 3.523438 C 3.128906 3.511719 3.1875 3.507812 3.246094 3.515625 C 3.304688 3.523438 3.359375 3.542969 3.410156 3.574219 L 4.210938 4.035156 C 4.441406 4.164062 4.703125 4.226562 4.96875 4.222656 C 5.234375 4.21875 5.492188 4.148438 5.722656 4.015625 C 5.953125 3.882812 6.140625 3.691406 6.277344 3.464844 C 6.410156 3.234375 6.484375 2.976562 6.488281 2.710938 L 6.488281 1.789062 C 6.488281 1.671875 6.535156 1.5625 6.617188 1.484375 C 6.695312 1.402344 6.804688 1.359375 6.917969 1.355469 L 9.136719 1.355469 C 9.25 1.359375 9.359375 1.402344 9.4375 1.484375 C 9.519531 1.5625 9.566406 1.671875 9.566406 1.789062 L 9.566406 2.707031 C 9.570312 2.972656 9.640625 3.238281 9.777344 3.46875 C 9.910156 3.703125 10.105469 3.894531 10.335938 4.027344 C 10.570312 4.164062 10.832031 4.234375 11.101562 4.234375 C 11.367188 4.238281 11.632812 4.167969 11.867188 4.035156 L 12.648438 3.574219 C 12.746094 3.515625 12.863281 3.503906 12.972656 3.53125 C 13.085938 3.5625 13.179688 3.632812 13.238281 3.730469 L 14.34375 5.652344 C 14.402344 5.75 14.417969 5.867188 14.386719 5.980469 C 14.355469 6.089844 14.285156 6.183594 14.1875 6.242188 L 13.363281 6.714844 C 13.140625 6.851562 12.953125 7.042969 12.824219 7.273438 C 12.695312 7.503906 12.628906 7.765625 12.628906 8.027344 C 12.628906 8.292969 12.695312 8.550781 12.824219 8.78125 C 12.953125 9.011719 13.140625 9.203125 13.363281 9.34375 L 14.1875 9.8125 C 14.285156 9.871094 14.355469 9.964844 14.386719 10.078125 C 14.417969 10.1875 14.402344 10.304688 14.34375 10.402344 L 13.238281 12.324219 C 13.179688 12.421875 13.085938 12.492188 12.972656 12.523438 C 12.863281 12.554688 12.746094 12.539062 12.648438 12.484375 L 11.851562 12.019531 C 11.617188 11.886719 11.351562 11.816406 11.082031 11.816406 C 10.8125 11.816406 10.546875 11.886719 10.3125 12.019531 C 10.082031 12.15625 9.890625 12.351562 9.761719 12.582031 C 9.628906 12.816406 9.5625 13.078125 9.566406 13.34375 L 9.566406 14.269531 C 9.566406 14.382812 9.519531 14.492188 9.4375 14.570312 C 9.359375 14.652344 9.25 14.699219 9.136719 14.699219 L 6.917969 14.699219 C 6.804688 14.699219 6.695312 14.652344 6.617188 14.570312 C 6.535156 14.492188 6.488281 14.382812 6.488281 14.269531 L 6.488281 13.351562 C 6.488281 12.941406 6.324219 12.550781 6.035156 12.261719 C 5.75 11.972656 5.355469 11.808594 4.949219 11.808594 C 4.679688 11.808594 4.417969 11.878906 4.1875 12.015625 L 3.410156 12.484375 C 3.308594 12.539062 3.191406 12.554688 3.082031 12.523438 C 2.96875 12.492188 2.875 12.421875 2.820312 12.324219 L 1.695312 10.402344 C 1.640625 10.300781 1.628906 10.183594 1.660156 10.074219 C 1.691406 9.960938 1.769531 9.871094 1.867188 9.8125 L 2.691406 9.34375 C 2.914062 9.203125 3.101562 9.011719 3.230469 8.78125 C 3.359375 8.550781 3.425781 8.292969 3.425781 8.027344 C 3.425781 7.765625 3.359375 7.503906 3.230469 7.273438 C 3.101562 7.042969 2.914062 6.851562 2.691406 6.714844 Z M 2.675781 6.714844 "/>
</g>
</svg>
