<?xml version="1.0" encoding="UTF-8"?>
<svg xmlns="http://www.w3.org/2000/svg" xmlns:xlink="http://www.w3.org/1999/xlink" width="60px" height="61px" viewBox="0 0 60 61" version="1.1">
<g id="surface1">
<path style=" stroke:none;fill-rule:nonzero;fill:rgb(39.215687%,73.725492%,24.313726%);fill-opacity:1;" d="M 13.558594 27.933594 C 13.96875 27.972656 14.339844 27.667969 14.378906 27.25 L 14.488281 26.144531 L 22.242188 26.144531 L 22.351562 27.25 C 22.390625 27.660156 22.75 27.972656 23.171875 27.933594 C 23.582031 27.890625 23.882812 27.519531 23.84375 27.097656 C 22.539062 13.578125 24.175781 30.542969 23.050781 18.902344 C 22.933594 17.722656 21.964844 16.832031 20.796875 16.832031 L 15.933594 16.832031 C 14.757812 16.832031 13.792969 17.726562 13.683594 18.902344 C 13.484375 20.980469 13.074219 25.160156 12.886719 27.097656 C 12.847656 27.515625 13.148438 27.890625 13.558594 27.933594 Z M 14.636719 24.621094 L 14.886719 22.035156 L 21.847656 22.035156 L 22.097656 24.621094 Z M 15.933594 18.359375 L 20.796875 18.359375 C 21.191406 18.359375 21.519531 18.65625 21.558594 19.054688 L 21.699219 20.507812 L 15.035156 20.507812 L 15.179688 19.050781 C 15.214844 18.664062 15.542969 18.359375 15.933594 18.359375 Z M 15.933594 18.359375 "/>
<path style=" stroke:none;fill-rule:nonzero;fill:rgb(39.215687%,73.725492%,24.313726%);fill-opacity:1;" d="M 56.484375 53.203125 L 55.941406 53.203125 L 55.941406 40.15625 C 55.941406 38.792969 54.851562 37.683594 53.507812 37.683594 L 47.207031 37.683594 C 47.199219 37.613281 45.378906 18.84375 45.386719 18.910156 C 45.277344 17.726562 44.308594 16.832031 43.136719 16.832031 L 38.273438 16.832031 C 37.105469 16.832031 36.136719 17.722656 36.019531 18.90625 C 35.949219 19.625 35.222656 27.160156 35.226562 27.097656 C 35.1875 27.515625 35.488281 27.890625 35.898438 27.933594 C 36.308594 27.972656 36.679688 27.667969 36.71875 27.25 L 36.828125 26.144531 L 44.582031 26.144531 L 45.699219 37.683594 L 43.558594 37.683594 C 43.144531 37.683594 42.808594 38.027344 42.808594 38.445312 C 42.808594 38.867188 43.144531 39.210938 43.558594 39.210938 L 53.507812 39.210938 C 54.023438 39.210938 54.441406 39.632812 54.441406 40.15625 L 54.441406 53.203125 L 52.1875 53.203125 L 52.1875 45.933594 C 52.1875 44.820312 51.296875 43.914062 50.203125 43.914062 L 45.550781 43.914062 C 44.453125 43.914062 43.5625 44.820312 43.5625 45.933594 L 43.5625 53.203125 L 41.308594 53.203125 L 41.308594 31.277344 C 41.308594 30.277344 40.507812 29.460938 39.523438 29.460938 L 5.292969 29.460938 C 4.308594 29.460938 3.511719 30.277344 3.511719 31.277344 L 3.511719 53.203125 L 2.96875 53.203125 C 1.757812 53.203125 0.773438 54.203125 0.773438 55.433594 C 0.773438 56.664062 1.757812 57.664062 2.96875 57.664062 L 56.484375 57.664062 C 57.695312 57.664062 58.679688 56.664062 58.679688 55.433594 C 58.679688 54.203125 57.695312 53.203125 56.484375 53.203125 Z M 38.273438 18.359375 L 43.136719 18.359375 C 43.523438 18.359375 43.855469 18.664062 43.890625 19.058594 L 44.03125 20.507812 L 37.371094 20.507812 L 37.511719 19.054688 C 37.550781 18.65625 37.878906 18.359375 38.273438 18.359375 Z M 36.972656 24.621094 L 37.222656 22.035156 L 44.179688 22.035156 L 44.433594 24.621094 Z M 45.0625 45.933594 C 45.0625 45.660156 45.28125 45.441406 45.550781 45.441406 L 50.203125 45.441406 C 50.46875 45.441406 50.6875 45.660156 50.6875 45.933594 L 50.6875 53.203125 L 45.0625 53.203125 Z M 5.011719 31.277344 C 5.011719 31.117188 5.136719 30.988281 5.292969 30.988281 L 39.523438 30.988281 C 39.679688 30.988281 39.808594 31.117188 39.808594 31.277344 L 39.808594 53.203125 L 5.011719 53.203125 Z M 56.484375 56.140625 L 2.96875 56.140625 C 2.585938 56.140625 2.273438 55.824219 2.273438 55.433594 C 2.273438 55.042969 2.585938 54.726562 2.96875 54.726562 L 56.484375 54.726562 C 56.867188 54.726562 57.179688 55.042969 57.179688 55.433594 C 57.179688 55.824219 56.867188 56.140625 56.484375 56.140625 Z M 56.484375 56.140625 "/>
<path style=" stroke:none;fill-rule:nonzero;fill:rgb(39.215687%,73.725492%,24.313726%);fill-opacity:1;" d="M 12.058594 34.535156 L 8.5625 34.535156 C 7.085938 34.535156 5.886719 35.753906 5.886719 37.253906 C 5.886719 38.753906 7.085938 39.972656 8.5625 39.972656 L 12.058594 39.972656 C 13.535156 39.972656 14.734375 38.753906 14.734375 37.253906 C 14.734375 35.753906 13.535156 34.535156 12.058594 34.535156 Z M 12.058594 38.449219 L 8.5625 38.449219 C 7.914062 38.449219 7.386719 37.914062 7.386719 37.253906 C 7.386719 36.59375 7.914062 36.058594 8.5625 36.058594 L 12.058594 36.058594 C 12.707031 36.058594 13.234375 36.59375 13.234375 37.253906 C 13.234375 37.914062 12.707031 38.449219 12.058594 38.449219 Z M 12.058594 38.449219 "/>
<path style=" stroke:none;fill-rule:nonzero;fill:rgb(39.215687%,73.725492%,24.313726%);fill-opacity:1;" d="M 24.160156 34.535156 L 20.660156 34.535156 C 19.183594 34.535156 17.984375 35.753906 17.984375 37.253906 C 17.984375 38.753906 19.183594 39.972656 20.660156 39.972656 L 24.160156 39.972656 C 25.632812 39.972656 26.832031 38.753906 26.832031 37.253906 C 26.832031 35.753906 25.632812 34.535156 24.160156 34.535156 Z M 24.160156 38.449219 L 20.660156 38.449219 C 20.011719 38.449219 19.484375 37.914062 19.484375 37.253906 C 19.484375 36.59375 20.011719 36.058594 20.660156 36.058594 L 24.160156 36.058594 C 24.804688 36.058594 25.332031 36.59375 25.332031 37.253906 C 25.332031 37.914062 24.804688 38.449219 24.160156 38.449219 Z M 24.160156 38.449219 "/>
<path style=" stroke:none;fill-rule:nonzero;fill:rgb(39.215687%,73.725492%,24.313726%);fill-opacity:1;" d="M 36.257812 34.535156 L 32.761719 34.535156 C 31.285156 34.535156 30.085938 35.753906 30.085938 37.253906 C 30.085938 38.753906 31.285156 39.972656 32.761719 39.972656 L 36.257812 39.972656 C 37.734375 39.972656 38.933594 38.753906 38.933594 37.253906 C 38.933594 35.753906 37.734375 34.535156 36.257812 34.535156 Z M 36.257812 38.449219 L 32.761719 38.449219 C 32.113281 38.449219 31.585938 37.914062 31.585938 37.253906 C 31.585938 36.59375 32.113281 36.058594 32.761719 36.058594 L 36.257812 36.058594 C 36.90625 36.058594 37.433594 36.59375 37.433594 37.253906 C 37.433594 37.914062 36.90625 38.449219 36.257812 38.449219 Z M 36.257812 38.449219 "/>
<path style=" stroke:none;fill-rule:nonzero;fill:rgb(13.333334%,13.333334%,13.333334%);fill-opacity:1;" d="M 16.855469 12.539062 C 17.269531 12.539062 17.605469 12.199219 17.605469 11.777344 L 17.605469 11.382812 C 17.605469 9.96875 18.738281 8.820312 20.128906 8.820312 L 24.6875 8.820312 C 26.90625 8.820312 28.710938 6.984375 28.710938 4.730469 C 28.710938 4.308594 28.375 3.964844 27.960938 3.964844 C 27.546875 3.964844 27.210938 4.308594 27.210938 4.730469 C 27.210938 6.144531 26.078125 7.292969 24.6875 7.292969 L 20.128906 7.292969 C 17.910156 7.292969 16.105469 9.128906 16.105469 11.382812 L 16.105469 11.777344 C 16.105469 12.199219 16.441406 12.539062 16.855469 12.539062 Z M 16.855469 12.539062 "/>
<path style=" stroke:none;fill-rule:nonzero;fill:rgb(13.333334%,13.333334%,13.333334%);fill-opacity:1;" d="M 26.910156 8.855469 C 26.496094 8.855469 26.160156 9.195312 26.160156 9.617188 C 26.160156 10.429688 25.511719 11.089844 24.714844 11.089844 L 21.652344 11.089844 C 20.027344 11.089844 18.707031 12.433594 18.707031 14.085938 L 18.707031 14.347656 C 18.707031 14.769531 19.042969 15.113281 19.457031 15.113281 C 19.871094 15.113281 20.207031 14.769531 20.207031 14.347656 L 20.207031 14.085938 C 20.207031 13.277344 20.855469 12.613281 21.652344 12.613281 L 24.714844 12.613281 C 26.339844 12.613281 27.660156 11.269531 27.660156 9.617188 C 27.660156 9.195312 27.324219 8.855469 26.910156 8.855469 Z M 26.910156 8.855469 "/>
<path style=" stroke:none;fill-rule:nonzero;fill:rgb(13.333334%,13.333334%,13.333334%);fill-opacity:1;" d="M 39.324219 12.539062 C 39.738281 12.539062 40.074219 12.199219 40.074219 11.777344 L 40.074219 11.382812 C 40.074219 9.96875 41.207031 8.820312 42.597656 8.820312 L 47.152344 8.820312 C 49.371094 8.820312 51.175781 6.984375 51.175781 4.730469 C 51.175781 4.308594 50.839844 3.964844 50.425781 3.964844 C 50.011719 3.964844 49.675781 4.308594 49.675781 4.730469 C 49.675781 6.144531 48.546875 7.292969 47.152344 7.292969 L 42.597656 7.292969 C 40.378906 7.292969 38.574219 9.128906 38.574219 11.382812 L 38.574219 11.777344 C 38.574219 12.199219 38.910156 12.539062 39.324219 12.539062 Z M 39.324219 12.539062 "/>
<path style=" stroke:none;fill-rule:nonzero;fill:rgb(13.333334%,13.333334%,13.333334%);fill-opacity:1;" d="M 49.375 8.855469 C 48.960938 8.855469 48.625 9.195312 48.625 9.617188 C 48.625 10.429688 47.976562 11.089844 47.179688 11.089844 L 44.121094 11.089844 C 42.496094 11.089844 41.171875 12.433594 41.171875 14.085938 L 41.171875 14.347656 C 41.171875 14.769531 41.507812 15.113281 41.921875 15.113281 C 42.335938 15.113281 42.671875 14.769531 42.671875 14.347656 L 42.671875 14.085938 C 42.671875 13.277344 43.320312 12.613281 44.121094 12.613281 L 47.179688 12.613281 C 48.804688 12.613281 50.125 11.269531 50.125 9.617188 C 50.125 9.195312 49.792969 8.855469 49.375 8.855469 Z M 49.375 8.855469 "/>
</g>
</svg>
