<svg xmlns="http://www.w3.org/2000/svg" xmlns:xlink="http://www.w3.org/1999/xlink" width="600" zoomAndPan="magnify" viewBox="0 0 450 449.999984" height="600" preserveAspectRatio="xMidYMid meet" version="1.0"><path fill="#64bc3e" d="M 362.378906 413.742188 C 364.007812 413.742188 365.648438 413.144531 366.933594 411.941406 C 369.613281 409.425781 369.75 405.214844 367.234375 402.527344 C 306.640625 337.933594 292.8125 259.214844 287.273438 190.722656 C 286.179688 177.484375 275.34375 167.5 262.0625 167.5 L 185.90625 167.5 C 172.792969 167.5 161.746094 177.71875 160.757812 190.726562 C 155.21875 259.21875 141.378906 337.945312 80.734375 402.527344 C 78.210938 405.203125 78.347656 409.417969 81.023438 411.933594 C 83.703125 414.457031 87.921875 414.324219 90.429688 411.640625 C 153.898438 344.0625 168.304688 262.589844 174.035156 191.765625 C 174.5 185.625 179.714844 180.8125 185.902344 180.8125 L 262.0625 180.8125 C 268.355469 180.8125 273.484375 185.539062 273.996094 191.804688 C 279.722656 262.582031 294.125 344.050781 357.519531 411.640625 C 358.835938 413.035156 360.601562 413.742188 362.378906 413.742188 Z M 362.378906 413.742188 " fill-opacity="1" fill-rule="nonzero"/><path fill="#64bc3e" d="M 16.605469 440.398438 L 431.40625 440.398438 C 435.085938 440.398438 438.0625 437.417969 438.0625 433.738281 C 438.0625 430.058594 435.085938 427.082031 431.40625 427.082031 L 16.605469 427.082031 C 12.925781 427.082031 9.945312 430.058594 9.945312 433.738281 C 9.945312 437.417969 12.925781 440.398438 16.605469 440.398438 Z M 16.605469 440.398438 " fill-opacity="1" fill-rule="nonzero"/><path fill="#ffffff" d="M 394.875 74.617188 C 394.875 36.875 352.019531 15.292969 321.589844 37 C 299.972656 -1.273438 242.03125 11.917969 238.605469 55.175781 C 213.351562 64.816406 202.324219 93.847656 213.175781 117.578125 C 203.890625 122.792969 197.742188 132.773438 197.742188 143.777344 C 197.742188 147.457031 200.71875 150.433594 204.398438 150.433594 C 208.078125 150.433594 211.054688 147.457031 211.054688 143.777344 C 211.054688 136.003906 216.574219 129.144531 224.1875 127.472656 C 226.359375 127 228.152344 125.464844 228.957031 123.390625 C 229.765625 121.316406 229.484375 118.976562 228.210938 117.152344 C 215.242188 98.648438 224.527344 72.382812 246.867188 66.484375 C 250 65.65625 252.070312 62.589844 251.796875 59.363281 L 251.78125 58.695312 C 251.78125 23.058594 302.691406 15.707031 312.703125 49.964844 C 313.378906 52.285156 315.257812 54.054688 317.613281 54.585938 C 319.964844 55.136719 322.421875 54.351562 324.035156 52.558594 C 344.101562 30.296875 381.5625 44.402344 381.5625 74.617188 C 381.5625 99.789062 354.445312 115.609375 332.65625 103.542969 C 330.742188 102.492188 328.4375 102.433594 326.480469 103.402344 C 324.523438 104.371094 323.164062 106.238281 322.84375 108.402344 C 321.863281 115.066406 317.359375 120.136719 310.804688 121.960938 C 304.1875 123.808594 297.640625 121.742188 293.265625 116.429688 C 291.933594 114.816406 289.941406 113.875 287.828125 114.019531 C 285.738281 114.117188 283.8125 115.179688 282.636719 116.910156 C 275.640625 127.136719 263.367188 132.703125 251.296875 131.074219 C 247.5625 130.613281 244.292969 133.144531 243.804688 136.785156 C 243.320312 140.429688 245.875 143.777344 249.511719 144.273438 C 264.03125 146.242188 278.703125 140.859375 288.804688 130.355469 C 296.09375 135.59375 305.34375 137.304688 314.371094 134.789062 C 323.15625 132.335938 330.035156 126.382812 333.621094 118.496094 C 363.460938 128.699219 394.875 106.414062 394.875 74.617188 Z M 394.875 74.617188 " fill-opacity="1" fill-rule="nonzero"/><path fill="#64bc3e" d="M 217.679688 262.078125 L 217.679688 289.878906 C 217.679688 293.558594 220.65625 296.535156 224.335938 296.535156 C 228.015625 296.535156 230.992188 293.558594 230.992188 289.878906 L 230.992188 262.078125 C 230.992188 258.398438 228.015625 255.417969 224.335938 255.417969 C 220.65625 255.417969 217.679688 258.398438 217.679688 262.078125 Z M 217.679688 262.078125 " fill-opacity="1" fill-rule="nonzero"/><path fill="#64bc3e" d="M 196.523438 325.753906 L 172.445312 339.652344 C 169.257812 341.492188 168.164062 345.5625 170.003906 348.746094 C 171.863281 351.953125 175.945312 353.007812 179.101562 351.183594 L 203.179688 337.285156 C 206.367188 335.445312 207.457031 331.375 205.617188 328.191406 C 203.777344 325.007812 199.695312 323.914062 196.523438 325.753906 Z M 196.523438 325.753906 " fill-opacity="1" fill-rule="nonzero"/><path fill="#64bc3e" d="M 251.484375 326.128906 C 248.304688 324.289062 244.230469 325.375 242.390625 328.566406 C 240.550781 331.753906 241.640625 335.824219 244.828125 337.664062 L 268.898438 351.5625 C 272.074219 353.394531 276.152344 352.3125 277.996094 349.125 C 279.835938 345.9375 278.742188 341.867188 275.554688 340.027344 Z M 251.484375 326.128906 " fill-opacity="1" fill-rule="nonzero"/></svg>