<?xml version="1.0" encoding="UTF-8"?>
<svg xmlns="http://www.w3.org/2000/svg" xmlns:xlink="http://www.w3.org/1999/xlink" width="30px" height="30px" viewBox="0 0 30 30" version="1.1">
<g id="surface1">
<path style=" stroke:none;fill-rule:nonzero;fill:rgb(39.215687%,73.725492%,24.313726%);fill-opacity:1;" d="M 19.441406 28.34375 C 19.320312 28.34375 19.199219 28.332031 19.078125 28.308594 C 14.925781 27.5625 10.789062 25.300781 7.425781 21.9375 C 4.0625 18.574219 1.800781 14.4375 1.054688 10.285156 C 0.914062 9.5 1.242188 8.6875 1.890625 8.207031 C 2.722656 7.597656 3.617188 7.027344 4.550781 6.519531 C 5.171875 6.183594 5.902344 6.164062 6.507812 6.46875 C 8.578125 7.511719 9.949219 9.25 10.582031 11.632812 C 10.757812 12.277344 10.601562 12.976562 10.171875 13.503906 L 8.800781 15.179688 C 8.582031 15.449219 8.554688 15.820312 8.734375 16.105469 C 9.902344 17.941406 11.421875 19.460938 13.257812 20.628906 C 13.542969 20.808594 13.914062 20.78125 14.183594 20.5625 L 15.859375 19.191406 C 16.386719 18.761719 17.085938 18.609375 17.730469 18.78125 C 20.113281 19.414062 21.851562 20.789062 22.894531 22.855469 C 23.199219 23.460938 23.179688 24.191406 22.84375 24.8125 C 22.335938 25.746094 21.765625 26.640625 21.15625 27.472656 C 20.75 28.023438 20.105469 28.34375 19.441406 28.34375 Z M 5.589844 7.566406 C 5.453125 7.566406 5.3125 7.601562 5.179688 7.671875 C 4.296875 8.152344 3.453125 8.691406 2.667969 9.265625 C 2.421875 9.449219 2.292969 9.757812 2.347656 10.050781 C 3.046875 13.941406 5.179688 17.832031 8.355469 21.007812 C 11.53125 24.183594 15.421875 26.316406 19.3125 27.015625 C 19.605469 27.070312 19.914062 26.941406 20.097656 26.695312 C 20.671875 25.910156 21.210938 25.066406 21.691406 24.183594 C 21.820312 23.945312 21.832031 23.667969 21.722656 23.449219 C 20.84375 21.703125 19.425781 20.589844 17.390625 20.046875 C 17.152344 19.984375 16.890625 20.042969 16.691406 20.207031 L 15.011719 21.578125 C 14.304688 22.15625 13.316406 22.222656 12.554688 21.734375 C 10.554688 20.464844 8.898438 18.808594 7.628906 16.808594 C 7.144531 16.046875 7.207031 15.058594 7.785156 14.351562 L 9.15625 12.671875 C 9.320312 12.472656 9.378906 12.210938 9.316406 11.972656 C 8.773438 9.9375 7.660156 8.519531 5.914062 7.640625 C 5.816406 7.589844 5.703125 7.566406 5.589844 7.566406 Z M 5.589844 7.566406 "/>
<path style=" stroke:none;fill-rule:nonzero;fill:rgb(39.215687%,73.725492%,24.313726%);fill-opacity:1;" d="M 27.933594 15.242188 C 27.925781 15.242188 27.914062 15.242188 27.90625 15.242188 C 27.542969 15.226562 27.261719 14.917969 27.277344 14.558594 C 27.417969 11.210938 26.144531 7.9375 23.785156 5.578125 C 21.425781 3.21875 18.160156 1.9375 14.804688 2.085938 C 14.457031 2.09375 14.136719 1.820312 14.121094 1.457031 C 14.109375 1.09375 14.390625 0.789062 14.75 0.773438 C 18.464844 0.617188 22.09375 2.03125 24.714844 4.648438 C 27.332031 7.269531 28.746094 10.898438 28.589844 14.613281 C 28.574219 14.964844 28.285156 15.242188 27.933594 15.242188 Z M 27.933594 15.242188 "/>
<path style=" stroke:none;fill-rule:nonzero;fill:rgb(39.215687%,73.725492%,24.313726%);fill-opacity:1;" d="M 24.441406 15.242188 C 24.429688 15.242188 24.414062 15.242188 24.402344 15.238281 C 24.039062 15.21875 23.761719 14.90625 23.785156 14.546875 C 23.925781 12.125 23.027344 9.753906 21.316406 8.046875 C 19.609375 6.335938 17.238281 5.4375 14.816406 5.578125 C 14.453125 5.601562 14.144531 5.324219 14.125 4.960938 C 14.101562 4.597656 14.378906 4.289062 14.742188 4.265625 C 17.53125 4.101562 20.273438 5.140625 22.246094 7.117188 C 24.222656 9.09375 25.261719 11.828125 25.097656 14.625 C 25.074219 14.972656 24.785156 15.242188 24.441406 15.242188 Z M 24.441406 15.242188 "/>
<path style=" stroke:none;fill-rule:nonzero;fill:rgb(39.215687%,73.725492%,24.313726%);fill-opacity:1;" d="M 20.949219 15.242188 C 20.929688 15.242188 20.910156 15.242188 20.890625 15.238281 C 20.527344 15.203125 20.261719 14.886719 20.296875 14.523438 C 20.433594 13.03125 19.910156 11.570312 18.851562 10.511719 C 17.792969 9.453125 16.332031 8.925781 14.839844 9.066406 C 14.480469 9.101562 14.160156 8.835938 14.125 8.472656 C 14.089844 8.113281 14.355469 7.792969 14.71875 7.757812 C 16.601562 7.585938 18.445312 8.25 19.78125 9.585938 C 21.113281 10.917969 21.78125 12.765625 21.605469 14.644531 C 21.574219 14.984375 21.285156 15.242188 20.949219 15.242188 Z M 20.949219 15.242188 "/>
</g>
</svg>
