<?xml version="1.0" encoding="UTF-8"?>
<svg xmlns="http://www.w3.org/2000/svg" xmlns:xlink="http://www.w3.org/1999/xlink" width="60px" height="60px" viewBox="0 0 60 60" version="1.1">
<g id="surface1">
<path style=" stroke:none;fill-rule:nonzero;fill:rgb(39.215687%,73.725492%,24.313726%);fill-opacity:1;" d="M 11.847656 34.4375 L 7.144531 34.4375 C 6.042969 34.4375 5.148438 35.332031 5.148438 36.433594 L 5.148438 38.964844 C 5.148438 40.0625 6.042969 40.957031 7.144531 40.957031 L 11.847656 40.957031 C 12.949219 40.957031 13.84375 40.0625 13.84375 38.964844 L 13.84375 36.433594 C 13.84375 35.332031 12.949219 34.4375 11.847656 34.4375 Z M 12.5 38.964844 C 12.5 39.324219 12.207031 39.617188 11.847656 39.617188 L 7.144531 39.617188 C 6.785156 39.617188 6.492188 39.324219 6.492188 38.964844 L 6.492188 36.433594 C 6.492188 36.074219 6.785156 35.78125 7.144531 35.78125 L 11.847656 35.78125 C 12.207031 35.78125 12.5 36.074219 12.5 36.433594 Z M 12.5 38.964844 "/>
<path style=" stroke:none;fill-rule:nonzero;fill:rgb(39.215687%,73.725492%,24.313726%);fill-opacity:1;" d="M 22.082031 34.4375 L 17.378906 34.4375 C 16.277344 34.4375 15.382812 35.332031 15.382812 36.433594 L 15.382812 38.964844 C 15.382812 40.0625 16.277344 40.957031 17.378906 40.957031 L 22.082031 40.957031 C 23.183594 40.957031 24.078125 40.0625 24.078125 38.964844 L 24.078125 36.433594 C 24.078125 35.332031 23.183594 34.4375 22.082031 34.4375 Z M 22.738281 38.964844 C 22.738281 39.324219 22.445312 39.617188 22.082031 39.617188 L 17.378906 39.617188 C 17.019531 39.617188 16.726562 39.324219 16.726562 38.964844 L 16.726562 36.433594 C 16.726562 36.074219 17.019531 35.78125 17.378906 35.78125 L 22.082031 35.78125 C 22.445312 35.78125 22.738281 36.074219 22.738281 36.433594 Z M 22.738281 38.964844 "/>
<path style=" stroke:none;fill-rule:nonzero;fill:rgb(39.215687%,73.725492%,24.313726%);fill-opacity:1;" d="M 32.320312 34.4375 L 27.613281 34.4375 C 26.515625 34.4375 25.621094 35.332031 25.621094 36.433594 L 25.621094 38.964844 C 25.621094 40.0625 26.515625 40.957031 27.613281 40.957031 L 32.320312 40.957031 C 33.417969 40.957031 34.316406 40.0625 34.316406 38.964844 L 34.316406 36.433594 C 34.316406 35.332031 33.417969 34.4375 32.320312 34.4375 Z M 32.972656 38.964844 C 32.972656 39.324219 32.679688 39.617188 32.320312 39.617188 L 27.613281 39.617188 C 27.253906 39.617188 26.960938 39.324219 26.960938 38.964844 L 26.960938 36.433594 C 26.960938 36.070312 27.253906 35.777344 27.613281 35.777344 L 32.320312 35.777344 C 32.679688 35.777344 32.972656 36.070312 32.972656 36.433594 Z M 32.972656 38.964844 "/>
<path style=" stroke:none;fill-rule:nonzero;fill:rgb(39.215687%,73.725492%,24.313726%);fill-opacity:1;" d="M 11.847656 44.949219 L 7.144531 44.949219 C 6.042969 44.949219 5.148438 45.847656 5.148438 46.945312 L 5.148438 49.476562 C 5.148438 50.578125 6.042969 51.472656 7.144531 51.472656 L 11.847656 51.472656 C 12.949219 51.472656 13.84375 50.578125 13.84375 49.476562 L 13.84375 46.945312 C 13.84375 45.847656 12.949219 44.949219 11.847656 44.949219 Z M 12.5 49.476562 C 12.5 49.835938 12.207031 50.128906 11.847656 50.128906 L 7.144531 50.128906 C 6.785156 50.128906 6.492188 49.835938 6.492188 49.476562 L 6.492188 46.945312 C 6.492188 46.585938 6.785156 46.292969 7.144531 46.292969 L 11.847656 46.292969 C 12.207031 46.292969 12.5 46.585938 12.5 46.945312 Z M 12.5 49.476562 "/>
<path style=" stroke:none;fill-rule:nonzero;fill:rgb(39.215687%,73.725492%,24.313726%);fill-opacity:1;" d="M 22.082031 44.949219 L 17.378906 44.949219 C 16.277344 44.949219 15.382812 45.847656 15.382812 46.945312 L 15.382812 49.476562 C 15.382812 50.578125 16.277344 51.472656 17.378906 51.472656 L 22.082031 51.472656 C 23.183594 51.472656 24.078125 50.578125 24.078125 49.476562 L 24.078125 46.945312 C 24.078125 45.847656 23.183594 44.949219 22.082031 44.949219 Z M 22.738281 49.476562 C 22.738281 49.835938 22.445312 50.128906 22.082031 50.128906 L 17.378906 50.128906 C 17.019531 50.128906 16.726562 49.835938 16.726562 49.476562 L 16.726562 46.945312 C 16.726562 46.585938 17.019531 46.292969 17.378906 46.292969 L 22.082031 46.292969 C 22.445312 46.292969 22.738281 46.585938 22.738281 46.945312 Z M 22.738281 49.476562 "/>
<path style=" stroke:none;fill-rule:nonzero;fill:rgb(39.215687%,73.725492%,24.313726%);fill-opacity:1;" d="M 32.320312 44.949219 L 27.613281 44.949219 C 26.515625 44.949219 25.621094 45.847656 25.621094 46.945312 L 25.621094 49.476562 C 25.621094 50.578125 26.515625 51.472656 27.613281 51.472656 L 32.320312 51.472656 C 33.417969 51.472656 34.316406 50.578125 34.316406 49.476562 L 34.316406 46.945312 C 34.316406 45.847656 33.417969 44.949219 32.320312 44.949219 Z M 32.972656 49.476562 C 32.972656 49.835938 32.679688 50.128906 32.320312 50.128906 L 27.613281 50.128906 C 27.253906 50.128906 26.960938 49.835938 26.960938 49.476562 L 26.960938 46.945312 C 26.960938 46.585938 27.253906 46.292969 27.613281 46.292969 L 32.320312 46.292969 C 32.679688 46.292969 32.972656 46.585938 32.972656 46.945312 Z M 32.972656 49.476562 "/>
<path style=" stroke:none;fill-rule:nonzero;fill:rgb(39.215687%,73.725492%,24.313726%);fill-opacity:1;" d="M 50.191406 22.160156 L 41.589844 22.160156 C 40.105469 22.160156 38.894531 23.367188 38.894531 24.851562 C 38.894531 26.335938 40.105469 27.546875 41.589844 27.546875 L 50.191406 27.546875 C 51.675781 27.546875 52.882812 26.335938 52.882812 24.851562 C 52.882812 23.367188 51.675781 22.160156 50.191406 22.160156 Z M 50.191406 26.203125 L 41.589844 26.203125 C 40.84375 26.203125 40.238281 25.597656 40.238281 24.851562 C 40.238281 24.105469 40.84375 23.5 41.589844 23.5 L 50.191406 23.5 C 50.933594 23.5 51.542969 24.105469 51.542969 24.851562 C 51.542969 25.597656 50.933594 26.203125 50.191406 26.203125 Z M 50.191406 26.203125 "/>
<path style=" stroke:none;fill-rule:nonzero;fill:rgb(39.215687%,73.725492%,24.313726%);fill-opacity:1;" d="M 50.191406 29.660156 L 41.589844 29.660156 C 40.105469 29.660156 38.894531 30.867188 38.894531 32.351562 C 38.894531 33.835938 40.105469 35.042969 41.589844 35.042969 L 50.191406 35.042969 C 51.675781 35.042969 52.882812 33.835938 52.882812 32.351562 C 52.882812 30.867188 51.675781 29.660156 50.191406 29.660156 Z M 50.191406 33.703125 L 41.589844 33.703125 C 40.84375 33.703125 40.238281 33.097656 40.238281 32.351562 C 40.238281 31.605469 40.84375 31 41.589844 31 L 50.191406 31 C 50.933594 31 51.542969 31.605469 51.542969 32.351562 C 51.542969 33.097656 50.933594 33.703125 50.191406 33.703125 Z M 50.191406 33.703125 "/>
<path style=" stroke:none;fill-rule:nonzero;fill:rgb(39.215687%,73.725492%,24.313726%);fill-opacity:1;" d="M 50.191406 37.15625 L 41.589844 37.15625 C 40.105469 37.15625 38.894531 38.367188 38.894531 39.851562 C 38.894531 41.335938 40.105469 42.542969 41.589844 42.542969 L 50.191406 42.542969 C 51.675781 42.542969 52.882812 41.335938 52.882812 39.851562 C 52.882812 38.367188 51.675781 37.15625 50.191406 37.15625 Z M 50.191406 41.203125 L 41.589844 41.203125 C 39.800781 41.203125 39.800781 38.5 41.589844 38.5 L 50.191406 38.5 C 50.933594 38.5 51.542969 39.105469 51.542969 39.851562 C 51.542969 40.59375 50.933594 41.203125 50.191406 41.203125 Z M 50.191406 41.203125 "/>
<path style=" stroke:none;fill-rule:nonzero;fill:rgb(39.215687%,73.725492%,24.313726%);fill-opacity:1;" d="M 8.191406 28.316406 C 8.511719 28.316406 8.796875 28.085938 8.851562 27.757812 L 10.550781 17.738281 L 18.128906 17.738281 L 19.828125 27.757812 C 19.890625 28.125 20.238281 28.367188 20.601562 28.308594 C 20.964844 28.246094 21.210938 27.898438 21.152344 27.535156 C 18.410156 11.675781 18.65625 12.101562 18.277344 11.445312 C 17.886719 10.765625 17.152344 10.324219 16.328125 10.324219 L 12.351562 10.324219 C 11.308594 10.324219 10.421875 11.035156 10.175781 12.03125 C 10.097656 12.34375 7.535156 27.488281 7.527344 27.535156 C 7.460938 27.941406 7.773438 28.316406 8.191406 28.316406 Z M 10.78125 16.394531 C 11.507812 12.109375 11.449219 12.402344 11.492188 12.28125 C 11.613281 11.917969 11.957031 11.664062 12.355469 11.664062 L 16.324219 11.664062 C 16.660156 11.664062 16.957031 11.84375 17.113281 12.117188 C 17.261719 12.371094 17.171875 12.234375 17.898438 16.394531 Z M 10.78125 16.394531 "/>
<path style=" stroke:none;fill-rule:nonzero;fill:rgb(0%,0%,0%);fill-opacity:1;" d="M 13.6875 9.714844 C 14.027344 9.570312 14.183594 9.175781 14.039062 8.835938 C 13.621094 7.867188 14.710938 6.703125 15.769531 6.5 C 17.003906 6.265625 18.324219 6.753906 19.605469 7.226562 C 21.011719 7.679688 22.792969 8.453125 24.667969 7.757812 C 25.683594 7.386719 26.507812 6.445312 26.773438 5.359375 C 26.984375 4.503906 26.792969 3.671875 26.253906 3.078125 C 26.003906 2.800781 25.582031 2.78125 25.304688 3.03125 C 25.03125 3.28125 25.011719 3.703125 25.261719 3.980469 C 25.566406 4.316406 25.542969 4.742188 25.46875 5.042969 C 25.3125 5.683594 24.792969 6.285156 24.203125 6.5 C 22.832031 7.007812 21.316406 6.394531 20.070312 5.96875 C 18.683594 5.457031 17.117188 4.878906 15.515625 5.183594 C 13.628906 5.542969 12.027344 7.558594 12.804688 9.367188 C 12.953125 9.707031 13.347656 9.863281 13.6875 9.714844 Z M 13.6875 9.714844 "/>
<path style=" stroke:none;fill-rule:nonzero;fill:rgb(0%,0%,0%);fill-opacity:1;" d="M 30.207031 5.476562 C 34.664062 3.707031 39.726562 5.886719 41.5 10.339844 C 41.636719 10.6875 42.027344 10.851562 42.371094 10.714844 C 42.714844 10.578125 42.882812 10.191406 42.746094 9.84375 C 40.699219 4.703125 34.855469 2.183594 29.714844 4.230469 C 29.367188 4.367188 29.199219 4.757812 29.339844 5.101562 C 29.472656 5.445312 29.867188 5.613281 30.207031 5.476562 Z M 30.207031 5.476562 "/>
<path style=" stroke:none;fill-rule:nonzero;fill:rgb(0%,0%,0%);fill-opacity:1;" d="M 30.980469 7.421875 C 30.636719 7.558594 30.46875 7.949219 30.605469 8.292969 C 30.742188 8.636719 31.132812 8.804688 31.480469 8.667969 C 34.171875 7.597656 37.238281 8.914062 38.308594 11.609375 C 38.445312 11.957031 38.839844 12.121094 39.179688 11.984375 C 39.523438 11.847656 39.691406 11.457031 39.554688 11.113281 C 38.210938 7.730469 34.367188 6.074219 30.980469 7.421875 Z M 30.980469 7.421875 "/>
<path style=" stroke:none;fill-rule:nonzero;fill:rgb(0%,0%,0%);fill-opacity:1;" d="M 46.066406 12.945312 C 46.363281 13.167969 46.785156 13.109375 47.007812 12.816406 L 49.203125 9.929688 C 49.324219 9.765625 49.367188 9.558594 49.316406 9.359375 C 49.269531 9.160156 49.128906 8.996094 48.941406 8.914062 L 47.679688 8.34375 L 49.042969 6.144531 C 49.238281 5.832031 49.144531 5.417969 48.828125 5.222656 C 48.515625 5.027344 48.101562 5.121094 47.90625 5.4375 L 46.136719 8.285156 C 46.03125 8.449219 46.007812 8.648438 46.0625 8.832031 C 46.121094 9.019531 46.253906 9.171875 46.429688 9.25 L 47.621094 9.789062 L 45.941406 12.003906 C 45.714844 12.300781 45.773438 12.71875 46.066406 12.945312 Z M 46.066406 12.945312 "/>
<path style=" stroke:none;fill-rule:nonzero;fill:rgb(0%,0%,0%);fill-opacity:1;" d="M 25.3125 15.160156 C 25.226562 14.800781 24.867188 14.574219 24.507812 14.660156 C 24.144531 14.742188 23.921875 15.105469 24.003906 15.464844 L 24.765625 18.730469 C 24.8125 18.917969 24.933594 19.078125 25.105469 19.167969 C 25.277344 19.261719 25.476562 19.273438 25.65625 19.203125 L 26.882812 18.742188 L 27.257812 21.496094 C 27.304688 21.832031 27.59375 22.078125 27.921875 22.078125 C 27.953125 22.078125 27.984375 22.074219 28.015625 22.070312 C 28.382812 22.023438 28.640625 21.683594 28.589844 21.316406 L 28.097656 17.722656 C 28.070312 17.523438 27.953125 17.34375 27.777344 17.238281 C 27.601562 17.132812 27.386719 17.117188 27.199219 17.1875 L 25.898438 17.679688 Z M 25.3125 15.160156 "/>
<path style=" stroke:none;fill-rule:nonzero;fill:rgb(39.215687%,73.725492%,24.313726%);fill-opacity:1;" d="M 57.382812 55.800781 L 55.570312 55.800781 L 55.570312 14.0625 C 55.570312 12.59375 54.046875 11.601562 52.699219 12.214844 L 37.359375 19.210938 C 36.640625 19.542969 36.175781 20.269531 36.175781 21.058594 L 36.175781 29.660156 L 5.050781 29.660156 C 3.339844 29.660156 1.945312 31.050781 1.945312 32.761719 L 1.945312 56.46875 C 1.945312 56.839844 2.246094 57.140625 2.617188 57.140625 C 7.054688 57.140625 54.449219 57.144531 57.382812 57.144531 C 57.753906 57.144531 58.054688 56.84375 58.054688 56.472656 C 58.054688 56.101562 57.753906 55.800781 57.382812 55.800781 Z M 3.289062 32.761719 C 3.289062 31.792969 4.078125 31 5.050781 31 L 36.175781 31 C 36.175781 60.789062 36.175781 55.050781 36.175781 55.800781 L 3.289062 55.800781 Z M 42.277344 55.800781 L 42.277344 49.027344 C 42.277344 47.046875 43.890625 45.433594 45.871094 45.433594 C 47.855469 45.433594 49.464844 47.046875 49.464844 49.027344 L 49.464844 55.800781 Z M 50.808594 55.800781 L 50.808594 49.027344 C 50.808594 46.308594 48.59375 44.09375 45.871094 44.09375 C 43.152344 44.09375 40.9375 46.308594 40.9375 49.027344 L 40.9375 55.800781 C 40.851562 55.800781 37.316406 55.800781 37.515625 55.800781 C 37.515625 51.574219 37.515625 31.5625 37.515625 21.058594 C 37.515625 20.789062 37.675781 20.542969 37.917969 20.429688 L 53.253906 13.433594 C 53.714844 13.226562 54.230469 13.566406 54.230469 14.0625 L 54.230469 55.800781 Z M 50.808594 55.800781 "/>
</g>
</svg>
