<svg xmlns="http://www.w3.org/2000/svg" xmlns:xlink="http://www.w3.org/1999/xlink" width="600" zoomAndPan="magnify" viewBox="0 0 450 449.999984" height="600" preserveAspectRatio="xMidYMid meet" version="1.0"><path fill="#64bc3e" d="M 85.238281 249.429688 C 88.800781 249.429688 91.6875 246.542969 91.6875 242.980469 L 91.6875 159.683594 C 91.6875 150.777344 96.117188 142.550781 103.5625 137.652344 C 108.972656 134.070312 113.449219 129.195312 116.507812 123.542969 C 119.589844 117.847656 121.214844 111.410156 121.214844 104.941406 L 121.214844 95.527344 L 142.492188 95.527344 L 142.492188 104.878906 C 142.492188 118.164062 149.078125 130.421875 160.117188 137.679688 C 167.195312 142.296875 172.019531 150.398438 172.019531 159.683594 L 172.019531 242.851562 C 172.019531 246.414062 174.90625 249.300781 178.46875 249.300781 C 182.027344 249.300781 184.914062 246.414062 184.914062 242.851562 L 184.914062 159.683594 C 184.914062 146.113281 177.949219 133.914062 167.179688 126.894531 C 159.796875 122.039062 155.386719 113.8125 155.386719 104.878906 C 155.386719 104.226562 155.335938 70.605469 155.339844 72.730469 C 155.339844 63.710938 148 56.371094 138.980469 56.371094 L 124.667969 56.371094 C 115.644531 56.371094 108.308594 63.710938 108.308594 72.730469 C 108.308594 73.382812 108.320312 107.066406 108.320312 104.941406 C 108.320312 109.28125 107.226562 113.59375 105.164062 117.414062 C 103.113281 121.203125 100.09375 124.484375 96.460938 126.894531 C 85.394531 134.167969 78.792969 146.421875 78.792969 159.683594 L 78.792969 242.980469 C 78.792969 246.542969 81.679688 249.429688 85.238281 249.429688 Z M 121.203125 72.730469 C 121.203125 70.820312 122.757812 69.265625 124.671875 69.265625 L 138.980469 69.265625 C 140.894531 69.265625 142.445312 70.820312 142.445312 72.730469 L 142.445312 82.617188 L 121.203125 82.617188 Z M 121.203125 72.730469 " fill-opacity="1" fill-rule="nonzero"/><path fill="#64bc3e" d="M 217.867188 249.300781 C 221.429688 249.300781 224.316406 246.414062 224.316406 242.851562 L 224.316406 159.683594 C 224.316406 150.777344 228.75 142.550781 236.191406 137.652344 C 241.597656 134.074219 246.074219 129.199219 249.140625 123.542969 C 252.222656 117.84375 253.84375 111.410156 253.84375 104.941406 L 253.84375 95.527344 L 275.121094 95.527344 L 275.121094 104.878906 C 275.121094 118.1875 281.730469 130.449219 292.773438 137.65625 C 296.433594 140.078125 299.441406 143.371094 301.515625 147.238281 C 303.566406 150.988281 304.652344 155.292969 304.652344 159.683594 L 304.652344 242.851562 C 304.652344 246.414062 307.535156 249.300781 311.097656 249.300781 C 314.660156 249.300781 317.542969 246.414062 317.542969 242.851562 L 317.542969 159.683594 C 317.542969 153.132812 315.914062 146.691406 312.851562 141.101562 C 309.804688 135.410156 305.324219 130.5 299.859375 126.882812 C 292.441406 122.039062 288.015625 113.8125 288.015625 104.878906 C 288.011719 104.226562 287.972656 70.605469 287.976562 72.730469 C 287.976562 63.710938 280.640625 56.371094 271.617188 56.371094 L 257.308594 56.371094 C 248.285156 56.371094 240.949219 63.710938 240.949219 72.730469 C 240.949219 73.957031 240.949219 106.089844 240.949219 104.941406 C 240.949219 109.28125 239.863281 113.59375 237.800781 117.410156 C 235.742188 121.203125 232.726562 124.484375 229.089844 126.894531 C 218.023438 134.167969 211.417969 146.425781 211.417969 159.679688 L 211.417969 242.851562 C 211.421875 246.414062 214.308594 249.300781 217.867188 249.300781 Z M 253.84375 72.730469 C 253.84375 70.820312 255.402344 69.265625 257.308594 69.265625 L 271.621094 69.265625 C 273.527344 69.265625 275.082031 70.820312 275.082031 72.730469 L 275.082031 82.617188 L 253.84375 82.617188 Z M 253.84375 72.730469 " fill-opacity="1" fill-rule="nonzero"/><path fill="#64bc3e" d="M 89.472656 399.644531 L 364.664062 399.644531 C 402.558594 399.644531 433.386719 368.8125 433.386719 330.917969 C 433.386719 293.023438 402.558594 262.195312 364.664062 262.195312 L 89.472656 262.195312 C 51.578125 262.195312 20.75 293.023438 20.75 330.917969 C 20.75 368.8125 51.578125 399.644531 89.472656 399.644531 Z M 89.472656 275.089844 L 364.664062 275.089844 C 395.445312 275.089844 420.492188 300.132812 420.492188 330.917969 C 420.492188 361.703125 395.445312 386.746094 364.664062 386.746094 L 89.472656 386.746094 C 58.6875 386.746094 33.644531 361.703125 33.644531 330.917969 C 33.644531 300.132812 58.6875 275.089844 89.472656 275.089844 Z M 89.472656 275.089844 " fill-opacity="1" fill-rule="nonzero"/><path fill="#ffffff" d="M 102.9375 346.84375 C 106.496094 346.84375 109.382812 343.957031 109.382812 340.394531 L 109.382812 321.441406 C 109.382812 317.882812 106.496094 314.996094 102.9375 314.996094 C 99.375 314.996094 96.488281 317.882812 96.488281 321.441406 L 96.488281 340.394531 C 96.488281 343.953125 99.375 346.84375 102.9375 346.84375 Z M 102.9375 346.84375 " fill-opacity="1" fill-rule="nonzero"/><path fill="#ffffff" d="M 165.003906 346.84375 C 168.5625 346.84375 171.449219 343.957031 171.449219 340.394531 L 171.449219 321.441406 C 171.449219 317.882812 168.5625 314.996094 165.003906 314.996094 C 161.441406 314.996094 158.554688 317.882812 158.554688 321.441406 L 158.554688 340.394531 C 158.554688 343.953125 161.441406 346.84375 165.003906 346.84375 Z M 165.003906 346.84375 " fill-opacity="1" fill-rule="nonzero"/><path fill="#ffffff" d="M 227.070312 346.84375 C 230.632812 346.84375 233.515625 343.957031 233.515625 340.394531 L 233.515625 321.441406 C 233.515625 317.882812 230.632812 314.996094 227.070312 314.996094 C 223.507812 314.996094 220.621094 317.882812 220.621094 321.441406 L 220.621094 340.394531 C 220.621094 343.953125 223.507812 346.84375 227.070312 346.84375 Z M 227.070312 346.84375 " fill-opacity="1" fill-rule="nonzero"/><path fill="#ffffff" d="M 289.128906 346.84375 C 292.691406 346.84375 295.574219 343.957031 295.574219 340.394531 L 295.574219 321.441406 C 295.574219 317.882812 292.691406 314.996094 289.128906 314.996094 C 285.5625 314.996094 282.679688 317.882812 282.679688 321.441406 L 282.679688 340.394531 C 282.679688 343.953125 285.566406 346.84375 289.128906 346.84375 Z M 289.128906 346.84375 " fill-opacity="1" fill-rule="nonzero"/><path fill="#ffffff" d="M 351.195312 346.84375 C 354.757812 346.84375 357.640625 343.957031 357.640625 340.394531 L 357.640625 321.441406 C 357.640625 317.882812 354.757812 314.996094 351.195312 314.996094 C 347.628906 314.996094 344.746094 317.882812 344.746094 321.441406 L 344.746094 340.394531 C 344.746094 343.953125 347.628906 346.84375 351.195312 346.84375 Z M 351.195312 346.84375 " fill-opacity="1" fill-rule="nonzero"/></svg>