<?xml version="1.0" encoding="UTF-8"?>
<svg xmlns="http://www.w3.org/2000/svg" xmlns:xlink="http://www.w3.org/1999/xlink" width="60px" height="60px" viewBox="0 0 60 60" version="1.1">
<g id="surface1">
<path style=" stroke:none;fill-rule:nonzero;fill:rgb(39.215687%,73.725492%,24.313726%);fill-opacity:1;" d="M 11.363281 33.257812 C 11.839844 33.257812 12.226562 32.871094 12.226562 32.398438 L 12.226562 21.292969 C 12.226562 20.105469 12.816406 19.007812 13.808594 18.355469 C 14.53125 17.875 15.125 17.226562 15.535156 16.472656 C 15.945312 15.714844 16.160156 14.855469 16.160156 13.992188 L 16.160156 12.738281 L 19 12.738281 L 19 13.984375 C 19 15.753906 19.878906 17.390625 21.347656 18.355469 C 22.292969 18.972656 22.9375 20.054688 22.9375 21.292969 L 22.9375 32.378906 C 22.9375 32.855469 23.320312 33.238281 23.796875 33.238281 C 24.269531 33.238281 24.65625 32.855469 24.65625 32.378906 L 24.65625 21.292969 C 24.65625 19.480469 23.726562 17.855469 22.289062 16.917969 C 21.304688 16.273438 20.71875 15.175781 20.71875 13.984375 C 20.71875 13.898438 20.710938 9.414062 20.710938 9.699219 C 20.710938 8.496094 19.734375 7.515625 18.53125 7.515625 L 16.621094 7.515625 C 15.417969 7.515625 14.441406 8.496094 14.441406 9.699219 C 14.441406 9.785156 14.441406 14.277344 14.441406 13.992188 C 14.441406 14.570312 14.296875 15.144531 14.023438 15.65625 C 13.75 16.160156 13.347656 16.597656 12.863281 16.917969 C 11.386719 17.890625 10.503906 19.523438 10.503906 21.292969 L 10.503906 32.398438 C 10.503906 32.871094 10.890625 33.257812 11.363281 33.257812 Z M 16.160156 9.699219 C 16.160156 9.441406 16.367188 9.234375 16.621094 9.234375 L 18.53125 9.234375 C 18.785156 9.234375 18.992188 9.441406 18.992188 9.699219 L 18.992188 11.015625 L 16.160156 11.015625 Z M 16.160156 9.699219 "/>
<path style=" stroke:none;fill-rule:nonzero;fill:rgb(39.215687%,73.725492%,24.313726%);fill-opacity:1;" d="M 29.050781 33.238281 C 29.523438 33.238281 29.910156 32.855469 29.910156 32.378906 L 29.910156 21.292969 C 29.910156 20.105469 30.5 19.007812 31.492188 18.355469 C 32.214844 17.875 32.808594 17.226562 33.21875 16.472656 C 33.628906 15.710938 33.847656 14.855469 33.847656 13.992188 L 33.847656 12.738281 L 36.683594 12.738281 L 36.683594 13.984375 C 36.683594 15.757812 37.5625 17.394531 39.035156 18.355469 C 39.523438 18.675781 39.925781 19.117188 40.203125 19.632812 C 40.476562 20.132812 40.621094 20.707031 40.621094 21.292969 L 40.621094 32.378906 C 40.621094 32.855469 41.003906 33.238281 41.480469 33.238281 C 41.953125 33.238281 42.339844 32.855469 42.339844 32.378906 L 42.339844 21.292969 C 42.339844 20.417969 42.121094 19.558594 41.714844 18.8125 C 41.308594 18.054688 40.710938 17.398438 39.980469 16.917969 C 38.992188 16.273438 38.402344 15.175781 38.402344 13.984375 C 38.402344 13.898438 38.394531 9.414062 38.398438 9.699219 C 38.398438 8.496094 37.417969 7.515625 36.214844 7.515625 L 34.308594 7.515625 C 33.105469 7.515625 32.125 8.496094 32.125 9.699219 C 32.125 9.859375 32.125 14.144531 32.125 13.992188 C 32.125 14.570312 31.980469 15.144531 31.707031 15.65625 C 31.433594 16.160156 31.03125 16.597656 30.546875 16.917969 C 29.070312 17.890625 28.1875 19.523438 28.1875 21.289062 L 28.1875 32.378906 C 28.191406 32.855469 28.574219 33.238281 29.050781 33.238281 Z M 33.847656 9.699219 C 33.847656 9.441406 34.054688 9.234375 34.308594 9.234375 L 36.214844 9.234375 C 36.46875 9.234375 36.675781 9.441406 36.675781 9.699219 L 36.675781 11.015625 L 33.847656 11.015625 Z M 33.847656 9.699219 "/>
<path style=" stroke:none;fill-rule:nonzero;fill:rgb(39.215687%,73.725492%,24.313726%);fill-opacity:1;" d="M 11.929688 53.285156 L 48.621094 53.285156 C 53.675781 53.285156 57.785156 49.175781 57.785156 44.121094 C 57.785156 39.070312 53.675781 34.960938 48.621094 34.960938 L 11.929688 34.960938 C 6.878906 34.960938 2.765625 39.070312 2.765625 44.121094 C 2.765625 49.175781 6.878906 53.285156 11.929688 53.285156 Z M 11.929688 36.679688 L 48.621094 36.679688 C 52.726562 36.679688 56.066406 40.019531 56.066406 44.121094 C 56.066406 48.226562 52.726562 51.566406 48.621094 51.566406 L 11.929688 51.566406 C 7.824219 51.566406 4.484375 48.226562 4.484375 44.121094 C 4.484375 40.019531 7.824219 36.679688 11.929688 36.679688 Z M 11.929688 36.679688 "/>
<path style=" stroke:none;fill-rule:nonzero;fill:rgb(0%,0%,0%);fill-opacity:1;" d="M 13.726562 46.246094 C 14.199219 46.246094 14.585938 45.859375 14.585938 45.386719 L 14.585938 42.859375 C 14.585938 42.382812 14.199219 42 13.726562 42 C 13.25 42 12.863281 42.382812 12.863281 42.859375 L 12.863281 45.386719 C 12.863281 45.859375 13.25 46.246094 13.726562 46.246094 Z M 13.726562 46.246094 "/>
<path style=" stroke:none;fill-rule:nonzero;fill:rgb(0%,0%,0%);fill-opacity:1;" d="M 22 46.246094 C 22.476562 46.246094 22.859375 45.859375 22.859375 45.386719 L 22.859375 42.859375 C 22.859375 42.382812 22.476562 42 22 42 C 21.527344 42 21.140625 42.382812 21.140625 42.859375 L 21.140625 45.386719 C 21.140625 45.859375 21.527344 46.246094 22 46.246094 Z M 22 46.246094 "/>
<path style=" stroke:none;fill-rule:nonzero;fill:rgb(0%,0%,0%);fill-opacity:1;" d="M 30.277344 46.246094 C 30.75 46.246094 31.136719 45.859375 31.136719 45.386719 L 31.136719 42.859375 C 31.136719 42.382812 30.75 42 30.277344 42 C 29.800781 42 29.417969 42.382812 29.417969 42.859375 L 29.417969 45.386719 C 29.417969 45.859375 29.800781 46.246094 30.277344 46.246094 Z M 30.277344 46.246094 "/>
<path style=" stroke:none;fill-rule:nonzero;fill:rgb(0%,0%,0%);fill-opacity:1;" d="M 38.550781 46.246094 C 39.027344 46.246094 39.410156 45.859375 39.410156 45.386719 L 39.410156 42.859375 C 39.410156 42.382812 39.027344 42 38.550781 42 C 38.074219 42 37.691406 42.382812 37.691406 42.859375 L 37.691406 45.386719 C 37.691406 45.859375 38.074219 46.246094 38.550781 46.246094 Z M 38.550781 46.246094 "/>
<path style=" stroke:none;fill-rule:nonzero;fill:rgb(0%,0%,0%);fill-opacity:1;" d="M 46.824219 46.246094 C 47.300781 46.246094 47.683594 45.859375 47.683594 45.386719 L 47.683594 42.859375 C 47.683594 42.382812 47.300781 42 46.824219 42 C 46.351562 42 45.964844 42.382812 45.964844 42.859375 L 45.964844 45.386719 C 45.964844 45.859375 46.351562 46.246094 46.824219 46.246094 Z M 46.824219 46.246094 "/>
</g>
</svg>
