<?xml version="1.0" encoding="UTF-8"?>
<svg xmlns="http://www.w3.org/2000/svg" xmlns:xlink="http://www.w3.org/1999/xlink" width="40px" height="40px" viewBox="0 0 40 40" version="1.1">
<defs>
<clipPath id="clip1">
  <path d="M 0.621094 13.820312 L 39.289062 13.820312 L 39.289062 16.421875 L 0.621094 16.421875 Z M 0.621094 13.820312 "/>
</clipPath>
</defs>
<g id="surface1">
<path style=" stroke:none;fill-rule:nonzero;fill:rgb(29.411766%,65.490198%,8.235294%);fill-opacity:1;" d="M 9.996094 6.21875 C 10.351562 5.769531 10.890625 5.511719 11.460938 5.511719 L 15.730469 5.511719 L 12.25 13.875 L 3.84375 13.875 Z M 30.082031 6.21875 L 36.234375 13.875 L 27.832031 13.875 L 24.347656 5.511719 L 28.617188 5.511719 C 29.1875 5.511719 29.726562 5.769531 30.082031 6.21875 Z M 27.902344 16.554688 L 35.96875 16.554688 L 23.296875 30.289062 Z M 25.082031 16.554688 L 20.039062 31.582031 L 15 16.554688 Z M 21.449219 5.511719 L 24.933594 13.875 L 15.144531 13.875 L 18.632812 5.511719 Z M 12.179688 16.554688 L 16.78125 30.289062 L 4.109375 16.554688 Z M 39.054688 13.117188 L 31.769531 4.042969 C 31.160156 3.28125 30.234375 2.835938 29.257812 2.835938 L 22.347656 2.835938 C 22.347656 2.835938 22.34375 2.835938 22.339844 2.835938 L 17.738281 2.835938 C 17.734375 2.835938 17.730469 2.835938 17.730469 2.835938 L 10.820312 2.835938 C 9.84375 2.835938 8.921875 3.28125 8.308594 4.039062 L 1.023438 13.117188 C 0.0273438 14.355469 0.0859375 16.140625 1.167969 17.3125 L 19.054688 36.699219 C 19.113281 36.761719 19.179688 36.816406 19.25 36.867188 C 19.253906 36.871094 19.257812 36.875 19.257812 36.875 C 19.363281 36.949219 19.46875 37 19.582031 37.042969 C 19.613281 37.050781 19.640625 37.0625 19.667969 37.070312 C 19.789062 37.105469 19.914062 37.128906 20.039062 37.128906 C 20.164062 37.128906 20.289062 37.105469 20.410156 37.070312 C 20.4375 37.0625 20.464844 37.050781 20.496094 37.042969 C 20.609375 37 20.71875 36.949219 20.820312 36.875 C 20.820312 36.875 20.824219 36.871094 20.832031 36.867188 C 20.898438 36.816406 20.964844 36.761719 21.023438 36.699219 L 38.910156 17.3125 C 39.992188 16.140625 40.054688 14.355469 39.054688 13.117188 "/>
<g clip-path="url(#clip1)" clip-rule="nonzero">
<path style=" stroke:none;fill-rule:nonzero;fill:rgb(0%,0%,0%);fill-opacity:1;" d="M 37.949219 13.820312 L 1.917969 13.820312 C 1.207031 13.820312 0.632812 14.402344 0.632812 15.121094 C 0.632812 15.839844 1.207031 16.421875 1.917969 16.421875 L 37.949219 16.421875 C 38.660156 16.421875 39.234375 15.839844 39.234375 15.121094 C 39.234375 14.402344 38.660156 13.820312 37.949219 13.820312 Z M 37.949219 13.820312 "/>
</g>
</g>
</svg>
