<?xml version="1.0" encoding="UTF-8"?>
<svg xmlns="http://www.w3.org/2000/svg" xmlns:xlink="http://www.w3.org/1999/xlink" width="60px" height="60px" viewBox="0 0 60 60" version="1.1">
<g id="surface1">
<path style=" stroke:none;fill-rule:nonzero;fill:rgb(39.215687%,73.725492%,24.313726%);fill-opacity:1;" d="M 48.316406 55.164062 C 48.535156 55.164062 48.753906 55.085938 48.925781 54.925781 C 49.28125 54.589844 49.300781 54.027344 48.964844 53.671875 C 40.886719 45.058594 39.042969 34.5625 38.304688 25.429688 C 38.15625 23.664062 36.710938 22.332031 34.941406 22.332031 L 24.789062 22.332031 C 23.039062 22.332031 21.566406 23.695312 21.433594 25.429688 C 20.695312 34.5625 18.851562 45.058594 10.765625 53.671875 C 10.429688 54.027344 10.445312 54.589844 10.804688 54.925781 C 11.160156 55.261719 11.722656 55.242188 12.058594 54.886719 C 20.519531 45.875 22.441406 35.011719 23.203125 25.570312 C 23.265625 24.75 23.960938 24.109375 24.785156 24.109375 L 34.941406 24.109375 C 35.78125 24.109375 36.464844 24.738281 36.53125 25.574219 C 37.296875 35.011719 39.214844 45.875 47.667969 54.886719 C 47.84375 55.070312 48.082031 55.164062 48.316406 55.164062 Z M 48.316406 55.164062 "/>
<path style=" stroke:none;fill-rule:nonzero;fill:rgb(39.215687%,73.725492%,24.313726%);fill-opacity:1;" d="M 2.214844 58.71875 L 57.519531 58.71875 C 58.011719 58.71875 58.410156 58.324219 58.410156 57.832031 C 58.410156 57.339844 58.011719 56.945312 57.519531 56.945312 L 2.214844 56.945312 C 1.722656 56.945312 1.324219 57.339844 1.324219 57.832031 C 1.324219 58.324219 1.722656 58.71875 2.214844 58.71875 Z M 2.214844 58.71875 "/>
<path style=" stroke:none;fill-rule:nonzero;fill:rgb(0%,0%,0%);fill-opacity:1;" d="M 52.648438 9.949219 C 52.648438 4.917969 46.9375 2.039062 42.878906 4.933594 C 39.996094 -0.167969 32.269531 1.589844 31.8125 7.355469 C 28.445312 8.640625 26.976562 12.511719 28.421875 15.675781 C 27.183594 16.371094 26.367188 17.703125 26.367188 19.171875 C 26.367188 19.660156 26.761719 20.058594 27.253906 20.058594 C 27.742188 20.058594 28.140625 19.660156 28.140625 19.171875 C 28.140625 18.132812 28.875 17.21875 29.890625 16.996094 C 30.179688 16.933594 30.421875 16.730469 30.527344 16.453125 C 30.636719 16.175781 30.597656 15.863281 30.429688 15.621094 C 28.699219 13.152344 29.9375 9.652344 32.914062 8.863281 C 33.332031 8.753906 33.609375 8.34375 33.574219 7.914062 L 33.570312 7.824219 C 33.570312 3.074219 40.359375 2.09375 41.695312 6.660156 C 41.785156 6.972656 42.035156 7.207031 42.347656 7.277344 C 42.660156 7.351562 42.988281 7.246094 43.203125 7.007812 C 45.878906 4.039062 50.875 5.921875 50.875 9.949219 C 50.875 13.304688 47.257812 15.414062 44.355469 13.804688 C 44.097656 13.664062 43.792969 13.65625 43.53125 13.785156 C 43.269531 13.917969 43.089844 14.164062 43.046875 14.453125 C 42.914062 15.34375 42.316406 16.019531 41.441406 16.261719 C 40.558594 16.507812 39.683594 16.230469 39.101562 15.523438 C 38.925781 15.308594 38.660156 15.183594 38.378906 15.203125 C 38.097656 15.214844 37.839844 15.355469 37.683594 15.589844 C 36.753906 16.953125 35.117188 17.695312 33.507812 17.476562 C 33.007812 17.414062 32.574219 17.753906 32.507812 18.238281 C 32.441406 18.722656 32.785156 19.171875 33.269531 19.238281 C 35.203125 19.5 37.160156 18.78125 38.507812 17.378906 C 39.480469 18.078125 40.710938 18.308594 41.917969 17.972656 C 43.085938 17.644531 44.003906 16.851562 44.484375 15.800781 C 48.460938 17.160156 52.648438 14.1875 52.648438 9.949219 Z M 52.648438 9.949219 "/>
<path style=" stroke:none;fill-rule:nonzero;fill:rgb(39.215687%,73.725492%,24.313726%);fill-opacity:1;" d="M 29.023438 34.945312 L 29.023438 38.652344 C 29.023438 39.140625 29.421875 39.539062 29.910156 39.539062 C 30.402344 39.539062 30.800781 39.140625 30.800781 38.652344 L 30.800781 34.945312 C 30.800781 34.453125 30.402344 34.054688 29.910156 34.054688 C 29.421875 34.054688 29.023438 34.453125 29.023438 34.945312 Z M 29.023438 34.945312 "/>
<path style=" stroke:none;fill-rule:nonzero;fill:rgb(39.215687%,73.725492%,24.313726%);fill-opacity:1;" d="M 26.203125 43.433594 L 22.992188 45.285156 C 22.566406 45.53125 22.421875 46.074219 22.667969 46.5 C 22.914062 46.925781 23.460938 47.066406 23.878906 46.824219 L 27.089844 44.972656 C 27.515625 44.726562 27.660156 44.183594 27.414062 43.757812 C 27.171875 43.335938 26.625 43.1875 26.203125 43.433594 Z M 26.203125 43.433594 "/>
<path style=" stroke:none;fill-rule:nonzero;fill:rgb(39.215687%,73.725492%,24.313726%);fill-opacity:1;" d="M 33.53125 43.484375 C 33.105469 43.238281 32.5625 43.382812 32.320312 43.808594 C 32.074219 44.234375 32.21875 44.777344 32.644531 45.023438 L 35.851562 46.875 C 36.277344 47.121094 36.820312 46.976562 37.066406 46.550781 C 37.3125 46.125 37.164062 45.582031 36.742188 45.335938 Z M 33.53125 43.484375 "/>
</g>
</svg>
