<?xml version="1.0" encoding="UTF-8"?>
<svg xmlns="http://www.w3.org/2000/svg" xmlns:xlink="http://www.w3.org/1999/xlink" width="50px" height="50px" viewBox="0 0 50 50" version="1.1">
<g id="surface1">
<path style=" stroke:none;fill-rule:nonzero;fill:rgb(39.215687%,73.725492%,24.313726%);fill-opacity:1;" d="M 9.472656 27.714844 C 9.867188 27.714844 10.1875 27.394531 10.1875 26.996094 L 10.1875 17.742188 C 10.1875 16.753906 10.679688 15.839844 11.507812 15.292969 C 12.109375 14.898438 12.605469 14.355469 12.945312 13.726562 C 13.289062 13.09375 13.46875 12.378906 13.46875 11.660156 L 13.46875 10.613281 L 15.832031 10.613281 L 15.832031 11.652344 C 15.832031 13.128906 16.5625 14.492188 17.789062 15.296875 C 18.578125 15.8125 19.113281 16.710938 19.113281 17.742188 L 19.113281 26.984375 C 19.113281 27.378906 19.433594 27.699219 19.828125 27.699219 C 20.226562 27.699219 20.546875 27.378906 20.546875 26.984375 L 20.546875 17.742188 C 20.546875 16.234375 19.773438 14.878906 18.574219 14.097656 C 17.753906 13.558594 17.265625 12.644531 17.265625 11.652344 C 17.265625 11.582031 17.257812 7.84375 17.261719 8.082031 C 17.261719 7.078125 16.445312 6.261719 15.441406 6.261719 L 13.851562 6.261719 C 12.847656 6.261719 12.035156 7.078125 12.035156 8.082031 C 12.035156 8.152344 12.035156 11.894531 12.035156 11.660156 C 12.035156 12.140625 11.914062 12.621094 11.683594 13.046875 C 11.457031 13.46875 11.121094 13.832031 10.71875 14.097656 C 9.488281 14.90625 8.753906 16.269531 8.753906 17.742188 L 8.753906 26.996094 C 8.753906 27.394531 9.074219 27.714844 9.472656 27.714844 Z M 13.46875 8.082031 C 13.46875 7.867188 13.640625 7.695312 13.851562 7.695312 L 15.441406 7.695312 C 15.65625 7.695312 15.828125 7.867188 15.828125 8.082031 L 15.828125 9.179688 L 13.46875 9.179688 Z M 13.46875 8.082031 "/>
<path style=" stroke:none;fill-rule:nonzero;fill:rgb(39.215687%,73.725492%,24.313726%);fill-opacity:1;" d="M 24.207031 27.699219 C 24.601562 27.699219 24.925781 27.378906 24.925781 26.984375 L 24.925781 17.742188 C 24.925781 16.753906 25.417969 15.839844 26.242188 15.292969 C 26.84375 14.898438 27.339844 14.355469 27.683594 13.726562 C 28.023438 13.09375 28.203125 12.378906 28.203125 11.660156 L 28.203125 10.613281 L 30.570312 10.613281 L 30.570312 11.652344 C 30.570312 13.132812 31.304688 14.496094 32.53125 15.296875 C 32.9375 15.5625 33.269531 15.929688 33.5 16.359375 C 33.730469 16.777344 33.851562 17.253906 33.851562 17.742188 L 33.851562 26.984375 C 33.851562 27.378906 34.171875 27.699219 34.566406 27.699219 C 34.960938 27.699219 35.28125 27.378906 35.28125 26.984375 L 35.28125 17.742188 C 35.28125 17.015625 35.101562 16.300781 34.761719 15.679688 C 34.421875 15.046875 33.925781 14.5 33.316406 14.097656 C 32.492188 13.558594 32 12.644531 32 11.652344 C 32 11.582031 31.996094 7.84375 31.996094 8.082031 C 31.996094 7.078125 31.183594 6.261719 30.179688 6.261719 L 28.589844 6.261719 C 27.585938 6.261719 26.773438 7.078125 26.773438 8.082031 C 26.773438 8.21875 26.773438 11.789062 26.773438 11.660156 C 26.773438 12.140625 26.652344 12.621094 26.421875 13.046875 C 26.195312 13.46875 25.859375 13.832031 25.453125 14.097656 C 24.226562 14.90625 23.492188 16.269531 23.492188 17.742188 L 23.492188 26.984375 C 23.492188 27.378906 23.8125 27.699219 24.207031 27.699219 Z M 28.203125 8.082031 C 28.203125 7.867188 28.378906 7.695312 28.589844 7.695312 L 30.179688 7.695312 C 30.390625 7.695312 30.566406 7.867188 30.566406 8.082031 L 30.566406 9.179688 L 28.203125 9.179688 Z M 28.203125 8.082031 "/>
<path style=" stroke:none;fill-rule:nonzero;fill:rgb(39.215687%,73.725492%,24.313726%);fill-opacity:1;" d="M 9.941406 44.40625 L 40.519531 44.40625 C 44.730469 44.40625 48.152344 40.980469 48.152344 36.769531 C 48.152344 32.558594 44.730469 29.132812 40.519531 29.132812 L 9.941406 29.132812 C 5.730469 29.132812 2.304688 32.558594 2.304688 36.769531 C 2.304688 40.980469 5.730469 44.40625 9.941406 44.40625 Z M 9.941406 30.566406 L 40.519531 30.566406 C 43.9375 30.566406 46.722656 33.347656 46.722656 36.769531 C 46.722656 40.1875 43.9375 42.972656 40.519531 42.972656 L 9.941406 42.972656 C 6.519531 42.972656 3.738281 40.1875 3.738281 36.769531 C 3.738281 33.347656 6.519531 30.566406 9.941406 30.566406 Z M 9.941406 30.566406 "/>
<path style=" stroke:none;fill-rule:nonzero;fill:rgb(0%,0%,0%);fill-opacity:1;" d="M 11.4375 38.539062 C 11.832031 38.539062 12.152344 38.21875 12.152344 37.820312 L 12.152344 35.714844 C 12.152344 35.320312 11.832031 35 11.4375 35 C 11.042969 35 10.722656 35.320312 10.722656 35.714844 L 10.722656 37.820312 C 10.722656 38.21875 11.042969 38.539062 11.4375 38.539062 Z M 11.4375 38.539062 "/>
<path style=" stroke:none;fill-rule:nonzero;fill:rgb(0%,0%,0%);fill-opacity:1;" d="M 18.332031 38.539062 C 18.730469 38.539062 19.050781 38.21875 19.050781 37.820312 L 19.050781 35.714844 C 19.050781 35.320312 18.730469 35 18.332031 35 C 17.9375 35 17.617188 35.320312 17.617188 35.714844 L 17.617188 37.820312 C 17.617188 38.21875 17.9375 38.539062 18.332031 38.539062 Z M 18.332031 38.539062 "/>
<path style=" stroke:none;fill-rule:nonzero;fill:rgb(0%,0%,0%);fill-opacity:1;" d="M 25.230469 38.539062 C 25.625 38.539062 25.945312 38.21875 25.945312 37.820312 L 25.945312 35.714844 C 25.945312 35.320312 25.625 35 25.230469 35 C 24.835938 35 24.511719 35.320312 24.511719 35.714844 L 24.511719 37.820312 C 24.511719 38.21875 24.835938 38.539062 25.230469 38.539062 Z M 25.230469 38.539062 "/>
<path style=" stroke:none;fill-rule:nonzero;fill:rgb(0%,0%,0%);fill-opacity:1;" d="M 32.125 38.539062 C 32.519531 38.539062 32.839844 38.21875 32.839844 37.820312 L 32.839844 35.714844 C 32.839844 35.320312 32.519531 35 32.125 35 C 31.730469 35 31.410156 35.320312 31.410156 35.714844 L 31.410156 37.820312 C 31.410156 38.21875 31.730469 38.539062 32.125 38.539062 Z M 32.125 38.539062 "/>
<path style=" stroke:none;fill-rule:nonzero;fill:rgb(0%,0%,0%);fill-opacity:1;" d="M 39.023438 38.539062 C 39.417969 38.539062 39.738281 38.21875 39.738281 37.820312 L 39.738281 35.714844 C 39.738281 35.320312 39.417969 35 39.023438 35 C 38.625 35 38.304688 35.320312 38.304688 35.714844 L 38.304688 37.820312 C 38.304688 38.21875 38.625 38.539062 39.023438 38.539062 Z M 39.023438 38.539062 "/>
</g>
</svg>
