<?xml version="1.0" encoding="UTF-8"?>
<svg xmlns="http://www.w3.org/2000/svg" xmlns:xlink="http://www.w3.org/1999/xlink" width="60px" height="61px" viewBox="0 0 60 61" version="1.1">
<g id="surface1">
<path style=" stroke:none;fill-rule:nonzero;fill:rgb(39.215687%,73.725492%,24.313726%);fill-opacity:1;" d="M 56.085938 47.082031 L 54.652344 47.082031 L 50.582031 21.222656 C 51.5625 20.921875 52.28125 20.011719 52.28125 18.921875 C 52.28125 17.589844 51.210938 16.503906 49.898438 16.503906 L 39.144531 16.503906 C 38.730469 16.503906 38.398438 16.84375 38.398438 17.261719 C 38.398438 17.679688 38.730469 18.019531 39.144531 18.019531 L 49.898438 18.019531 C 50.390625 18.019531 50.792969 18.425781 50.792969 18.921875 C 50.792969 19.417969 50.390625 19.820312 49.898438 19.820312 L 39.667969 19.820312 C 39.257812 19.820312 38.921875 20.160156 38.921875 20.578125 C 38.921875 20.996094 39.257812 21.335938 39.667969 21.335938 L 49.089844 21.335938 L 53.144531 47.078125 C 52.128906 47.078125 57.125 47.078125 41.554688 47.082031 L 36.46875 14.636719 C 37.683594 14.339844 38.59375 13.230469 38.59375 11.90625 C 38.59375 10.355469 37.351562 9.089844 35.824219 9.089844 L 11.074219 9.089844 C 9.550781 9.089844 8.308594 10.355469 8.308594 11.90625 C 8.308594 13.230469 9.214844 14.339844 10.429688 14.636719 L 5.347656 47.082031 L 3.914062 47.082031 C 2.4375 47.082031 1.238281 48.300781 1.238281 49.800781 C 1.238281 51.300781 2.4375 52.523438 3.914062 52.523438 L 56.085938 52.523438 C 57.558594 52.523438 58.761719 51.300781 58.761719 49.800781 C 58.761719 48.300781 57.558594 47.082031 56.085938 47.082031 Z M 9.796875 11.90625 C 9.796875 11.191406 10.371094 10.605469 11.074219 10.605469 L 35.824219 10.605469 C 36.527344 10.605469 37.101562 11.191406 37.101562 11.90625 C 37.101562 12.625 36.527344 13.207031 35.824219 13.207031 C 27.332031 13.207031 19.671875 13.207031 11.074219 13.207031 C 10.371094 13.207031 9.796875 12.625 9.796875 11.90625 Z M 11.925781 14.722656 L 34.972656 14.722656 L 40.046875 47.082031 L 6.855469 47.082031 Z M 56.085938 51.007812 L 3.914062 51.007812 C 3.261719 51.007812 2.726562 50.464844 2.726562 49.800781 C 2.726562 49.136719 3.257812 48.59375 3.914062 48.59375 L 56.085938 48.59375 C 56.738281 48.59375 57.269531 49.136719 57.269531 49.800781 C 57.269531 50.464844 56.738281 51.007812 56.085938 51.007812 Z M 56.085938 51.007812 "/>
<path style=" stroke:none;fill-rule:nonzero;fill:rgb(13.333334%,13.333334%,13.333334%);fill-opacity:1;" d="M 22.851562 22.449219 C 22.28125 23.234375 17.285156 30.191406 17.285156 33.394531 C 17.285156 36.847656 20.050781 39.660156 23.445312 39.660156 C 26.847656 39.660156 29.617188 36.847656 29.617188 33.394531 C 29.617188 30.191406 24.621094 23.234375 24.050781 22.449219 C 23.769531 22.0625 23.132812 22.0625 22.851562 22.449219 Z M 23.445312 38.144531 C 20.871094 38.144531 18.773438 36.015625 18.773438 33.394531 C 18.773438 31.371094 21.746094 26.660156 23.449219 24.195312 C 25.15625 26.660156 28.125 31.367188 28.125 33.394531 C 28.125 36.015625 26.027344 38.144531 23.445312 38.144531 Z M 23.445312 38.144531 "/>
</g>
</svg>
