<?xml version="1.0" encoding="UTF-8"?>
<svg xmlns="http://www.w3.org/2000/svg" xmlns:xlink="http://www.w3.org/1999/xlink" width="50px" height="50px" viewBox="0 0 50 50" version="1.1">
<g id="surface1">
<path style=" stroke:none;fill-rule:nonzero;fill:rgb(39.215687%,73.725492%,24.313726%);fill-opacity:1;" d="M 40.265625 45.972656 C 40.445312 45.972656 40.628906 45.90625 40.769531 45.769531 C 41.066406 45.492188 41.082031 45.023438 40.804688 44.726562 C 34.070312 37.546875 32.535156 28.800781 31.917969 21.191406 C 31.796875 19.71875 30.59375 18.609375 29.117188 18.609375 L 20.65625 18.609375 C 19.199219 18.609375 17.972656 19.746094 17.863281 21.191406 C 17.246094 28.800781 15.707031 37.550781 8.96875 44.726562 C 8.691406 45.023438 8.707031 45.492188 9.003906 45.769531 C 9.300781 46.050781 9.769531 46.035156 10.046875 45.738281 C 17.101562 38.230469 18.699219 29.175781 19.335938 21.308594 C 19.390625 20.625 19.96875 20.089844 20.65625 20.089844 L 29.117188 20.089844 C 29.816406 20.089844 30.386719 20.617188 30.445312 21.3125 C 31.082031 29.175781 32.679688 38.226562 39.722656 45.738281 C 39.871094 45.894531 40.066406 45.972656 40.265625 45.972656 Z M 40.265625 45.972656 "/>
<path style=" stroke:none;fill-rule:nonzero;fill:rgb(39.215687%,73.725492%,24.313726%);fill-opacity:1;" d="M 1.84375 48.933594 L 47.933594 48.933594 C 48.34375 48.933594 48.671875 48.601562 48.671875 48.191406 C 48.671875 47.785156 48.34375 47.453125 47.933594 47.453125 L 1.84375 47.453125 C 1.4375 47.453125 1.105469 47.785156 1.105469 48.191406 C 1.105469 48.601562 1.4375 48.933594 1.84375 48.933594 Z M 1.84375 48.933594 "/>
<path style=" stroke:none;fill-rule:nonzero;fill:rgb(0%,0%,0%);fill-opacity:1;" d="M 43.875 8.289062 C 43.875 4.097656 39.113281 1.699219 35.730469 4.109375 C 33.332031 -0.140625 26.890625 1.324219 26.511719 6.128906 C 23.707031 7.203125 22.480469 10.425781 23.6875 13.0625 C 22.65625 13.644531 21.972656 14.753906 21.972656 15.976562 C 21.972656 16.382812 22.300781 16.714844 22.710938 16.714844 C 23.121094 16.714844 23.449219 16.382812 23.449219 15.976562 C 23.449219 15.113281 24.0625 14.347656 24.910156 14.164062 C 25.152344 14.109375 25.351562 13.941406 25.441406 13.710938 C 25.53125 13.480469 25.5 13.21875 25.355469 13.015625 C 23.914062 10.960938 24.949219 8.042969 27.429688 7.386719 C 27.777344 7.296875 28.007812 6.953125 27.976562 6.597656 L 27.976562 6.523438 C 27.976562 2.5625 33.632812 1.746094 34.746094 5.550781 C 34.820312 5.808594 35.027344 6.007812 35.289062 6.066406 C 35.550781 6.125 35.824219 6.039062 36.003906 5.839844 C 38.234375 3.367188 42.394531 4.933594 42.394531 8.289062 C 42.394531 11.085938 39.382812 12.84375 36.960938 11.503906 C 36.75 11.386719 36.492188 11.382812 36.277344 11.488281 C 36.058594 11.597656 35.90625 11.804688 35.871094 12.042969 C 35.761719 12.785156 35.261719 13.347656 34.535156 13.550781 C 33.796875 13.757812 33.070312 13.527344 32.585938 12.9375 C 32.4375 12.757812 32.214844 12.652344 31.980469 12.667969 C 31.75 12.679688 31.535156 12.796875 31.402344 12.988281 C 30.625 14.125 29.261719 14.746094 27.921875 14.5625 C 27.507812 14.511719 27.144531 14.792969 27.089844 15.199219 C 27.035156 15.601562 27.320312 15.976562 27.722656 16.03125 C 29.335938 16.25 30.96875 15.652344 32.089844 14.484375 C 32.898438 15.066406 33.925781 15.257812 34.929688 14.976562 C 35.90625 14.703125 36.671875 14.042969 37.070312 13.167969 C 40.382812 14.300781 43.875 11.824219 43.875 8.289062 Z M 43.875 8.289062 "/>
<path style=" stroke:none;fill-rule:nonzero;fill:rgb(39.215687%,73.725492%,24.313726%);fill-opacity:1;" d="M 24.1875 29.121094 L 24.1875 32.207031 C 24.1875 32.617188 24.515625 32.949219 24.925781 32.949219 C 25.335938 32.949219 25.664062 32.617188 25.664062 32.207031 L 25.664062 29.121094 C 25.664062 28.710938 25.335938 28.378906 24.925781 28.378906 C 24.515625 28.378906 24.1875 28.710938 24.1875 29.121094 Z M 24.1875 29.121094 "/>
<path style=" stroke:none;fill-rule:nonzero;fill:rgb(39.215687%,73.725492%,24.313726%);fill-opacity:1;" d="M 21.835938 36.195312 L 19.160156 37.738281 C 18.804688 37.945312 18.683594 38.394531 18.890625 38.75 C 19.097656 39.105469 19.550781 39.222656 19.898438 39.019531 L 22.574219 37.476562 C 22.929688 37.273438 23.050781 36.820312 22.847656 36.464844 C 22.640625 36.113281 22.1875 35.992188 21.835938 36.195312 Z M 21.835938 36.195312 "/>
<path style=" stroke:none;fill-rule:nonzero;fill:rgb(39.215687%,73.725492%,24.313726%);fill-opacity:1;" d="M 27.941406 36.238281 C 27.589844 36.03125 27.136719 36.152344 26.933594 36.507812 C 26.726562 36.863281 26.847656 37.3125 27.203125 37.519531 L 29.878906 39.0625 C 30.230469 39.265625 30.683594 39.144531 30.886719 38.792969 C 31.09375 38.4375 30.972656 37.984375 30.617188 37.78125 Z M 27.941406 36.238281 "/>
</g>
</svg>
