<svg xmlns="http://www.w3.org/2000/svg" xmlns:xlink="http://www.w3.org/1999/xlink" width="600" zoomAndPan="magnify" viewBox="0 0 450 449.999984" height="600" preserveAspectRatio="xMidYMid meet" version="1.0"><path fill="#64bc3e" d="M 195.699219 102.554688 C 187.375 102.554688 180.367188 109.078125 179.886719 117.496094 C 179.886719 117.5 179.886719 117.503906 179.882812 117.511719 L 176.882812 170.183594 C 176.710938 173.273438 179.066406 175.917969 182.152344 176.09375 C 185.28125 176.285156 187.886719 173.910156 188.0625 170.824219 L 189.289062 149.355469 L 233.394531 149.355469 L 238.246094 234.378906 C 238.414062 237.359375 240.882812 239.660156 243.832031 239.660156 C 243.9375 239.660156 244.042969 239.65625 244.152344 239.648438 C 247.238281 239.472656 249.597656 236.828125 249.425781 233.742188 C 241.984375 102.8125 243.644531 132.042969 242.816406 117.496094 C 242.351562 109.28125 235.539062 102.554688 227.003906 102.554688 Z M 189.929688 138.15625 L 191.066406 118.144531 C 191.21875 115.570312 193.472656 113.761719 195.6875 113.757812 L 226.996094 113.757812 C 229.464844 113.757812 231.492188 115.667969 231.617188 118.148438 L 232.757812 138.15625 Z M 189.929688 138.15625 " fill-opacity="1" fill-rule="nonzero"/><path fill="#ffffff" d="M 364.050781 346.941406 L 385.546875 346.941406 C 392.140625 346.941406 397.507812 341.578125 397.507812 334.984375 L 397.507812 313.488281 C 397.507812 306.890625 392.140625 301.527344 385.546875 301.527344 L 364.050781 301.527344 C 357.457031 301.527344 352.089844 306.890625 352.089844 313.488281 L 352.089844 334.984375 C 352.089844 341.578125 357.457031 346.941406 364.050781 346.941406 Z M 363.289062 313.484375 C 363.289062 313.066406 363.632812 312.722656 364.050781 312.722656 L 385.546875 312.722656 C 385.964844 312.722656 386.308594 313.066406 386.308594 313.484375 L 386.308594 334.980469 C 386.308594 335.402344 385.964844 335.742188 385.546875 335.742188 L 364.050781 335.742188 C 363.628906 335.742188 363.289062 335.402344 363.289062 334.980469 Z M 363.289062 313.484375 " fill-opacity="1" fill-rule="nonzero"/><path fill="#ffffff" d="M 294.449219 346.941406 L 315.945312 346.941406 C 322.539062 346.941406 327.90625 341.578125 327.90625 334.984375 L 327.90625 313.488281 C 327.90625 306.890625 322.539062 301.527344 315.945312 301.527344 L 294.449219 301.527344 C 287.855469 301.527344 282.488281 306.890625 282.488281 313.488281 L 282.488281 334.984375 C 282.488281 341.578125 287.855469 346.941406 294.449219 346.941406 Z M 293.6875 313.484375 C 293.6875 313.066406 294.027344 312.722656 294.449219 312.722656 L 315.945312 312.722656 C 316.363281 312.722656 316.707031 313.066406 316.707031 313.484375 L 316.707031 334.980469 C 316.707031 335.402344 316.363281 335.742188 315.945312 335.742188 L 294.449219 335.742188 C 294.027344 335.742188 293.6875 335.402344 293.6875 334.980469 Z M 293.6875 313.484375 " fill-opacity="1" fill-rule="nonzero"/><path fill="#ffffff" d="M 246.335938 301.527344 L 224.839844 301.527344 C 218.242188 301.527344 212.878906 306.890625 212.878906 313.488281 L 212.878906 334.984375 C 212.878906 341.578125 218.242188 346.941406 224.839844 346.941406 L 246.335938 346.941406 C 252.929688 346.941406 258.296875 341.578125 258.296875 334.984375 L 258.296875 313.488281 C 258.296875 306.890625 252.929688 301.527344 246.335938 301.527344 Z M 247.097656 334.984375 C 247.097656 335.402344 246.753906 335.742188 246.335938 335.742188 L 224.839844 335.742188 C 224.421875 335.742188 224.078125 335.402344 224.078125 334.984375 L 224.078125 313.488281 C 224.078125 313.066406 224.421875 312.722656 224.839844 312.722656 L 246.335938 312.722656 C 246.753906 312.722656 247.097656 313.066406 247.097656 313.488281 Z M 247.097656 334.984375 " fill-opacity="1" fill-rule="nonzero"/><path fill="#64bc3e" d="M 206.382812 206.402344 C 206.382812 195.867188 197.8125 187.292969 187.273438 187.292969 L 65.144531 187.292969 C 54.605469 187.292969 46.03125 195.867188 46.03125 206.402344 L 46.03125 407.691406 L 35.683594 407.691406 C 27.070312 407.691406 20.0625 414.699219 20.0625 423.308594 C 20.0625 431.925781 27.070312 438.933594 35.683594 438.933594 L 421.339844 438.929688 C 429.953125 438.929688 436.960938 431.921875 436.960938 423.308594 C 436.960938 414.699219 429.953125 407.691406 421.339844 407.691406 L 415.203125 407.691406 L 415.203125 253.4375 C 415.203125 250.601562 413.832031 247.917969 411.535156 246.253906 C 409.242188 244.59375 406.257812 244.132812 403.574219 245.011719 L 345.597656 264.011719 L 345.597656 253.4375 C 345.597656 250.601562 344.226562 247.917969 341.933594 246.257812 C 339.636719 244.59375 336.65625 244.128906 333.96875 245.011719 L 275.988281 264.011719 L 275.988281 253.4375 C 275.988281 250.601562 274.621094 247.917969 272.328125 246.257812 C 270.027344 244.59375 267.050781 244.128906 264.363281 245.011719 L 206.382812 264.011719 Z M 57.230469 206.402344 C 57.230469 202.039062 60.78125 198.492188 65.144531 198.492188 L 187.273438 198.492188 C 191.636719 198.492188 195.1875 202.039062 195.1875 206.402344 L 195.1875 407.691406 L 161.890625 407.691406 L 161.890625 374.023438 C 161.890625 364.332031 154.011719 356.453125 144.324219 356.453125 L 108.097656 356.453125 C 98.40625 356.453125 90.527344 364.332031 90.527344 374.023438 L 90.527344 407.691406 L 57.230469 407.691406 Z M 150.695312 407.691406 L 101.722656 407.691406 L 101.722656 374.023438 C 101.722656 370.507812 104.582031 367.648438 108.097656 367.648438 L 144.324219 367.648438 C 147.835938 367.648438 150.695312 370.507812 150.695312 374.023438 Z M 425.761719 423.308594 C 425.761719 425.75 423.78125 427.734375 421.339844 427.734375 L 35.683594 427.734375 C 33.246094 427.734375 31.257812 425.75 31.257812 423.308594 C 31.257812 420.871094 33.246094 418.890625 35.683594 418.890625 L 421.339844 418.890625 C 423.78125 418.890625 425.761719 420.871094 425.761719 423.308594 Z M 404.003906 256.652344 L 404.003906 407.691406 L 345.597656 407.691406 L 345.597656 275.792969 Z M 334.398438 256.652344 L 334.398438 407.691406 L 275.988281 407.691406 L 275.988281 275.792969 Z M 206.386719 275.792969 L 264.792969 256.652344 L 264.792969 407.691406 L 206.386719 407.691406 Z M 206.386719 275.792969 " fill-opacity="1" fill-rule="nonzero"/><path fill="#64bc3e" d="M 86.914062 242.980469 L 165.492188 242.980469 C 174.675781 242.980469 182.144531 235.507812 182.144531 226.328125 C 182.144531 217.144531 174.671875 209.671875 165.492188 209.671875 L 86.914062 209.671875 C 77.734375 209.671875 70.265625 217.144531 70.265625 226.328125 C 70.265625 235.507812 77.734375 242.980469 86.914062 242.980469 Z M 86.914062 220.871094 L 165.492188 220.871094 C 168.5 220.871094 170.949219 223.316406 170.949219 226.328125 C 170.949219 229.335938 168.5 231.78125 165.492188 231.78125 L 86.914062 231.78125 C 83.910156 231.78125 81.460938 229.335938 81.460938 226.328125 C 81.460938 223.316406 83.90625 220.871094 86.914062 220.871094 Z M 86.914062 220.871094 " fill-opacity="1" fill-rule="nonzero"/><path fill="#64bc3e" d="M 83.273438 295.585938 L 105.265625 295.585938 C 112.449219 295.585938 118.292969 289.742188 118.292969 282.558594 L 118.292969 267.234375 C 118.292969 260.050781 112.449219 254.207031 105.265625 254.207031 L 83.273438 254.207031 C 76.089844 254.207031 70.246094 260.050781 70.246094 267.234375 L 70.246094 282.558594 C 70.246094 289.742188 76.089844 295.585938 83.273438 295.585938 Z M 81.441406 267.234375 C 81.441406 266.222656 82.265625 265.402344 83.273438 265.402344 L 105.265625 265.402344 C 106.273438 265.402344 107.09375 266.222656 107.09375 267.234375 L 107.09375 282.554688 C 107.09375 283.566406 106.273438 284.386719 105.265625 284.386719 L 83.273438 284.386719 C 82.265625 284.386719 81.441406 283.566406 81.441406 282.554688 Z M 81.441406 267.234375 " fill-opacity="1" fill-rule="nonzero"/><path fill="#64bc3e" d="M 169.117188 254.207031 L 147.125 254.207031 C 139.941406 254.207031 134.097656 260.050781 134.097656 267.234375 L 134.097656 282.558594 C 134.097656 289.742188 139.941406 295.585938 147.125 295.585938 L 169.117188 295.585938 C 176.300781 295.585938 182.144531 289.742188 182.144531 282.558594 L 182.144531 267.234375 C 182.144531 260.050781 176.300781 254.207031 169.117188 254.207031 Z M 170.949219 282.558594 C 170.949219 283.570312 170.125 284.390625 169.117188 284.390625 L 147.125 284.390625 C 146.117188 284.390625 145.296875 283.570312 145.296875 282.558594 L 145.296875 267.234375 C 145.296875 266.222656 146.117188 265.402344 147.125 265.402344 L 169.117188 265.402344 C 170.128906 265.402344 170.949219 266.222656 170.949219 267.234375 Z M 170.949219 282.558594 " fill-opacity="1" fill-rule="nonzero"/><path fill="#64bc3e" d="M 105.265625 348.316406 C 112.449219 348.316406 118.292969 342.472656 118.292969 335.289062 L 118.292969 319.964844 C 118.292969 312.78125 112.449219 306.9375 105.265625 306.9375 L 83.273438 306.9375 C 76.089844 306.9375 70.246094 312.78125 70.246094 319.964844 L 70.246094 335.289062 C 70.246094 342.472656 76.089844 348.316406 83.273438 348.316406 Z M 81.441406 335.289062 L 81.441406 319.964844 C 81.441406 318.953125 82.265625 318.132812 83.273438 318.132812 L 105.265625 318.132812 C 106.273438 318.132812 107.09375 318.953125 107.09375 319.964844 L 107.09375 335.289062 C 107.09375 336.300781 106.273438 337.117188 105.265625 337.117188 L 83.273438 337.117188 C 82.265625 337.117188 81.441406 336.300781 81.441406 335.289062 Z M 81.441406 335.289062 " fill-opacity="1" fill-rule="nonzero"/><path fill="#64bc3e" d="M 169.117188 306.933594 L 147.125 306.933594 C 139.941406 306.933594 134.097656 312.777344 134.097656 319.960938 L 134.097656 335.285156 C 134.097656 342.46875 139.941406 348.3125 147.125 348.3125 L 169.117188 348.3125 C 176.300781 348.3125 182.144531 342.46875 182.144531 335.285156 L 182.144531 319.960938 C 182.144531 312.777344 176.300781 306.933594 169.117188 306.933594 Z M 170.949219 335.285156 C 170.949219 336.296875 170.125 337.117188 169.117188 337.117188 L 147.125 337.117188 C 146.117188 337.117188 145.296875 336.296875 145.296875 335.285156 L 145.296875 319.960938 C 145.296875 318.949219 146.117188 318.132812 147.125 318.132812 L 169.117188 318.132812 C 170.128906 318.132812 170.949219 318.953125 170.949219 319.960938 Z M 170.949219 335.285156 " fill-opacity="1" fill-rule="nonzero"/><path fill="#64bc3e" d="M 116.257812 70.757812 C 116.257812 72.476562 116.53125 74.128906 117.027344 75.6875 L 103.804688 75.6875 C 94.886719 75.6875 87.675781 82.886719 87.675781 91.8125 C 87.675781 100.703125 94.910156 107.941406 103.804688 107.941406 L 161.710938 107.941406 C 170.582031 107.941406 177.796875 100.703125 177.796875 91.8125 C 177.796875 90.09375 177.53125 88.4375 177.03125 86.882812 L 190.253906 86.882812 C 199.144531 86.882812 206.378906 79.648438 206.378906 70.757812 C 206.378906 61.863281 199.144531 54.628906 190.253906 54.628906 L 132.386719 54.628906 C 123.46875 54.628906 116.257812 61.832031 116.257812 70.757812 Z M 195.183594 70.757812 C 195.183594 73.476562 192.972656 75.6875 190.253906 75.6875 L 161.710938 75.6875 C 158.621094 75.6875 156.113281 78.191406 156.113281 81.285156 C 156.113281 84.375 158.621094 86.882812 161.710938 86.882812 C 164.410156 86.882812 166.601562 89.09375 166.601562 91.8125 C 166.601562 94.53125 164.410156 96.742188 161.710938 96.742188 L 103.804688 96.742188 C 101.085938 96.742188 98.875 94.53125 98.875 91.8125 C 98.875 89.113281 101.03125 86.882812 103.804688 86.882812 L 132.386719 86.882812 C 135.480469 86.882812 137.984375 84.375 137.984375 81.285156 C 137.984375 78.191406 135.480469 75.6875 132.386719 75.6875 C 129.667969 75.6875 127.457031 73.472656 127.457031 70.757812 C 127.457031 68.015625 129.660156 65.828125 132.386719 65.828125 L 190.253906 65.828125 C 192.972656 65.828125 195.183594 68.039062 195.183594 70.757812 Z M 195.183594 70.757812 " fill-opacity="1" fill-rule="nonzero"/><path fill="#64bc3e" d="M 32.621094 60.015625 L 90.527344 60.015625 C 99.398438 60.015625 106.613281 52.78125 106.613281 43.890625 C 106.613281 42.171875 106.34375 40.515625 105.847656 38.960938 L 119.070312 38.960938 C 127.964844 38.960938 135.199219 31.726562 135.199219 22.832031 C 135.199219 13.941406 127.964844 6.707031 119.070312 6.707031 L 61.203125 6.707031 C 52.285156 6.707031 45.074219 13.910156 45.074219 22.835938 C 45.074219 24.554688 45.347656 26.207031 45.84375 27.761719 L 32.621094 27.761719 C 23.734375 27.761719 16.492188 34.933594 16.492188 43.890625 C 16.492188 52.78125 23.726562 60.015625 32.621094 60.015625 Z M 32.621094 38.960938 L 61.203125 38.960938 C 64.292969 38.960938 66.800781 36.453125 66.800781 33.363281 C 66.800781 30.269531 64.292969 27.761719 61.203125 27.761719 C 58.484375 27.761719 56.273438 25.550781 56.273438 22.835938 C 56.273438 20.09375 58.472656 17.90625 61.203125 17.90625 L 119.070312 17.90625 C 121.789062 17.90625 124.003906 20.117188 124.003906 22.835938 C 124.003906 25.550781 121.789062 27.761719 119.070312 27.761719 L 90.527344 27.761719 C 87.4375 27.761719 84.929688 30.269531 84.929688 33.363281 C 84.929688 36.453125 87.4375 38.960938 90.527344 38.960938 C 93.222656 38.960938 95.417969 41.171875 95.417969 43.890625 C 95.417969 46.609375 93.226562 48.820312 90.527344 48.820312 L 32.621094 48.820312 C 29.902344 48.820312 27.691406 46.609375 27.691406 43.890625 C 27.691406 41.226562 29.808594 38.960938 32.621094 38.960938 Z M 32.621094 38.960938 " fill-opacity="1" fill-rule="nonzero"/></svg>