<svg xmlns="http://www.w3.org/2000/svg" xmlns:xlink="http://www.w3.org/1999/xlink" width="600" zoomAndPan="magnify" viewBox="0 0 450 449.999984" height="600" preserveAspectRatio="xMidYMid meet" version="1.0"><path fill="#64bc3e" d="M 88.867188 258.285156 L 53.574219 258.285156 C 45.328125 258.285156 38.617188 264.992188 38.617188 273.238281 L 38.617188 292.234375 C 38.617188 300.480469 45.328125 307.191406 53.574219 307.191406 L 88.867188 307.191406 C 97.113281 307.191406 103.824219 300.480469 103.824219 292.234375 L 103.824219 273.238281 C 103.824219 264.992188 97.117188 258.285156 88.867188 258.285156 Z M 93.761719 292.234375 C 93.761719 294.933594 91.566406 297.128906 88.867188 297.128906 L 53.574219 297.128906 C 50.875 297.128906 48.683594 294.933594 48.683594 292.234375 L 48.683594 273.238281 C 48.683594 270.542969 50.875 268.347656 53.574219 268.347656 L 88.867188 268.347656 C 91.566406 268.347656 93.757812 270.542969 93.757812 273.238281 Z M 93.761719 292.234375 " fill-opacity="1" fill-rule="nonzero"/><path fill="#64bc3e" d="M 165.628906 258.285156 L 130.339844 258.285156 C 122.09375 258.285156 115.382812 264.992188 115.382812 273.238281 L 115.382812 292.234375 C 115.382812 300.480469 122.09375 307.191406 130.339844 307.191406 L 165.628906 307.191406 C 173.878906 307.191406 180.589844 300.480469 180.589844 292.234375 L 180.589844 273.238281 C 180.589844 264.992188 173.878906 258.285156 165.628906 258.285156 Z M 170.523438 292.234375 C 170.523438 294.933594 168.328125 297.128906 165.628906 297.128906 L 130.339844 297.128906 C 127.640625 297.128906 125.445312 294.933594 125.445312 292.234375 L 125.445312 273.238281 C 125.445312 270.542969 127.640625 268.347656 130.339844 268.347656 L 165.628906 268.347656 C 168.328125 268.347656 170.523438 270.542969 170.523438 273.238281 Z M 170.523438 292.234375 " fill-opacity="1" fill-rule="nonzero"/><path fill="#64bc3e" d="M 242.402344 258.28125 L 207.113281 258.28125 C 198.863281 258.28125 192.15625 264.988281 192.15625 273.238281 L 192.15625 292.230469 C 192.15625 300.476562 198.863281 307.1875 207.113281 307.1875 L 242.402344 307.1875 C 250.648438 307.1875 257.359375 300.476562 257.359375 292.230469 L 257.359375 273.238281 C 257.359375 264.988281 250.648438 258.28125 242.402344 258.28125 Z M 247.296875 292.230469 C 247.296875 294.929688 245.101562 297.125 242.402344 297.125 L 207.113281 297.125 C 204.414062 297.125 202.21875 294.929688 202.21875 292.230469 L 202.21875 273.238281 C 202.21875 270.539062 204.414062 268.34375 207.113281 268.34375 L 242.402344 268.34375 C 245.101562 268.34375 247.296875 270.539062 247.296875 273.238281 Z M 247.296875 292.230469 " fill-opacity="1" fill-rule="nonzero"/><path fill="#64bc3e" d="M 88.867188 337.132812 L 53.574219 337.132812 C 45.328125 337.132812 38.617188 343.84375 38.617188 352.089844 L 38.617188 371.082031 C 38.617188 379.328125 45.328125 386.039062 53.574219 386.039062 L 88.867188 386.039062 C 97.113281 386.039062 103.824219 379.328125 103.824219 371.082031 L 103.824219 352.089844 C 103.824219 343.84375 97.117188 337.132812 88.867188 337.132812 Z M 93.761719 371.082031 C 93.761719 373.78125 91.566406 375.976562 88.867188 375.976562 L 53.574219 375.976562 C 50.875 375.976562 48.683594 373.78125 48.683594 371.082031 L 48.683594 352.089844 C 48.683594 349.390625 50.875 347.199219 53.574219 347.199219 L 88.867188 347.199219 C 91.566406 347.199219 93.757812 349.390625 93.757812 352.089844 Z M 93.761719 371.082031 " fill-opacity="1" fill-rule="nonzero"/><path fill="#64bc3e" d="M 165.628906 337.132812 L 130.339844 337.132812 C 122.09375 337.132812 115.382812 343.84375 115.382812 352.089844 L 115.382812 371.082031 C 115.382812 379.328125 122.09375 386.039062 130.339844 386.039062 L 165.628906 386.039062 C 173.878906 386.039062 180.589844 379.328125 180.589844 371.082031 L 180.589844 352.089844 C 180.589844 343.84375 173.878906 337.132812 165.628906 337.132812 Z M 170.523438 371.082031 C 170.523438 373.78125 168.328125 375.976562 165.628906 375.976562 L 130.339844 375.976562 C 127.640625 375.976562 125.445312 373.78125 125.445312 371.082031 L 125.445312 352.089844 C 125.445312 349.390625 127.640625 347.199219 130.339844 347.199219 L 165.628906 347.199219 C 168.328125 347.199219 170.523438 349.390625 170.523438 352.089844 Z M 170.523438 371.082031 " fill-opacity="1" fill-rule="nonzero"/><path fill="#64bc3e" d="M 242.402344 337.132812 L 207.113281 337.132812 C 198.863281 337.132812 192.15625 343.84375 192.15625 352.089844 L 192.15625 371.082031 C 192.15625 379.328125 198.863281 386.039062 207.113281 386.039062 L 242.402344 386.039062 C 250.648438 386.039062 257.359375 379.328125 257.359375 371.082031 L 257.359375 352.089844 C 257.359375 343.84375 250.648438 337.132812 242.402344 337.132812 Z M 247.296875 371.082031 C 247.296875 373.78125 245.101562 375.976562 242.402344 375.976562 L 207.113281 375.976562 C 204.414062 375.976562 202.21875 373.78125 202.21875 371.082031 L 202.21875 352.089844 C 202.21875 349.390625 204.414062 347.199219 207.113281 347.199219 L 242.402344 347.199219 C 245.101562 347.199219 247.296875 349.390625 247.296875 352.089844 Z M 247.296875 371.082031 " fill-opacity="1" fill-rule="nonzero"/><path fill="#64bc3e" d="M 376.425781 166.199219 L 311.914062 166.199219 C 300.777344 166.199219 291.71875 175.257812 291.71875 186.394531 C 291.71875 197.527344 300.777344 206.589844 311.914062 206.589844 L 376.425781 206.589844 C 387.5625 206.589844 396.621094 197.53125 396.621094 186.394531 C 396.621094 175.257812 387.5625 166.199219 376.425781 166.199219 Z M 376.425781 196.523438 L 311.914062 196.523438 C 306.328125 196.523438 301.78125 191.980469 301.78125 186.394531 C 301.78125 180.804688 306.328125 176.261719 311.914062 176.261719 L 376.425781 176.261719 C 382.011719 176.261719 386.558594 180.804688 386.558594 186.394531 C 386.558594 191.980469 382.011719 196.523438 376.425781 196.523438 Z M 376.425781 196.523438 " fill-opacity="1" fill-rule="nonzero"/><path fill="#64bc3e" d="M 376.425781 222.4375 L 311.914062 222.4375 C 300.777344 222.4375 291.71875 231.496094 291.71875 242.632812 C 291.71875 253.769531 300.777344 262.828125 311.914062 262.828125 L 376.425781 262.828125 C 387.5625 262.828125 396.621094 253.769531 396.621094 242.632812 C 396.621094 231.496094 387.5625 222.4375 376.425781 222.4375 Z M 376.425781 252.765625 L 311.914062 252.765625 C 306.328125 252.765625 301.78125 248.21875 301.78125 242.632812 C 301.78125 237.046875 306.328125 232.5 311.914062 232.5 L 376.425781 232.5 C 382.011719 232.5 386.558594 237.046875 386.558594 242.632812 C 386.558594 248.21875 382.011719 252.765625 376.425781 252.765625 Z M 376.425781 252.765625 " fill-opacity="1" fill-rule="nonzero"/><path fill="#64bc3e" d="M 376.425781 278.683594 L 311.914062 278.683594 C 300.777344 278.683594 291.71875 287.742188 291.71875 298.878906 C 291.71875 310.015625 300.777344 319.074219 311.914062 319.074219 L 376.425781 319.074219 C 387.5625 319.074219 396.621094 310.015625 396.621094 298.878906 C 396.621094 287.742188 387.5625 278.683594 376.425781 278.683594 Z M 376.425781 309.011719 L 311.914062 309.011719 C 298.507812 309.011719 298.511719 288.746094 311.914062 288.746094 L 376.425781 288.746094 C 382.011719 288.746094 386.558594 293.292969 386.558594 298.878906 C 386.558594 304.464844 382.011719 309.011719 376.425781 309.011719 Z M 376.425781 309.011719 " fill-opacity="1" fill-rule="nonzero"/><path fill="#64bc3e" d="M 61.429688 212.378906 C 63.835938 212.378906 65.964844 210.644531 66.382812 208.1875 L 79.136719 133.03125 L 135.953125 133.03125 L 148.710938 208.1875 C 149.175781 210.929688 151.800781 212.761719 154.511719 212.308594 C 157.25 211.84375 159.09375 209.246094 158.628906 206.503906 C 138.0625 87.5625 139.914062 90.753906 137.074219 85.847656 C 134.136719 80.746094 128.644531 77.417969 122.449219 77.417969 L 92.632812 77.417969 C 84.800781 77.417969 78.164062 82.753906 76.308594 90.242188 C 75.726562 92.578125 56.519531 206.164062 56.464844 206.503906 C 55.945312 209.566406 58.296875 212.378906 61.429688 212.378906 Z M 80.847656 122.96875 C 86.300781 90.828125 85.878906 93.007812 86.183594 92.113281 C 87.113281 89.382812 89.675781 87.492188 92.652344 87.492188 L 122.4375 87.492188 C 124.949219 87.492188 127.171875 88.832031 128.363281 90.890625 C 129.457031 92.785156 128.789062 91.753906 134.242188 122.96875 Z M 80.847656 122.96875 " fill-opacity="1" fill-rule="nonzero"/><path fill="#ffffff" d="M 102.648438 72.875 C 105.203125 71.78125 106.382812 68.820312 105.285156 66.269531 C 102.167969 59.011719 110.328125 50.269531 118.261719 48.757812 C 127.515625 46.988281 137.429688 50.664062 147.039062 54.207031 C 157.589844 57.597656 170.941406 63.390625 185.019531 58.195312 C 192.613281 55.390625 198.808594 48.328125 200.796875 40.207031 C 202.371094 33.78125 200.953125 27.535156 196.90625 23.078125 C 195.03125 21.015625 191.851562 20.867188 189.796875 22.730469 C 187.742188 24.597656 187.582031 27.78125 189.449219 29.839844 C 191.746094 32.363281 191.570312 35.570312 191.023438 37.816406 C 189.84375 42.628906 185.941406 47.128906 181.53125 48.757812 C 171.242188 52.554688 159.875 47.960938 150.523438 44.765625 C 140.136719 40.933594 128.367188 36.582031 116.375 38.871094 C 102.222656 41.574219 90.214844 56.679688 96.042969 70.242188 C 97.140625 72.796875 100.105469 73.972656 102.648438 72.875 Z M 102.648438 72.875 " fill-opacity="1" fill-rule="nonzero"/><path fill="#ffffff" d="M 226.566406 41.082031 C 259.976562 27.796875 297.949219 44.160156 311.238281 77.558594 C 312.269531 80.160156 315.21875 81.394531 317.773438 80.371094 C 320.355469 79.347656 321.617188 76.421875 320.585938 73.835938 C 305.242188 35.28125 261.402344 16.386719 222.847656 31.730469 C 220.265625 32.757812 219.003906 35.683594 220.035156 38.265625 C 221.058594 40.851562 223.992188 42.113281 226.566406 41.082031 Z M 226.566406 41.082031 " fill-opacity="1" fill-rule="nonzero"/><path fill="#ffffff" d="M 232.367188 55.652344 C 229.785156 56.679688 228.523438 59.605469 229.554688 62.1875 C 230.578125 64.769531 233.5 66.039062 236.089844 65.003906 C 256.289062 56.96875 279.28125 66.863281 287.320312 87.074219 C 288.351562 89.675781 291.296875 90.914062 293.855469 89.890625 C 296.4375 88.863281 297.699219 85.9375 296.667969 83.355469 C 286.582031 57.992188 257.75 45.558594 232.367188 55.652344 Z M 232.367188 55.652344 " fill-opacity="1" fill-rule="nonzero"/><path fill="#ffffff" d="M 345.511719 97.082031 C 347.726562 98.769531 350.886719 98.324219 352.5625 96.121094 L 369.011719 74.472656 C 369.9375 73.253906 370.261719 71.675781 369.882812 70.191406 C 369.507812 68.707031 368.472656 67.472656 367.074219 66.84375 L 357.59375 62.566406 L 367.832031 46.089844 C 369.300781 43.730469 368.578125 40.628906 366.21875 39.160156 C 363.863281 37.695312 360.753906 38.414062 359.289062 40.777344 L 346.011719 62.132812 C 345.246094 63.363281 345.050781 64.867188 345.472656 66.253906 C 345.894531 67.644531 346.894531 68.78125 348.214844 69.375 L 357.171875 73.417969 L 344.546875 90.027344 C 342.867188 92.242188 343.296875 95.398438 345.511719 97.082031 Z M 345.511719 97.082031 " fill-opacity="1" fill-rule="nonzero"/><path fill="#ffffff" d="M 189.839844 113.695312 C 189.210938 110.992188 186.503906 109.316406 183.796875 109.9375 C 181.089844 110.570312 179.40625 113.277344 180.039062 115.980469 L 185.753906 140.46875 C 186.082031 141.882812 187.003906 143.085938 188.285156 143.765625 C 189.566406 144.453125 191.082031 144.546875 192.433594 144.03125 L 201.628906 140.558594 L 204.445312 161.234375 C 204.789062 163.753906 206.949219 165.585938 209.421875 165.585938 C 209.648438 165.585938 209.878906 165.570312 210.109375 165.539062 C 212.863281 165.164062 214.792969 162.628906 214.414062 159.871094 L 210.742188 132.933594 C 210.535156 131.414062 209.648438 130.074219 208.332031 129.289062 C 207.015625 128.507812 205.40625 128.367188 203.980469 128.910156 L 194.246094 132.589844 Z M 189.839844 113.695312 " fill-opacity="1" fill-rule="nonzero"/><path fill="#64bc3e" d="M 430.371094 418.507812 L 416.785156 418.507812 L 416.785156 105.472656 C 416.785156 94.441406 405.363281 87.023438 395.242188 91.601562 L 280.195312 144.078125 C 274.792969 146.578125 271.304688 152.019531 271.304688 157.9375 L 271.304688 222.4375 L 37.890625 222.4375 C 25.050781 222.4375 14.597656 232.886719 14.597656 245.726562 L 14.597656 423.527344 C 14.597656 426.304688 16.851562 428.558594 19.628906 428.558594 C 52.914062 428.558594 408.363281 428.570312 430.371094 428.570312 C 433.148438 428.570312 435.402344 426.320312 435.402344 423.539062 C 435.402344 420.761719 433.148438 418.507812 430.371094 418.507812 Z M 24.664062 245.726562 C 24.664062 238.433594 30.59375 232.503906 37.890625 232.503906 L 271.304688 232.503906 C 271.3125 455.925781 271.308594 412.886719 271.308594 418.496094 L 24.664062 418.496094 Z M 317.09375 418.496094 L 317.09375 367.710938 C 317.09375 352.851562 329.183594 340.761719 344.046875 340.761719 C 358.90625 340.761719 370.996094 352.851562 370.996094 367.710938 L 370.996094 418.496094 Z M 381.058594 418.507812 L 381.058594 367.710938 C 381.058594 347.300781 364.453125 330.699219 344.046875 330.699219 C 323.632812 330.699219 307.03125 347.300781 307.03125 367.710938 L 307.03125 418.507812 C 306.382812 418.507812 279.871094 418.507812 281.375 418.507812 C 281.371094 386.804688 281.371094 236.710938 281.367188 157.9375 C 281.367188 155.925781 282.566406 154.070312 284.394531 153.222656 L 399.402344 100.765625 C 402.871094 99.203125 406.722656 101.757812 406.722656 105.472656 L 406.722656 418.507812 Z M 381.058594 418.507812 " fill-opacity="1" fill-rule="nonzero"/></svg>