<?xml version="1.0" encoding="UTF-8"?>
<svg xmlns="http://www.w3.org/2000/svg" xmlns:xlink="http://www.w3.org/1999/xlink" width="60px" height="60px" viewBox="0 0 60 60" version="1.1">
<g id="surface1">
<path style=" stroke:none;fill-rule:nonzero;fill:rgb(39.215687%,73.725492%,24.313726%);fill-opacity:1;" d="M 26.09375 13.675781 C 24.984375 13.675781 24.050781 14.542969 23.984375 15.667969 L 23.585938 22.691406 C 23.5625 23.101562 23.875 23.457031 24.285156 23.480469 C 24.703125 23.503906 25.050781 23.1875 25.074219 22.777344 L 25.238281 19.914062 L 31.121094 19.914062 L 31.765625 31.25 C 31.789062 31.648438 32.117188 31.953125 32.511719 31.953125 C 32.523438 31.953125 32.539062 31.953125 32.554688 31.953125 C 32.964844 31.929688 33.28125 31.578125 33.257812 31.164062 C 32.265625 13.707031 32.484375 17.605469 32.375 15.667969 C 32.3125 14.570312 31.40625 13.675781 30.265625 13.675781 Z M 25.324219 18.421875 L 25.476562 15.753906 C 25.496094 15.410156 25.796875 15.167969 26.089844 15.167969 L 30.265625 15.167969 C 30.59375 15.167969 30.867188 15.421875 30.882812 15.753906 L 31.035156 18.421875 Z M 25.324219 18.421875 "/>
<path style=" stroke:none;fill-rule:nonzero;fill:rgb(13.333334%,13.333334%,13.333334%);fill-opacity:1;" d="M 48.539062 46.257812 L 51.40625 46.257812 C 52.285156 46.257812 53 45.542969 53 44.664062 L 53 41.796875 C 53 40.917969 52.285156 40.203125 51.40625 40.203125 L 48.539062 40.203125 C 47.660156 40.203125 46.945312 40.917969 46.945312 41.796875 L 46.945312 44.664062 C 46.945312 45.542969 47.660156 46.257812 48.539062 46.257812 Z M 48.4375 41.796875 C 48.4375 41.742188 48.484375 41.695312 48.539062 41.695312 L 51.40625 41.695312 C 51.460938 41.695312 51.507812 41.742188 51.507812 41.796875 L 51.507812 44.664062 C 51.507812 44.71875 51.460938 44.765625 51.40625 44.765625 L 48.539062 44.765625 C 48.484375 44.765625 48.4375 44.71875 48.4375 44.664062 Z M 48.4375 41.796875 "/>
<path style=" stroke:none;fill-rule:nonzero;fill:rgb(13.333334%,13.333334%,13.333334%);fill-opacity:1;" d="M 39.261719 46.257812 L 42.125 46.257812 C 43.003906 46.257812 43.722656 45.542969 43.722656 44.664062 L 43.722656 41.796875 C 43.722656 40.917969 43.003906 40.203125 42.125 40.203125 L 39.261719 40.203125 C 38.378906 40.203125 37.664062 40.917969 37.664062 41.796875 L 37.664062 44.664062 C 37.664062 45.542969 38.378906 46.257812 39.261719 46.257812 Z M 39.160156 41.796875 C 39.160156 41.742188 39.203125 41.695312 39.261719 41.695312 L 42.125 41.695312 C 42.183594 41.695312 42.226562 41.742188 42.226562 41.796875 L 42.226562 44.664062 C 42.226562 44.71875 42.183594 44.765625 42.125 44.765625 L 39.261719 44.765625 C 39.203125 44.765625 39.160156 44.71875 39.160156 44.664062 Z M 39.160156 41.796875 "/>
<path style=" stroke:none;fill-rule:nonzero;fill:rgb(13.333334%,13.333334%,13.333334%);fill-opacity:1;" d="M 32.84375 40.203125 L 29.980469 40.203125 C 29.097656 40.203125 28.382812 40.917969 28.382812 41.796875 L 28.382812 44.664062 C 28.382812 45.542969 29.097656 46.257812 29.980469 46.257812 L 32.84375 46.257812 C 33.722656 46.257812 34.441406 45.542969 34.441406 44.664062 L 34.441406 41.796875 C 34.441406 40.917969 33.722656 40.203125 32.84375 40.203125 Z M 32.945312 44.664062 C 32.945312 44.71875 32.902344 44.765625 32.84375 44.765625 L 29.980469 44.765625 C 29.921875 44.765625 29.878906 44.71875 29.878906 44.664062 L 29.878906 41.796875 C 29.878906 41.742188 29.921875 41.695312 29.980469 41.695312 L 32.84375 41.695312 C 32.902344 41.695312 32.945312 41.742188 32.945312 41.796875 Z M 32.945312 44.664062 "/>
<path style=" stroke:none;fill-rule:nonzero;fill:rgb(39.215687%,73.725492%,24.313726%);fill-opacity:1;" d="M 27.519531 27.519531 C 27.519531 26.117188 26.375 24.972656 24.96875 24.972656 L 8.6875 24.972656 C 7.28125 24.972656 6.136719 26.117188 6.136719 27.519531 L 6.136719 54.359375 L 4.757812 54.359375 C 3.609375 54.359375 2.675781 55.292969 2.675781 56.441406 C 2.675781 57.589844 3.609375 58.523438 4.757812 58.523438 L 56.179688 58.523438 C 57.328125 58.523438 58.261719 57.589844 58.261719 56.441406 C 58.261719 55.292969 57.328125 54.359375 56.179688 54.359375 L 55.359375 54.359375 L 55.359375 33.792969 C 55.359375 33.414062 55.175781 33.054688 54.871094 32.832031 C 54.566406 32.613281 54.167969 32.550781 53.808594 32.667969 L 46.078125 35.203125 L 46.078125 33.792969 C 46.078125 33.414062 45.898438 33.054688 45.589844 32.835938 C 45.285156 32.613281 44.886719 32.550781 44.527344 32.667969 L 36.796875 35.203125 L 36.796875 33.792969 C 36.796875 33.414062 36.617188 33.054688 36.308594 32.835938 C 36.003906 32.613281 35.605469 32.550781 35.25 32.667969 L 27.519531 35.203125 Z M 7.628906 27.519531 C 7.628906 26.9375 8.105469 26.464844 8.6875 26.464844 L 24.96875 26.464844 C 25.550781 26.464844 26.023438 26.9375 26.023438 27.519531 L 26.023438 54.359375 L 21.585938 54.359375 L 21.585938 49.871094 C 21.585938 48.578125 20.535156 47.527344 19.242188 47.527344 L 14.414062 47.527344 C 13.121094 47.527344 12.070312 48.578125 12.070312 49.871094 L 12.070312 54.359375 L 7.628906 54.359375 Z M 20.09375 54.359375 L 13.5625 54.359375 L 13.5625 49.871094 C 13.5625 49.402344 13.945312 49.019531 14.414062 49.019531 L 19.242188 49.019531 C 19.710938 49.019531 20.09375 49.402344 20.09375 49.871094 Z M 56.769531 56.441406 C 56.769531 56.765625 56.503906 57.03125 56.179688 57.03125 L 4.757812 57.03125 C 4.433594 57.03125 4.167969 56.765625 4.167969 56.441406 C 4.167969 56.117188 4.433594 55.851562 4.757812 55.851562 L 56.179688 55.851562 C 56.503906 55.851562 56.769531 56.117188 56.769531 56.441406 Z M 53.867188 34.21875 L 53.867188 54.359375 L 46.078125 54.359375 L 46.078125 36.773438 Z M 44.585938 34.21875 L 44.585938 54.359375 L 36.796875 54.359375 L 36.796875 36.773438 Z M 27.519531 36.773438 L 35.304688 34.21875 L 35.304688 54.359375 L 27.519531 54.359375 Z M 27.519531 36.773438 "/>
<path style=" stroke:none;fill-rule:nonzero;fill:rgb(39.215687%,73.725492%,24.313726%);fill-opacity:1;" d="M 11.589844 32.398438 L 22.066406 32.398438 C 23.289062 32.398438 24.285156 31.402344 24.285156 30.175781 C 24.285156 28.953125 23.289062 27.957031 22.066406 27.957031 L 11.589844 27.957031 C 10.363281 27.957031 9.367188 28.953125 9.367188 30.175781 C 9.367188 31.402344 10.363281 32.398438 11.589844 32.398438 Z M 11.589844 29.449219 L 22.066406 29.449219 C 22.464844 29.449219 22.792969 29.777344 22.792969 30.175781 C 22.792969 30.578125 22.464844 30.902344 22.066406 30.902344 L 11.589844 30.902344 C 11.1875 30.902344 10.863281 30.578125 10.863281 30.175781 C 10.863281 29.777344 11.1875 29.449219 11.589844 29.449219 Z M 11.589844 29.449219 "/>
<path style=" stroke:none;fill-rule:nonzero;fill:rgb(39.215687%,73.725492%,24.313726%);fill-opacity:1;" d="M 11.101562 39.410156 L 14.035156 39.410156 C 14.992188 39.410156 15.773438 38.632812 15.773438 37.675781 L 15.773438 35.632812 C 15.773438 34.671875 14.992188 33.894531 14.035156 33.894531 L 11.101562 33.894531 C 10.144531 33.894531 9.367188 34.671875 9.367188 35.632812 L 9.367188 37.675781 C 9.367188 38.632812 10.144531 39.410156 11.101562 39.410156 Z M 10.859375 35.632812 C 10.859375 35.496094 10.96875 35.386719 11.101562 35.386719 L 14.035156 35.386719 C 14.167969 35.386719 14.277344 35.496094 14.277344 35.632812 L 14.277344 37.675781 C 14.277344 37.808594 14.167969 37.917969 14.035156 37.917969 L 11.101562 37.917969 C 10.96875 37.917969 10.859375 37.808594 10.859375 37.675781 Z M 10.859375 35.632812 "/>
<path style=" stroke:none;fill-rule:nonzero;fill:rgb(39.215687%,73.725492%,24.313726%);fill-opacity:1;" d="M 22.550781 33.894531 L 19.617188 33.894531 C 18.660156 33.894531 17.878906 34.671875 17.878906 35.632812 L 17.878906 37.675781 C 17.878906 38.632812 18.660156 39.410156 19.617188 39.410156 L 22.550781 39.410156 C 23.507812 39.410156 24.285156 38.632812 24.285156 37.675781 L 24.285156 35.632812 C 24.285156 34.671875 23.507812 33.894531 22.550781 33.894531 Z M 22.792969 37.675781 C 22.792969 37.808594 22.683594 37.917969 22.550781 37.917969 L 19.617188 37.917969 C 19.480469 37.917969 19.371094 37.808594 19.371094 37.675781 L 19.371094 35.632812 C 19.371094 35.496094 19.480469 35.386719 19.617188 35.386719 L 22.550781 35.386719 C 22.683594 35.386719 22.792969 35.496094 22.792969 35.632812 Z M 22.792969 37.675781 "/>
<path style=" stroke:none;fill-rule:nonzero;fill:rgb(39.215687%,73.725492%,24.313726%);fill-opacity:1;" d="M 14.035156 46.441406 C 14.992188 46.441406 15.773438 45.664062 15.773438 44.707031 L 15.773438 42.660156 C 15.773438 41.703125 14.992188 40.925781 14.035156 40.925781 L 11.101562 40.925781 C 10.144531 40.925781 9.367188 41.703125 9.367188 42.660156 L 9.367188 44.707031 C 9.367188 45.664062 10.144531 46.441406 11.101562 46.441406 Z M 10.859375 44.707031 L 10.859375 42.660156 C 10.859375 42.527344 10.96875 42.417969 11.101562 42.417969 L 14.035156 42.417969 C 14.167969 42.417969 14.277344 42.527344 14.277344 42.660156 L 14.277344 44.707031 C 14.277344 44.839844 14.167969 44.949219 14.035156 44.949219 L 11.101562 44.949219 C 10.96875 44.949219 10.859375 44.839844 10.859375 44.707031 Z M 10.859375 44.707031 "/>
<path style=" stroke:none;fill-rule:nonzero;fill:rgb(39.215687%,73.725492%,24.313726%);fill-opacity:1;" d="M 22.550781 40.925781 L 19.617188 40.925781 C 18.660156 40.925781 17.878906 41.703125 17.878906 42.660156 L 17.878906 44.703125 C 17.878906 45.664062 18.660156 46.441406 19.617188 46.441406 L 22.550781 46.441406 C 23.507812 46.441406 24.285156 45.664062 24.285156 44.703125 L 24.285156 42.660156 C 24.285156 41.703125 23.507812 40.925781 22.550781 40.925781 Z M 22.792969 44.703125 C 22.792969 44.839844 22.683594 44.949219 22.550781 44.949219 L 19.617188 44.949219 C 19.480469 44.949219 19.371094 44.839844 19.371094 44.703125 L 19.371094 42.660156 C 19.371094 42.527344 19.480469 42.417969 19.617188 42.417969 L 22.550781 42.417969 C 22.683594 42.417969 22.792969 42.527344 22.792969 42.660156 Z M 22.792969 44.703125 "/>
<path style=" stroke:none;fill-rule:nonzero;fill:rgb(39.215687%,73.725492%,24.313726%);fill-opacity:1;" d="M 15.5 9.433594 C 15.5 9.664062 15.539062 9.882812 15.605469 10.089844 L 13.839844 10.089844 C 12.652344 10.089844 11.691406 11.050781 11.691406 12.242188 C 11.691406 13.425781 12.65625 14.390625 13.839844 14.390625 L 21.5625 14.390625 C 22.746094 14.390625 23.707031 13.425781 23.707031 12.242188 C 23.707031 12.011719 23.671875 11.792969 23.605469 11.585938 L 25.367188 11.585938 C 26.550781 11.585938 27.515625 10.621094 27.515625 9.433594 C 27.515625 8.25 26.550781 7.285156 25.367188 7.285156 L 17.652344 7.285156 C 16.460938 7.285156 15.5 8.246094 15.5 9.433594 Z M 26.023438 9.433594 C 26.023438 9.796875 25.730469 10.089844 25.367188 10.089844 L 21.5625 10.089844 C 21.148438 10.089844 20.816406 10.425781 20.816406 10.839844 C 20.816406 11.25 21.148438 11.585938 21.5625 11.585938 C 21.921875 11.585938 22.214844 11.878906 22.214844 12.242188 C 22.214844 12.605469 21.921875 12.898438 21.5625 12.898438 L 13.839844 12.898438 C 13.476562 12.898438 13.183594 12.605469 13.183594 12.242188 C 13.183594 11.882812 13.472656 11.585938 13.839844 11.585938 L 17.652344 11.585938 C 18.0625 11.585938 18.398438 11.25 18.398438 10.839844 C 18.398438 10.425781 18.0625 10.089844 17.652344 10.089844 C 17.289062 10.089844 16.996094 9.796875 16.996094 9.433594 C 16.996094 9.070312 17.289062 8.777344 17.652344 8.777344 L 25.367188 8.777344 C 25.730469 8.777344 26.023438 9.070312 26.023438 9.433594 Z M 26.023438 9.433594 "/>
<path style=" stroke:none;fill-rule:nonzero;fill:rgb(39.215687%,73.725492%,24.313726%);fill-opacity:1;" d="M 4.347656 8.003906 L 12.070312 8.003906 C 13.253906 8.003906 14.214844 7.039062 14.214844 5.851562 C 14.214844 5.621094 14.179688 5.402344 14.113281 5.195312 L 15.875 5.195312 C 17.0625 5.195312 18.027344 4.230469 18.027344 3.042969 C 18.027344 1.859375 17.0625 0.894531 15.875 0.894531 L 8.160156 0.894531 C 6.972656 0.894531 6.011719 1.855469 6.011719 3.042969 C 6.011719 3.273438 6.046875 3.496094 6.113281 3.703125 L 4.347656 3.703125 C 3.164062 3.703125 2.199219 4.65625 2.199219 5.851562 C 2.199219 7.039062 3.164062 8.003906 4.347656 8.003906 Z M 4.347656 5.195312 L 8.160156 5.195312 C 8.574219 5.195312 8.90625 4.859375 8.90625 4.449219 C 8.90625 4.035156 8.574219 3.703125 8.160156 3.703125 C 7.796875 3.703125 7.503906 3.40625 7.503906 3.042969 C 7.503906 2.679688 7.796875 2.386719 8.160156 2.386719 L 15.875 2.386719 C 16.238281 2.386719 16.535156 2.683594 16.535156 3.042969 C 16.535156 3.40625 16.238281 3.703125 15.875 3.703125 L 12.070312 3.703125 C 11.660156 3.703125 11.324219 4.035156 11.324219 4.449219 C 11.324219 4.859375 11.660156 5.195312 12.070312 5.195312 C 12.429688 5.195312 12.722656 5.488281 12.722656 5.851562 C 12.722656 6.214844 12.429688 6.507812 12.070312 6.507812 L 4.347656 6.507812 C 3.988281 6.507812 3.691406 6.214844 3.691406 5.851562 C 3.691406 5.496094 3.972656 5.195312 4.347656 5.195312 Z M 4.347656 5.195312 "/>
</g>
</svg>
