<?xml version="1.0" encoding="UTF-8"?>
<svg xmlns="http://www.w3.org/2000/svg" xmlns:xlink="http://www.w3.org/1999/xlink" width="50px" height="50px" viewBox="0 0 50 50" version="1.1">
<g id="surface1">
<path style=" stroke:none;fill-rule:nonzero;fill:rgb(39.215687%,73.725492%,24.313726%);fill-opacity:1;" d="M 21.746094 11.394531 C 20.820312 11.394531 20.039062 12.121094 19.988281 13.054688 C 19.988281 13.054688 19.988281 13.054688 19.988281 13.058594 L 19.652344 18.910156 C 19.632812 19.253906 19.894531 19.546875 20.238281 19.566406 C 20.585938 19.585938 20.875 19.324219 20.894531 18.980469 L 21.03125 16.59375 L 25.933594 16.59375 L 26.472656 26.042969 C 26.492188 26.375 26.765625 26.628906 27.09375 26.628906 C 27.105469 26.628906 27.117188 26.628906 27.128906 26.628906 C 27.472656 26.609375 27.734375 26.3125 27.714844 25.972656 C 26.886719 11.421875 27.070312 14.671875 26.980469 13.054688 C 26.929688 12.140625 26.171875 11.394531 25.222656 11.394531 Z M 21.101562 15.351562 L 21.230469 13.128906 C 21.246094 12.839844 21.496094 12.640625 21.742188 12.640625 L 25.222656 12.640625 C 25.496094 12.640625 25.722656 12.851562 25.734375 13.128906 L 25.863281 15.351562 Z M 21.101562 15.351562 "/>
<path style=" stroke:none;fill-rule:nonzero;fill:rgb(0%,0%,0%);fill-opacity:1;" d="M 40.449219 38.550781 L 42.839844 38.550781 C 43.570312 38.550781 44.167969 37.953125 44.167969 37.21875 L 44.167969 34.832031 C 44.167969 34.097656 43.570312 33.503906 42.839844 33.503906 L 40.449219 33.503906 C 39.71875 33.503906 39.121094 34.097656 39.121094 34.832031 L 39.121094 37.21875 C 39.121094 37.953125 39.71875 38.550781 40.449219 38.550781 Z M 40.367188 34.832031 C 40.367188 34.785156 40.402344 34.746094 40.449219 34.746094 L 42.839844 34.746094 C 42.886719 34.746094 42.921875 34.785156 42.921875 34.832031 L 42.921875 37.21875 C 42.921875 37.265625 42.886719 37.304688 42.839844 37.304688 L 40.449219 37.304688 C 40.402344 37.304688 40.367188 37.265625 40.367188 37.21875 Z M 40.367188 34.832031 "/>
<path style=" stroke:none;fill-rule:nonzero;fill:rgb(0%,0%,0%);fill-opacity:1;" d="M 32.714844 38.550781 L 35.105469 38.550781 C 35.835938 38.550781 36.433594 37.953125 36.433594 37.21875 L 36.433594 34.832031 C 36.433594 34.097656 35.835938 33.503906 35.105469 33.503906 L 32.714844 33.503906 C 31.984375 33.503906 31.386719 34.097656 31.386719 34.832031 L 31.386719 37.21875 C 31.386719 37.953125 31.984375 38.550781 32.714844 38.550781 Z M 32.632812 34.832031 C 32.632812 34.785156 32.667969 34.746094 32.714844 34.746094 L 35.105469 34.746094 C 35.152344 34.746094 35.191406 34.785156 35.191406 34.832031 L 35.191406 37.21875 C 35.191406 37.265625 35.152344 37.304688 35.105469 37.304688 L 32.714844 37.304688 C 32.667969 37.304688 32.632812 37.265625 32.632812 37.21875 Z M 32.632812 34.832031 "/>
<path style=" stroke:none;fill-rule:nonzero;fill:rgb(0%,0%,0%);fill-opacity:1;" d="M 27.371094 33.503906 L 24.980469 33.503906 C 24.25 33.503906 23.652344 34.097656 23.652344 34.832031 L 23.652344 37.21875 C 23.652344 37.953125 24.25 38.550781 24.980469 38.550781 L 27.371094 38.550781 C 28.101562 38.550781 28.699219 37.953125 28.699219 37.21875 L 28.699219 34.832031 C 28.699219 34.097656 28.101562 33.503906 27.371094 33.503906 Z M 27.457031 37.21875 C 27.457031 37.265625 27.417969 37.304688 27.371094 37.304688 L 24.980469 37.304688 C 24.9375 37.304688 24.898438 37.265625 24.898438 37.21875 L 24.898438 34.832031 C 24.898438 34.785156 24.9375 34.746094 24.980469 34.746094 L 27.371094 34.746094 C 27.417969 34.746094 27.457031 34.785156 27.457031 34.832031 Z M 27.457031 37.21875 "/>
<path style=" stroke:none;fill-rule:nonzero;fill:rgb(39.215687%,73.725492%,24.313726%);fill-opacity:1;" d="M 22.929688 22.933594 C 22.929688 21.761719 21.980469 20.808594 20.808594 20.808594 L 7.238281 20.808594 C 6.066406 20.808594 5.113281 21.761719 5.113281 22.933594 L 5.113281 45.300781 L 3.964844 45.300781 C 3.007812 45.300781 2.230469 46.078125 2.230469 47.035156 C 2.230469 47.992188 3.007812 48.769531 3.964844 48.769531 L 46.816406 48.769531 C 47.773438 48.769531 48.550781 47.992188 48.550781 47.035156 C 48.550781 46.078125 47.773438 45.300781 46.816406 45.300781 L 46.132812 45.300781 L 46.132812 28.160156 C 46.132812 27.84375 45.980469 27.546875 45.726562 27.363281 C 45.472656 27.175781 45.140625 27.125 44.839844 27.222656 L 38.398438 29.335938 L 38.398438 28.160156 C 38.398438 27.84375 38.246094 27.546875 37.992188 27.363281 C 37.738281 27.175781 37.40625 27.125 37.109375 27.222656 L 30.664062 29.335938 L 30.664062 28.160156 C 30.664062 27.84375 30.511719 27.546875 30.257812 27.363281 C 30.003906 27.175781 29.671875 27.125 29.375 27.222656 L 22.929688 29.335938 Z M 6.359375 22.933594 C 6.359375 22.449219 6.753906 22.054688 7.238281 22.054688 L 20.808594 22.054688 C 21.292969 22.054688 21.6875 22.449219 21.6875 22.933594 L 21.6875 45.300781 L 17.988281 45.300781 L 17.988281 41.558594 C 17.988281 40.480469 17.113281 39.605469 16.035156 39.605469 L 12.011719 39.605469 C 10.933594 39.605469 10.058594 40.480469 10.058594 41.558594 L 10.058594 45.300781 L 6.359375 45.300781 Z M 16.742188 45.300781 L 11.300781 45.300781 L 11.300781 41.558594 C 11.300781 41.167969 11.621094 40.851562 12.011719 40.851562 L 16.035156 40.851562 C 16.425781 40.851562 16.742188 41.167969 16.742188 41.558594 Z M 47.308594 47.035156 C 47.308594 47.304688 47.085938 47.527344 46.816406 47.527344 L 3.964844 47.527344 C 3.695312 47.527344 3.472656 47.304688 3.472656 47.035156 C 3.472656 46.761719 3.695312 46.542969 3.964844 46.542969 L 46.816406 46.542969 C 47.085938 46.542969 47.308594 46.761719 47.308594 47.035156 Z M 44.890625 28.515625 L 44.890625 45.300781 L 38.398438 45.300781 L 38.398438 30.644531 Z M 37.15625 28.515625 L 37.15625 45.300781 L 30.664062 45.300781 L 30.664062 30.644531 Z M 22.933594 30.644531 L 29.421875 28.515625 L 29.421875 45.300781 L 22.933594 45.300781 Z M 22.933594 30.644531 "/>
<path style=" stroke:none;fill-rule:nonzero;fill:rgb(39.215687%,73.725492%,24.313726%);fill-opacity:1;" d="M 9.65625 26.996094 L 18.386719 26.996094 C 19.410156 26.996094 20.238281 26.167969 20.238281 25.148438 C 20.238281 24.128906 19.40625 23.296875 18.386719 23.296875 L 9.65625 23.296875 C 8.636719 23.296875 7.808594 24.128906 7.808594 25.148438 C 7.808594 26.167969 8.636719 26.996094 9.65625 26.996094 Z M 9.65625 24.542969 L 18.386719 24.542969 C 18.722656 24.542969 18.996094 24.8125 18.996094 25.148438 C 18.996094 25.480469 18.722656 25.753906 18.386719 25.753906 L 9.65625 25.753906 C 9.324219 25.753906 9.050781 25.480469 9.050781 25.148438 C 9.050781 24.8125 9.324219 24.542969 9.65625 24.542969 Z M 9.65625 24.542969 "/>
<path style=" stroke:none;fill-rule:nonzero;fill:rgb(39.215687%,73.725492%,24.313726%);fill-opacity:1;" d="M 9.253906 32.84375 L 11.695312 32.84375 C 12.496094 32.84375 13.144531 32.195312 13.144531 31.394531 L 13.144531 29.691406 C 13.144531 28.894531 12.496094 28.246094 11.695312 28.246094 L 9.253906 28.246094 C 8.453125 28.246094 7.804688 28.894531 7.804688 29.691406 L 7.804688 31.394531 C 7.804688 32.195312 8.453125 32.84375 9.253906 32.84375 Z M 9.050781 29.691406 C 9.050781 29.582031 9.140625 29.488281 9.253906 29.488281 L 11.695312 29.488281 C 11.808594 29.488281 11.898438 29.582031 11.898438 29.691406 L 11.898438 31.394531 C 11.898438 31.507812 11.808594 31.597656 11.695312 31.597656 L 9.253906 31.597656 C 9.140625 31.597656 9.050781 31.507812 9.050781 31.394531 Z M 9.050781 29.691406 "/>
<path style=" stroke:none;fill-rule:nonzero;fill:rgb(39.215687%,73.725492%,24.313726%);fill-opacity:1;" d="M 18.789062 28.246094 L 16.347656 28.246094 C 15.550781 28.246094 14.898438 28.894531 14.898438 29.691406 L 14.898438 31.394531 C 14.898438 32.195312 15.550781 32.84375 16.347656 32.84375 L 18.789062 32.84375 C 19.589844 32.84375 20.238281 32.195312 20.238281 31.394531 L 20.238281 29.691406 C 20.238281 28.894531 19.589844 28.246094 18.789062 28.246094 Z M 18.996094 31.394531 C 18.996094 31.507812 18.902344 31.597656 18.789062 31.597656 L 16.347656 31.597656 C 16.234375 31.597656 16.144531 31.507812 16.144531 31.394531 L 16.144531 29.691406 C 16.144531 29.582031 16.234375 29.488281 16.347656 29.488281 L 18.789062 29.488281 C 18.902344 29.488281 18.996094 29.582031 18.996094 29.691406 Z M 18.996094 31.394531 "/>
<path style=" stroke:none;fill-rule:nonzero;fill:rgb(39.215687%,73.725492%,24.313726%);fill-opacity:1;" d="M 11.695312 38.703125 C 12.496094 38.703125 13.144531 38.050781 13.144531 37.253906 L 13.144531 35.550781 C 13.144531 34.753906 12.496094 34.105469 11.695312 34.105469 L 9.253906 34.105469 C 8.453125 34.105469 7.804688 34.753906 7.804688 35.550781 L 7.804688 37.253906 C 7.804688 38.050781 8.453125 38.703125 9.253906 38.703125 Z M 9.050781 37.253906 L 9.050781 35.550781 C 9.050781 35.4375 9.140625 35.347656 9.253906 35.347656 L 11.695312 35.347656 C 11.808594 35.347656 11.898438 35.4375 11.898438 35.550781 L 11.898438 37.253906 C 11.898438 37.367188 11.808594 37.457031 11.695312 37.457031 L 9.253906 37.457031 C 9.140625 37.457031 9.050781 37.367188 9.050781 37.253906 Z M 9.050781 37.253906 "/>
<path style=" stroke:none;fill-rule:nonzero;fill:rgb(39.215687%,73.725492%,24.313726%);fill-opacity:1;" d="M 18.789062 34.105469 L 16.347656 34.105469 C 15.550781 34.105469 14.898438 34.753906 14.898438 35.550781 L 14.898438 37.253906 C 14.898438 38.050781 15.550781 38.703125 16.347656 38.703125 L 18.789062 38.703125 C 19.589844 38.703125 20.238281 38.050781 20.238281 37.253906 L 20.238281 35.550781 C 20.238281 34.753906 19.589844 34.105469 18.789062 34.105469 Z M 18.996094 37.253906 C 18.996094 37.367188 18.902344 37.457031 18.789062 37.457031 L 16.347656 37.457031 C 16.234375 37.457031 16.144531 37.367188 16.144531 37.253906 L 16.144531 35.550781 C 16.144531 35.4375 16.234375 35.347656 16.347656 35.347656 L 18.789062 35.347656 C 18.902344 35.347656 18.996094 35.4375 18.996094 35.550781 Z M 18.996094 37.253906 "/>
<path style=" stroke:none;fill-rule:nonzero;fill:rgb(39.215687%,73.725492%,24.313726%);fill-opacity:1;" d="M 12.917969 7.863281 C 12.917969 8.054688 12.949219 8.238281 13.003906 8.410156 L 11.535156 8.410156 C 10.542969 8.410156 9.742188 9.210938 9.742188 10.203125 C 9.742188 11.1875 10.546875 11.992188 11.535156 11.992188 L 17.96875 11.992188 C 18.953125 11.992188 19.753906 11.1875 19.753906 10.203125 C 19.753906 10.011719 19.726562 9.828125 19.671875 9.652344 L 21.140625 9.652344 C 22.128906 9.652344 22.929688 8.851562 22.929688 7.863281 C 22.929688 6.875 22.128906 6.070312 21.140625 6.070312 L 14.710938 6.070312 C 13.71875 6.070312 12.917969 6.871094 12.917969 7.863281 Z M 21.6875 7.863281 C 21.6875 8.164062 21.441406 8.410156 21.140625 8.410156 L 17.96875 8.410156 C 17.625 8.410156 17.347656 8.6875 17.347656 9.03125 C 17.347656 9.375 17.625 9.652344 17.96875 9.652344 C 18.269531 9.652344 18.511719 9.898438 18.511719 10.203125 C 18.511719 10.503906 18.269531 10.75 17.96875 10.75 L 11.535156 10.75 C 11.230469 10.75 10.984375 10.503906 10.984375 10.203125 C 10.984375 9.902344 11.226562 9.652344 11.535156 9.652344 L 14.710938 9.652344 C 15.054688 9.652344 15.332031 9.375 15.332031 9.03125 C 15.332031 8.6875 15.054688 8.410156 14.710938 8.410156 C 14.40625 8.410156 14.160156 8.164062 14.160156 7.863281 C 14.160156 7.558594 14.40625 7.3125 14.710938 7.3125 L 21.140625 7.3125 C 21.441406 7.3125 21.6875 7.558594 21.6875 7.863281 Z M 21.6875 7.863281 "/>
<path style=" stroke:none;fill-rule:nonzero;fill:rgb(39.215687%,73.725492%,24.313726%);fill-opacity:1;" d="M 3.625 6.667969 L 10.058594 6.667969 C 11.042969 6.667969 11.847656 5.863281 11.847656 4.875 C 11.847656 4.6875 11.816406 4.5 11.761719 4.328125 L 13.230469 4.328125 C 14.21875 4.328125 15.023438 3.523438 15.023438 2.535156 C 15.023438 1.550781 14.21875 0.746094 13.230469 0.746094 L 6.800781 0.746094 C 5.808594 0.746094 5.007812 1.546875 5.007812 2.539062 C 5.007812 2.726562 5.039062 2.910156 5.09375 3.085938 L 3.625 3.085938 C 2.636719 3.085938 1.832031 3.882812 1.832031 4.875 C 1.832031 5.863281 2.636719 6.667969 3.625 6.667969 Z M 3.625 4.328125 L 6.800781 4.328125 C 7.144531 4.328125 7.421875 4.050781 7.421875 3.707031 C 7.421875 3.363281 7.144531 3.085938 6.800781 3.085938 C 6.5 3.085938 6.253906 2.839844 6.253906 2.539062 C 6.253906 2.234375 6.496094 1.988281 6.800781 1.988281 L 13.230469 1.988281 C 13.53125 1.988281 13.777344 2.234375 13.777344 2.539062 C 13.777344 2.839844 13.53125 3.085938 13.230469 3.085938 L 10.058594 3.085938 C 9.714844 3.085938 9.4375 3.363281 9.4375 3.707031 C 9.4375 4.050781 9.714844 4.328125 10.058594 4.328125 C 10.359375 4.328125 10.601562 4.574219 10.601562 4.875 C 10.601562 5.179688 10.359375 5.425781 10.058594 5.425781 L 3.625 5.425781 C 3.324219 5.425781 3.078125 5.179688 3.078125 4.875 C 3.078125 4.582031 3.3125 4.328125 3.625 4.328125 Z M 3.625 4.328125 "/>
</g>
</svg>
