<?xml version="1.0" encoding="UTF-8"?>
<svg xmlns="http://www.w3.org/2000/svg" xmlns:xlink="http://www.w3.org/1999/xlink" width="30px" height="30px" viewBox="0 0 30 30" version="1.1">
<defs>
<clipPath id="clip1">
  <path d="M 0.785156 3.867188 L 29.816406 3.867188 L 29.816406 25.933594 L 0.785156 25.933594 Z M 0.785156 3.867188 "/>
</clipPath>
</defs>
<g id="surface1">
<g clip-path="url(#clip1)" clip-rule="nonzero">
<path style=" stroke:none;fill-rule:nonzero;fill:rgb(39.215687%,73.725492%,24.313726%);fill-opacity:1;" d="M 24.5 3.917969 C 22.019531 3.917969 19.925781 5.628906 19.347656 7.933594 L 2.90625 7.933594 C 2.351562 7.933594 1.828125 8.148438 1.429688 8.535156 C 1.429688 8.535156 1.425781 8.535156 1.425781 8.535156 C 1.425781 8.535156 1.425781 8.539062 1.421875 8.539062 C 1.011719 8.941406 0.785156 9.480469 0.785156 10.058594 L 0.785156 23.792969 C 0.785156 24.378906 1.027344 24.941406 1.453125 25.34375 C 1.457031 25.34375 1.457031 25.34375 1.457031 25.34375 C 1.851562 25.714844 2.367188 25.917969 2.90625 25.917969 L 22.945312 25.917969 C 23.480469 25.917969 23.996094 25.714844 24.390625 25.347656 C 24.390625 25.347656 24.394531 25.34375 24.398438 25.339844 C 24.824219 24.941406 25.066406 24.378906 25.066406 23.792969 L 25.066406 14.515625 C 27.734375 14.234375 29.816406 11.972656 29.816406 9.230469 C 29.816406 6.300781 27.429688 3.917969 24.5 3.917969 Z M 2.90625 9.066406 L 19.1875 9.066406 C 19.1875 9.121094 19.1875 9.175781 19.1875 9.230469 C 19.1875 10.246094 19.472656 11.199219 19.96875 12.003906 L 13.296875 18.3125 L 12.554688 18.3125 L 2.785156 9.074219 C 2.824219 9.070312 2.867188 9.066406 2.90625 9.066406 Z M 1.917969 10.058594 C 1.917969 9.984375 1.925781 9.910156 1.941406 9.839844 L 9.886719 17.347656 L 1.960938 24.085938 C 1.933594 23.992188 1.917969 23.894531 1.917969 23.792969 Z M 22.945312 24.78125 L 2.90625 24.78125 C 2.902344 24.78125 2.898438 24.78125 2.894531 24.78125 L 10.714844 18.132812 L 11.941406 19.292969 C 12.046875 19.390625 12.183594 19.445312 12.328125 19.445312 L 13.523438 19.445312 C 13.667969 19.445312 13.804688 19.390625 13.910156 19.292969 L 15.136719 18.132812 L 22.957031 24.78125 C 22.953125 24.78125 22.949219 24.78125 22.945312 24.78125 Z M 23.933594 23.792969 C 23.933594 23.894531 23.917969 23.992188 23.890625 24.085938 L 15.964844 17.347656 L 20.664062 12.90625 C 21.507812 13.789062 22.65625 14.378906 23.933594 14.515625 Z M 24.5 13.414062 C 22.195312 13.414062 20.320312 11.539062 20.320312 9.230469 C 20.320312 6.925781 22.195312 5.050781 24.5 5.050781 C 26.804688 5.050781 28.683594 6.925781 28.683594 9.230469 C 28.683594 11.539062 26.804688 13.414062 24.5 13.414062 Z M 24.5 13.414062 "/>
</g>
<path style=" stroke:none;fill-rule:nonzero;fill:rgb(39.215687%,73.725492%,24.313726%);fill-opacity:1;" d="M 24.691406 7.414062 L 24.085938 7.414062 C 23.773438 7.414062 23.519531 7.667969 23.519531 7.984375 C 23.519531 8.296875 23.773438 8.550781 24.085938 8.550781 L 24.125 8.550781 L 24.125 10.816406 C 24.125 11.128906 24.378906 11.382812 24.691406 11.382812 C 25.003906 11.382812 25.257812 11.128906 25.257812 10.816406 L 25.257812 7.984375 C 25.257812 7.667969 25.003906 7.414062 24.691406 7.414062 Z M 24.691406 7.414062 "/>
</g>
</svg>
